<svg xmlns="http://www.w3.org/2000/svg" xmlns:xlink="http://www.w3.org/1999/xlink" xmlns:lucid="lucid" width="757" height="548"><g transform="translate(-521 -208)" lucid:page-tab-id="0_0"><path d="M1040 504c0 27.6-22.4 50-50 50s-50-22.4-50-50 22.4-50 50-50 50 22.4 50 50z" stroke="#000" stroke-opacity="0" fill="#7e8be4"/><path d="M1014.2 491.4h-9.76c-3.26 0-5.88-2.64-5.88-5.76v-9.78c.16-.96-.73-1.86-1.84-1.86h-15.54c-3.25 0-5.88 2.64-5.88 5.76v36.72c0 3.3 2.63 5.76 5.88 5.76h29.14c3.25 0 5.88-2.64 5.88-5.76v-23.1c0-1.14-.9-1.98-2-1.98zm-44.62 25.2v-30.96c-3.25 0-5.88 2.64-5.88 5.76v36.72c0 3.24 2.63 5.88 5.88 5.88h29.14c3.25 0 5.88-2.64 5.88-5.76h-23.42c-6.35 0-11.6 0-11.6-11.64zm37.22-42.24l9.03 8.88c.26.36.37.66.37 1.02 0 .72-.63 1.38-1.37 1.38h-6.4c-2.1 0-3.83-1.74-3.83-3.9v-6.36c0-.78.57-1.38 1.36-1.38.37 0 .63.12.84.36z" stroke="#000" stroke-opacity="0" fill="#fff"/><path d="M578.62 450.66h10.67V557.3H578.6V450.65zM557.38 482.62h10.66v42.63h-10.66v-42.63zM600 482.62h10.66v42.63H600v-42.63zM536 466.62h10.66v74.63H536v-74.63zM621.38 466.62h10.66v74.63h-10.66v-74.63z" stroke="#000" stroke-opacity="0" fill="#4285f4"/><path d="M578.62 450.66h10.67v53.38H578.6v-53.38zM557.38 482.62h10.66V504h-10.66v-21.38zM600 482.62h10.66V504H600v-21.38zM536 466.62h10.66V504H536v-37.38zM621.38 466.62h10.66V504h-10.66v-37.38z" stroke="#000" stroke-opacity="0" fill="#669df6"/><path d="M532.8 452.8v102.4h102.4V452.8z" stroke="#000" stroke-opacity="0" fill-opacity="0"/><use xlink:href="#a" transform="matrix(1,0,0,1,520,573) translate(16.805555555555557 15.999999999999998)"/><use xlink:href="#b" transform="matrix(1,0,0,1,520,573) translate(90.13888888888889 15.999999999999998)"/><use xlink:href="#c" transform="matrix(1,0,0,1,520,573) translate(45.69444444444444 39.99999999999999)"/><path d="M635.7 504h1.53m2.03 0h3.05m2.05 0h3.05m2.04 0h3.05m2.02 0h3.06m2.03 0h3.07m2.03 0h3.05m2.04 0h3.04m2.04 0h3.05m2.04 0H683m2.03 0h3.06m2.04 0h3.05m2.03 0h3.05m2.04 0h3.05m2.03 0h3.06m2.03 0h3.05m2.03 0h3.05m2.04 0h3.05m2.04 0h3.05m2.05 0h1.52" stroke="#3a414a" fill="none"/><path d="M635.7 504.48h-.5v-.96h.5z" stroke="#3a414a" stroke-width=".05" fill="#3a414a"/><path d="M743.02 504l-12.9 7.64v-15.28z" stroke="#3a414a" fill="#fff"/><path d="M844 504c0 27.6-22.4 50-50 50s-50-22.4-50-50 22.4-50 50-50 50 22.4 50 50z" stroke="#000" stroke-opacity="0" fill="#7e8be4"/><path d="M818.2 491.4h-9.76c-3.26 0-5.88-2.64-5.88-5.76v-9.78c.16-.96-.73-1.86-1.84-1.86h-15.54c-3.25 0-5.88 2.64-5.88 5.76v36.72c0 3.3 2.63 5.76 5.88 5.76h29.14c3.25 0 5.88-2.64 5.88-5.76v-23.1c0-1.14-.9-1.98-2-1.98zm-44.62 25.2v-30.96c-3.25 0-5.88 2.64-5.88 5.76v36.72c0 3.24 2.63 5.88 5.88 5.88h29.14c3.25 0 5.88-2.64 5.88-5.76h-23.42c-6.35 0-11.6 0-11.6-11.64zm37.22-42.24l9.03 8.88c.26.36.37.66.37 1.02 0 .72-.63 1.38-1.37 1.38h-6.4c-2.1 0-3.83-1.74-3.83-3.9v-6.36c0-.78.57-1.38 1.36-1.38.37 0 .63.12.84.36z" stroke="#000" stroke-opacity="0" fill="#fff"/><path d="M844.42 501.62h1.48m1.98 0h2.97m1.97 0h2.97m1.97 0h2.97m1.97 0h2.98m1.98 0h2.97m1.98 0h2.97m1.98 0h2.97m1.98 0h2.96m1.98 0h2.97m2 0h2.96m1.97 0h2.97m1.98 0h2.97m1.97 0h2.97m1.97 0h2.97m1.98 0h2.96m1.98 0h2.97m1.98 0h1.5" stroke="#3a414a" fill="none"/><path d="M844.43 502.1h-.5l-.03-.96h.53z" stroke="#3a414a" stroke-width=".05" fill="#3a414a"/><path d="M939.14 501.62l-12.9 7.63V494z" stroke="#3a414a" fill="#fff"/><path d="M997.18 482.4c1.88 1.6 2.82 3.86 2.82 6.64 0 2.4-.78 4.53-2.34 6.33-1.4 1.65-3.58 3.15-6.48 4.5v5.74c0 .5-.38.88-.86.88h-4.1c-.46 0-.84-.38-.86-.83l-.46-8c0-.32.18-.66.48-.8l2.3-1.14c2.06-1 3.56-2 4.46-3.02.82-.9 1.24-1.95 1.24-3.12 0-1.24-.36-2.17-1.08-2.77-.76-.65-1.92-1-3.48-1-1.16 0-2.32.2-3.5.5-1.18.34-2.56.9-4.08 1.6-.26.16-.58.13-.84-.02-.24-.15-.4-.42-.4-.72v-3.94c0-.3.16-.56.42-.7 2.86-1.7 5.96-2.52 9.2-2.52 3.18 0 5.72.82 7.56 2.4zm-.82 11.9c1.28-1.55 1.92-3.24 1.92-5.26 0-2.3-.74-4.05-2.24-5.37-1.52-1.3-3.68-1.98-6.42-1.98-2.78 0-5.42.7-7.9 2v2.1c1.14-.48 2.18-.85 3.14-1.1 1.32-.4 2.66-.57 3.96-.57 1.98 0 3.52.44 4.6 1.38 1.1.95 1.68 2.3 1.68 4.06 0 1.58-.56 3.04-1.68 4.28-1.06 1.16-2.68 2.25-4.96 3.37l-1.8.9.38 6.65h2.42v-5.4c0-.34.2-.64.5-.8 2.92-1.26 5.06-2.73 6.4-4.26zm-8.06 14.95c1.22 0 2.22.38 2.98 1.16.76.8 1.16 1.77 1.16 2.98 0 1.16-.4 2.17-1.16 2.96-.76.75-1.76 1.16-2.98 1.16-1.2 0-2.2-.4-2.98-1.16-.76-.8-1.14-1.8-1.14-2.97 0-1.2.38-2.17 1.14-2.96.78-.77 1.78-1.15 2.98-1.15zm1.76 5.9c.44-.46.66-1.06.66-1.77 0-.75-.22-1.32-.66-1.77-.44-.44-1.02-.66-1.76-.66s-1.3.22-1.74.67c-.46.46-.66 1.02-.66 1.77s.2 1.32.66 1.77c.44.45 1 .67 1.74.67s1.32-.2 1.76-.66z" stroke="#000" stroke-opacity="0" fill="#635dff"/><path d="M980.08 487.5l4.17 26.77 2.36 2.7 3.5-.32 2.26-2.5 7.2-22.2-.95-7.15-5.76-3.9-6.93.22-5.4 1.7z" stroke="#000" stroke-opacity="0" fill-opacity="0"/><path d="M1140 444h120v120h-120V444z" stroke="#000" stroke-opacity="0" fill="url(#d)"/><path d="M1241.28 521.5v17.84l-5.6 1v4.94h-71.35v-6.1l-5.6-1.9V521.4l5.6-1.82v-4.37h5.78c1.17-12.8 10.17-22.8 22.4-25.76v-4.2c0-4.8 2.7-7.52 7.5-7.52s7.5 2.72 7.5 7.5v4.22c5.54 1.32 10.58 4.04 14.54 8 4.7 4.8 7.52 11.07 7.93 17.76h5.7v3.88zM1200 492.36c-14.53 0-25.84 10.65-26.25 24.85v24.37h52.5v-24.44c.1-6.44-2.4-12.47-6.93-17-4.87-4.96-11.9-7.77-19.32-7.77zm-15.52-18.9l-2.73-2.65c3.97-3.95 10.74-8.08 18.33-8.08 6.2 0 13.13 3.05 18.17 8.1l-2.73 2.63c-3.3-3.38-9.16-7-15.44-7-5.28 0-11.4 2.8-15.6 7zm5.2 49.28c-3.63 0-6.6-2.9-6.6-6.52 0-3.63 2.97-6.6 6.6-6.6 3.63 0 6.6 2.97 6.6 6.6 0 3.63-2.97 6.52-6.6 6.52zm20.64 0c-3.63 0-6.6-2.9-6.6-6.52 0-3.63 2.97-6.6 6.6-6.6 3.63 0 6.6 2.97 6.6 6.6 0 3.63-2.97 6.52-6.6 6.52zm-44.1-41.28c-3.12 0-5.6-2.48-5.6-5.6 0-3.07 2.48-5.63 5.6-5.63 3.15 0 5.63 2.56 5.63 5.62 0 3.13-2.48 5.6-5.62 5.6zm1.9 7.5c0-3.04 2.5-5.6 5.63-5.6 3.05 0 5.6 2.56 5.6 5.6 0 3.15-2.55 5.63-5.6 5.63-3.14 0-5.62-2.5-5.62-5.63zm31.96-18.73c6.36 0 10.5 4.13 12.47 6.2l-2.64 2.64c-1.73-1.82-5.03-5.12-9.82-5.12-4.95 0-8.25 3.3-10 5.12l-2.63-2.64c1.98-2.07 6.1-6.2 12.63-6.2zm-36.65 39.38c-2.65 0-4.7-2.05-4.7-4.7 0-2.55 2.05-4.6 4.7-4.6 2.55 0 4.7 2.05 4.7 4.6 0 2.65-2.15 4.7-4.7 4.7zm32.86-24.34v3.55c1.14-.07 2.46-.24 3.7-.24 1.24 0 2.48.17 3.7.25v-3.54c0-2.73-.98-3.8-3.7-3.8s-3.7 1.07-3.7 3.8zm-28.17 33.77v22.54h1.82v-22.54h-1.82zm63.74 22.54v-22.54h-1.82v22.54zm-42.2-28.16c-1.56 0-2.8 1.25-2.8 2.82 0 1.57 1.24 2.8 2.8 2.8 1.58 0 2.82-1.23 2.82-2.8 0-1.57-1.25-2.8-2.82-2.8zm20.65 0c-1.57 0-2.8 1.25-2.8 2.82 0 1.57 1.23 2.8 2.8 2.8 1.57 0 2.8-1.23 2.8-2.8 0-1.57-1.23-2.8-2.8-2.8zm27.25 22.8v-12.22l-1.9-.83v13.38zm-75.13-1.65l1.9.66v-11.63l-1.9.57zm3.8-60.6c-1.08 0-1.9.9-1.9 1.9 0 1.07.82 1.9 1.9 1.9.98 0 1.9-.83 1.9-1.9 0-1-.92-1.9-1.9-1.9zm7.5 13.13c-1.07 0-1.9.9-1.9 1.9 0 1.07.83 1.9 1.9 1.9 1 0 1.9-.83 1.9-1.9 0-1-.9-1.9-1.9-1.9zm-10.3 16.92c-.5 0-1 .4-1 .9 0 .6.5 1 1 1 .48 0 .9-.4.9-1 0-.5-.42-.9-.9-.9z" stroke="#000" stroke-opacity="0" fill="#fcffff"/><path d="M1040.37 500.42h1.47m1.96 0h2.93m1.95 0h2.94m1.95 0h2.94m1.96 0h2.93m1.95 0h2.93m1.96 0h2.93m1.96 0h2.93m1.96 0h2.93m1.96 0h2.94m1.96 0h2.93m1.95 0h2.94m1.95 0h2.94m1.96 0h2.93m1.95 0h2.93m1.96 0h2.93m1.96 0h2.93m1.96 0h2.93m1.95 0h1.47" stroke="#3a414a" fill="none"/><path d="M1040.4 500.9h-.5l-.03-.48-.05-.48h.57z" stroke="#3a414a" stroke-width=".05" fill="#3a414a"/><path d="M1139.02 500.42l-12.9 7.63v-15.27z" stroke="#3a414a" fill="#fff"/><path d="M1172.54 325.86v13.65c2.26 3.9 5.04 6.72 8.9 9.04v-22.68z" stroke="#000" stroke-opacity="0" fill="#aecbfa"/><path d="M1188.98 313.28v39.13c2 .24 3.72.36 5.74.32 1.8.12 3.36.12 5.18 0v-39.44z" stroke="#000" stroke-opacity="0" fill="#669df6"/><path d="M1208.53 331.27v17.06c3.88-2.47 6.64-5.4 8.84-9.43v-7.63z" stroke="#000" stroke-opacity="0" fill="#aecbfa"/><path d="M1229.86 354.5l-7.36 7.36-.03.03c-.84.87-.84 2.25.03 3.1l18.37 18.37c.85.84 2.23.84 3.08 0l7.42-7.42c.84-.85.84-2.24 0-3.08L1233 354.5l-.03-.03c-.88-.84-2.26-.84-3.1.03" stroke="#000" stroke-opacity="0" fill="#4285f4"/><path d="M1194.8 280c-25.83 0-46.8 20.97-46.8 46.8s20.97 46.8 46.8 46.8 46.8-20.97 46.8-46.8-20.97-46.8-46.8-46.8m0 81.62c-19.2-.1-34.73-15.63-34.73-34.82.1-19.2 15.64-34.73 34.82-34.73 19.18.1 34.63 15.54 34.72 34.73 0 19.2-15.54 34.73-34.73 34.82h-.1" stroke="#000" stroke-opacity="0" fill="#669df6"/><path d="M540 226a6 6 0 0 1 6-6h584a6 6 0 0 1 6 6v168a6 6 0 0 1-6 6H546a6 6 0 0 1-6-6z" stroke="#000" stroke-opacity="0" stroke-width="2" fill="#f2f2ff"/><use xlink:href="#e" transform="matrix(1,0,0,1,545,225) translate(0 21.3125)"/><use xlink:href="#f" transform="matrix(1,0,0,1,545,225) translate(62.22222222222221 21.3125)"/><use xlink:href="#g" transform="matrix(1,0,0,1,545,225) translate(89.99999999999997 21.3125)"/><use xlink:href="#h" transform="matrix(1,0,0,1,545,225) translate(155.4444444444444 21.3125)"/><use xlink:href="#i" transform="matrix(1,0,0,1,545,225) translate(248.61111111111106 21.3125)"/><use xlink:href="#j" transform="matrix(1,0,0,1,545,225) translate(359.6111111111111 21.3125)"/><use xlink:href="#k" transform="matrix(1,0,0,1,545,225) translate(420.7222222222222 21.3125)"/><use xlink:href="#l" transform="matrix(1,0,0,1,545,225) translate(480.61111111111103 21.3125)"/><use xlink:href="#m" transform="matrix(1,0,0,1,545,225) translate(491.7222222222221 21.3125)"/><use xlink:href="#n" transform="matrix(1,0,0,1,545,225) translate(0 45.31249999999999)"/><use xlink:href="#f" transform="matrix(1,0,0,1,545,225) translate(86.66666666666666 45.31249999999999)"/><use xlink:href="#o" transform="matrix(1,0,0,1,545,225) translate(114.44444444444443 45.31249999999999)"/><use xlink:href="#p" transform="matrix(1,0,0,1,545,225) translate(147.77777777777777 45.31249999999999)"/><use xlink:href="#g" transform="matrix(1,0,0,1,545,225) translate(230.88888888888886 45.31249999999999)"/><use xlink:href="#q" transform="matrix(1,0,0,1,545,225) translate(296.33333333333326 45.31249999999999)"/><use xlink:href="#r" transform="matrix(1,0,0,1,545,225) translate(399.4999999999999 45.31249999999999)"/><use xlink:href="#s" transform="matrix(1,0,0,1,545,225) translate(490.4999999999999 45.31249999999999)"/><use xlink:href="#t" transform="matrix(1,0,0,1,545,225) translate(0 69.31249999999999)"/><use xlink:href="#o" transform="matrix(1,0,0,1,545,225) translate(69.94444444444443 69.31249999999999)"/><use xlink:href="#u" transform="matrix(1,0,0,1,545,225) translate(103.27777777777776 69.31249999999999)"/><use xlink:href="#v" transform="matrix(1,0,0,1,545,225) translate(164.33333333333331 69.31249999999999)"/><use xlink:href="#w" transform="matrix(1,0,0,1,545,225) translate(203.2222222222222 69.31249999999999)"/><use xlink:href="#x" transform="matrix(1,0,0,1,545,225) translate(268.7222222222222 69.31249999999999)"/><use xlink:href="#k" transform="matrix(1,0,0,1,545,225) translate(316.4444444444444 69.31249999999999)"/><use xlink:href="#l" transform="matrix(1,0,0,1,545,225) translate(376.33333333333326 69.31249999999999)"/><use xlink:href="#y" transform="matrix(1,0,0,1,545,225) translate(387.44444444444434 69.31249999999999)"/><use xlink:href="#z" transform="matrix(1,0,0,1,545,225) translate(436.27777777777766 69.31249999999999)"/><use xlink:href="#A" transform="matrix(1,0,0,1,545,225) translate(486.111111111111 69.31249999999999)"/><use xlink:href="#B" transform="matrix(1,0,0,1,545,225) translate(0 93.31249999999999)"/><use xlink:href="#C" transform="matrix(1,0,0,1,545,225) translate(92.22222222222221 93.31249999999999)"/><use xlink:href="#o" transform="matrix(1,0,0,1,545,225) translate(133.27777777777777 93.31249999999999)"/><use xlink:href="#u" transform="matrix(1,0,0,1,545,225) translate(166.6111111111111 93.31249999999999)"/><use xlink:href="#D" transform="matrix(1,0,0,1,545,225) translate(227.66666666666663 93.31249999999999)"/><use xlink:href="#E" transform="matrix(1,0,0,1,545,225) translate(249.88888888888886 93.31249999999999)"/><use xlink:href="#F" transform="matrix(1,0,0,1,545,225) translate(320.88888888888886 93.31249999999999)"/><use xlink:href="#G" transform="matrix(1,0,0,1,545,225) translate(354.16666666666663 93.31249999999999)"/><use xlink:href="#H" transform="matrix(1,0,0,1,545,225) translate(370.8333333333333 93.31249999999999)"/><use xlink:href="#v" transform="matrix(1,0,0,1,545,225) translate(444.1111111111111 93.31249999999999)"/><use xlink:href="#I" transform="matrix(1,0,0,1,545,225) translate(483 93.31249999999999)"/><use xlink:href="#x" transform="matrix(1,0,0,1,545,225) translate(0 117.31249999999999)"/><use xlink:href="#J" transform="matrix(1,0,0,1,545,225) translate(47.722222222222214 117.31249999999999)"/><use xlink:href="#K" transform="matrix(1,0,0,1,545,225) translate(139.38888888888886 117.31249999999999)"/><use xlink:href="#o" transform="matrix(1,0,0,1,545,225) translate(186.99999999999994 117.31249999999999)"/><use xlink:href="#L" transform="matrix(1,0,0,1,545,225) translate(220.33333333333326 117.31249999999999)"/><use xlink:href="#D" transform="matrix(1,0,0,1,545,225) translate(308.05555555555543 117.31249999999999)"/><use xlink:href="#M" transform="matrix(1,0,0,1,545,225) translate(330.27777777777766 117.31249999999999)"/><use xlink:href="#o" transform="matrix(1,0,0,1,545,225) translate(366.88888888888874 117.31249999999999)"/><use xlink:href="#N" transform="matrix(1,0,0,1,545,225) translate(400.22222222222206 117.31249999999999)"/><use xlink:href="#O" transform="matrix(1,0,0,1,545,225) translate(487.83333333333314 117.31249999999999)"/><use xlink:href="#P" transform="matrix(1,0,0,1,545,225) translate(0 141.31249999999997)"/><use xlink:href="#Q" transform="matrix(1,0,0,1,545,225) translate(96.66666666666666 141.31249999999997)"/><use xlink:href="#R" transform="matrix(1,0,0,1,545,225) translate(152.1111111111111 141.31249999999997)"/><use xlink:href="#S" transform="matrix(1,0,0,1,545,225) translate(206.49999999999997 141.31249999999997)"/><use xlink:href="#T" transform="matrix(1,0,0,1,545,225) translate(221.99999999999997 141.31249999999997)"/><use xlink:href="#G" transform="matrix(1,0,0,1,545,225) translate(259.7222222222222 141.31249999999997)"/><use xlink:href="#U" transform="matrix(1,0,0,1,545,225) translate(276.38888888888886 141.31249999999997)"/><use xlink:href="#V" transform="matrix(1,0,0,1,545,225) translate(351.9444444444444 141.31249999999997)"/><use xlink:href="#W" transform="matrix(1,0,0,1,545,225) translate(396.38888888888886 141.31249999999997)"/><use xlink:href="#X" transform="matrix(1,0,0,1,545,225) translate(437.38888888888886 141.31249999999997)"/><use xlink:href="#R" transform="matrix(1,0,0,1,545,225) translate(0 165.31249999999997)"/><use xlink:href="#S" transform="matrix(1,0,0,1,545,225) translate(54.38888888888888 165.31249999999997)"/><use xlink:href="#Y" transform="matrix(1,0,0,1,545,225) translate(69.88888888888887 165.31249999999997)"/><path d="M1200 373.8v1.47m0 1.95v2.93m0 1.95v2.93m0 1.95v2.93m0 1.96v2.93m0 1.94v2.93m0 1.95v2.93m0 1.95v2.93m0 1.95v2.93m0 1.97v2.92m0 1.95v2.93m0 1.95v2.93m0 1.95v1.47" stroke="#3a414a" fill="none"/><path d="M1200.47 373.82h-.94v-.47l.3-.02.64-.1z" stroke="#3a414a" stroke-width=".05" fill="#3a414a"/><path d="M1200 443.02l-7.64-12.9h15.28z" stroke="#3a414a" fill="#fff"/><path d="M1200 564.5v1.53m0 2.05v3.06m0 2.05v3.05m0 2.05v3.06m0 2.04v3.07m0 2.04v3.08m0 2.04v3.07m0 2.03v3.07m0 2.04v3.07m0 2.05v3.07m0 2.04v3.07m0 2.04v1.54" stroke="#3a414a" fill="none"/><path d="M1200.47 564.5h-.94v-.5h.94z" stroke="#3a414a" stroke-width=".05" fill="#3a414a"/><path d="M1200 631.35l-7.64-12.9h15.28z" stroke="#3a414a" fill="#fff"/><path d="M1140.84 632.33v80.87h120v-80.87h-120zm114 74.4h-109.56v-57.4h109.56v57.4z" stroke="#000" stroke-opacity="0" fill="#2a3282"/><path d="M1185.24 676.16h-2.76v-2.66h-.12c-1.2 2.1-2.88 3.07-5.16 3.07-1.68 0-3-.4-3.96-1.3-.96-.88-1.44-2.1-1.44-3.63 0-3.16 1.8-5.02 5.52-5.5l5.16-.73c0-2.82-1.2-4.28-3.48-4.28-2.04 0-3.96.73-5.64 2.1v-2.83c.6-.4 1.44-.73 2.64-1.06 1.2-.4 2.28-.56 3.24-.56 3.96 0 6 2.18 6 6.4v10.98zm-2.76-8.57l-4.08.64c-1.44.16-2.4.56-3 .97-.6.4-.84 1.22-.84 2.27 0 .9.24 1.54.96 2.02.6.56 1.32.8 2.28.8 1.32 0 2.52-.48 3.36-1.45.84-.9 1.32-2.1 1.32-3.56v-1.7zM1205.88 667.2c0 2.82-.72 5.16-2.04 6.86-1.44 1.7-3.36 2.5-5.64 2.5s-3.96-.88-5.04-2.82h-.12V684h-2.64v-24.74h2.64v2.9h.12c1.32-2.17 3.24-3.38 5.76-3.38 2.16 0 3.84.8 5.16 2.26 1.2 1.54 1.8 3.56 1.8 6.15zm-2.76 0c0-1.87-.48-3.33-1.32-4.38-.84-1.13-2.04-1.7-3.6-1.7s-2.76.57-3.72 1.62c-.96 1.13-1.44 2.5-1.44 4.12v2.43c0 1.37.36 2.58 1.32 3.55.96.97 2.16 1.37 3.48 1.37 1.68 0 2.88-.56 3.84-1.86.96-1.2 1.44-3 1.44-5.17zM1225.68 667.2c0 2.82-.72 5.16-2.04 6.86-1.44 1.7-3.36 2.5-5.64 2.5s-3.96-.88-5.16-2.82V684h-2.76v-24.74h2.76v2.9c1.44-2.17 3.36-3.38 5.88-3.38 2.16 0 3.84.8 5.16 2.26 1.2 1.54 1.8 3.56 1.8 6.15zm-2.76 0c0-1.87-.48-3.33-1.32-4.38-.84-1.13-2.04-1.7-3.6-1.7s-2.76.57-3.72 1.62c-.96 1.13-1.44 2.5-1.44 4.12v2.43c0 1.37.48 2.58 1.32 3.55.96.97 2.16 1.37 3.48 1.37 1.68 0 2.88-.56 3.84-1.86.96-1.2 1.44-3 1.44-5.17z" stroke="#000" stroke-opacity="0" fill="#2a3282"/><g><use xlink:href="#Z" transform="matrix(1,0,0,1,1110.84,722.2013821610799) translate(44.52808641975308 16.177777777777777)"/></g><path d="M680 565a6 6 0 0 1 6-6h202a6 6 0 0 1 6 6v51.33a6 6 0 0 1-6 6H686a6 6 0 0 1-6-6z" stroke="#000" stroke-opacity="0" stroke-width="2" fill="#fff" fill-opacity="0"/><g><use xlink:href="#aa" transform="matrix(1,0,0,1,685,564) translate(25.3888888888889 19.375)"/><use xlink:href="#ab" transform="matrix(1,0,0,1,685,564) translate(129.72222222222223 19.375)"/><use xlink:href="#ac" transform="matrix(1,0,0,1,685,564) translate(10.277777777777786 43.37499999999999)"/><use xlink:href="#ad" transform="matrix(1,0,0,1,685,564) translate(103.77777777777779 43.37499999999999)"/><use xlink:href="#ae" transform="matrix(1,0,0,1,685,564) translate(126 43.37499999999999)"/></g><path d="M885 565a6 6 0 0 1 6-6h198a6 6 0 0 1 6 6v61.33a6 6 0 0 1-6 6H891a6 6 0 0 1-6-6z" stroke="#000" stroke-opacity="0" stroke-width="2" fill="#fff" fill-opacity="0"/><g><use xlink:href="#af" transform="matrix(1,0,0,1,890,564) translate(22.833333333333343 24)"/><use xlink:href="#ag" transform="matrix(1,0,0,1,890,564) translate(107.16666666666667 24)"/><use xlink:href="#ah" transform="matrix(1,0,0,1,890,564) translate(17.361111111111114 47.99999999999999)"/></g><defs><path d="M185-189c-5-48-123-54-124 2 14 75 158 14 163 119 3 78-121 87-175 55-17-10-28-26-33-46l33-7c5 56 141 63 141-1 0-78-155-14-162-118-5-82 145-84 179-34 5 7 8 16 11 25" id="ai"/><path d="M115-194c55 1 70 41 70 98S169 2 115 4C84 4 66-9 55-30l1 105H24l-1-265h31l2 30c10-21 28-34 59-34zm-8 174c40 0 45-34 45-75s-6-73-45-74c-42 0-51 32-51 76 0 43 10 73 51 73" id="aj"/><path d="M100-194c63 0 86 42 84 106H49c0 40 14 67 53 68 26 1 43-12 49-29l28 8c-11 28-37 45-77 45C44 4 14-33 15-96c1-61 26-98 85-98zm52 81c6-60-76-77-97-28-3 7-6 17-6 28h103" id="ak"/><path d="M96-169c-40 0-48 33-48 73s9 75 48 75c24 0 41-14 43-38l32 2c-6 37-31 61-74 61-59 0-76-41-82-99-10-93 101-131 147-64 4 7 5 14 7 22l-32 3c-4-21-16-35-41-35" id="al"/><path d="M106-169C34-169 62-67 57 0H25v-261h32l-1 103c12-21 28-36 61-36 89 0 53 116 60 194h-32v-121c2-32-8-49-39-48" id="am"/><g id="a"><use transform="matrix(0.055555555555555546,0,0,0.055555555555555546,0,0)" xlink:href="#ai"/><use transform="matrix(0.055555555555555546,0,0,0.055555555555555546,13.33333333333333,0)" xlink:href="#aj"/><use transform="matrix(0.055555555555555546,0,0,0.055555555555555546,24.44444444444444,0)" xlink:href="#ak"/><use transform="matrix(0.055555555555555546,0,0,0.055555555555555546,35.55555555555555,0)" xlink:href="#ak"/><use transform="matrix(0.055555555555555546,0,0,0.055555555555555546,46.66666666666666,0)" xlink:href="#al"/><use transform="matrix(0.055555555555555546,0,0,0.055555555555555546,56.66666666666666,0)" xlink:href="#am"/></g><path d="M127-220V0H93v-220H8v-28h204v28h-85" id="an"/><path d="M100-194c62-1 85 37 85 99 1 63-27 99-86 99S16-35 15-95c0-66 28-99 85-99zM99-20c44 1 53-31 53-75 0-43-8-75-51-75s-53 32-53 75 10 74 51 75" id="ao"/><g id="b"><use transform="matrix(0.055555555555555546,0,0,0.055555555555555546,0,0)" xlink:href="#an"/><use transform="matrix(0.055555555555555546,0,0,0.055555555555555546,9.944444444444443,0)" xlink:href="#ao"/></g><path d="M141 0L90-78 38 0H4l68-98-65-92h35l48 74 47-74h35l-64 92 68 98h-35" id="ap"/><path d="M59-47c-2 24 18 29 38 22v24C64 9 27 4 27-40v-127H5v-23h24l9-43h21v43h35v23H59v120" id="aq"/><g id="c"><use transform="matrix(0.055555555555555546,0,0,0.055555555555555546,0,0)" xlink:href="#an"/><use transform="matrix(0.055555555555555546,0,0,0.055555555555555546,9.944444444444443,0)" xlink:href="#ak"/><use transform="matrix(0.055555555555555546,0,0,0.055555555555555546,21.05555555555555,0)" xlink:href="#ap"/><use transform="matrix(0.055555555555555546,0,0,0.055555555555555546,31.05555555555555,0)" xlink:href="#aq"/></g><linearGradient gradientUnits="userSpaceOnUse" id="d" x1="1140" y1="564" x2="1260" y2="444"><stop offset="0%" stop-color="#ba23f6"/><stop offset="100%" stop-color="#fc6dff"/></linearGradient><path d="M160-131c35 5 61 23 61 61C221 17 115-2 30 0v-248c76 3 177-17 177 60 0 33-19 50-47 57zm-97-11c50-1 110 9 110-42 0-47-63-36-110-37v79zm0 115c55-2 124 14 124-45 0-56-70-42-124-44v89" id="ar"/><path d="M141-36C126-15 110 5 73 4 37 3 15-17 15-53c-1-64 63-63 125-63 3-35-9-54-41-54-24 1-41 7-42 31l-33-3c5-37 33-52 76-52 45 0 72 20 72 64v82c-1 20 7 32 28 27v20c-31 9-61-2-59-35zM48-53c0 20 12 33 32 33 41-3 63-29 60-74-43 2-92-5-92 41" id="as"/><path d="M135-143c-3-34-86-38-87 0 15 53 115 12 119 90S17 21 10-45l28-5c4 36 97 45 98 0-10-56-113-15-118-90-4-57 82-63 122-42 12 7 21 19 24 35" id="at"/><path d="M85-194c31 0 48 13 60 33l-1-100h32l1 261h-30c-2-10 0-23-3-31C134-8 116 4 85 4 32 4 16-35 15-94c0-66 23-100 70-100zm9 24c-40 0-46 34-46 75 0 40 6 74 45 74 42 0 51-32 51-76 0-42-9-74-50-73" id="au"/><g id="e"><use transform="matrix(0.055555555555555546,0,0,0.055555555555555546,0,0)" xlink:href="#ar"/><use transform="matrix(0.055555555555555546,0,0,0.055555555555555546,13.33333333333333,0)" xlink:href="#as"/><use transform="matrix(0.055555555555555546,0,0,0.055555555555555546,24.44444444444444,0)" xlink:href="#at"/><use transform="matrix(0.055555555555555546,0,0,0.055555555555555546,34.444444444444436,0)" xlink:href="#ak"/><use transform="matrix(0.055555555555555546,0,0,0.055555555555555546,45.55555555555554,0)" xlink:href="#au"/></g><path d="M117-194c89-4 53 116 60 194h-32v-121c0-31-8-49-39-48C34-167 62-67 57 0H25l-1-190h30c1 10-1 24 2 32 11-22 29-35 61-36" id="av"/><g id="f"><use transform="matrix(0.055555555555555546,0,0,0.055555555555555546,0,0)" xlink:href="#ao"/><use transform="matrix(0.055555555555555546,0,0,0.055555555555555546,11.111111111111109,0)" xlink:href="#av"/></g><path d="M24 0v-261h32V0H24" id="aw"/><path d="M84 4C-5 8 30-112 23-190h32v120c0 31 7 50 39 49 72-2 45-101 50-169h31l1 190h-30c-1-10 1-25-2-33-11 22-28 36-60 37" id="ax"/><path d="M114-163C36-179 61-72 57 0H25l-1-190h30c1 12-1 29 2 39 6-27 23-49 58-41v29" id="ay"/><g id="g"><use transform="matrix(0.055555555555555546,0,0,0.055555555555555546,0,0)" xlink:href="#aw"/><use transform="matrix(0.055555555555555546,0,0,0.055555555555555546,4.388888888888888,0)" xlink:href="#ak"/><use transform="matrix(0.055555555555555546,0,0,0.055555555555555546,15.499999999999996,0)" xlink:href="#al"/><use transform="matrix(0.055555555555555546,0,0,0.055555555555555546,25.499999999999993,0)" xlink:href="#aq"/><use transform="matrix(0.055555555555555546,0,0,0.055555555555555546,31.055555555555543,0)" xlink:href="#ax"/><use transform="matrix(0.055555555555555546,0,0,0.055555555555555546,42.16666666666666,0)" xlink:href="#ay"/><use transform="matrix(0.055555555555555546,0,0,0.055555555555555546,48.777777777777764,0)" xlink:href="#ak"/></g><path d="M24-231v-30h32v30H24zM24 0v-190h32V0H24" id="az"/><path d="M33-154v-36h34v36H33zM33 0v-36h34V0H33" id="aA"/><g id="h"><use transform="matrix(0.055555555555555546,0,0,0.055555555555555546,0,0)" xlink:href="#aq"/><use transform="matrix(0.055555555555555546,0,0,0.055555555555555546,5.5555555555555545,0)" xlink:href="#ay"/><use transform="matrix(0.055555555555555546,0,0,0.055555555555555546,12.166666666666664,0)" xlink:href="#as"/><use transform="matrix(0.055555555555555546,0,0,0.055555555555555546,23.27777777777777,0)" xlink:href="#av"/><use transform="matrix(0.055555555555555546,0,0,0.055555555555555546,34.38888888888888,0)" xlink:href="#at"/><use transform="matrix(0.055555555555555546,0,0,0.055555555555555546,44.38888888888888,0)" xlink:href="#al"/><use transform="matrix(0.055555555555555546,0,0,0.055555555555555546,54.38888888888888,0)" xlink:href="#ay"/><use transform="matrix(0.055555555555555546,0,0,0.055555555555555546,60.999999999999986,0)" xlink:href="#az"/><use transform="matrix(0.055555555555555546,0,0,0.055555555555555546,65.38888888888887,0)" xlink:href="#aj"/><use transform="matrix(0.055555555555555546,0,0,0.055555555555555546,76.49999999999999,0)" xlink:href="#aq"/><use transform="matrix(0.055555555555555546,0,0,0.055555555555555546,82.05555555555554,0)" xlink:href="#aA"/></g><path d="M39-94c74 12-11 154 75 146v23c-44 4-70-10-70-52C44-23 55-84 6-82v-22c81 4-7-162 84-157h24v23c-82-15-2 131-75 144" id="aB"/><path d="M194 0L95-120 63-95V0H30v-248h33v124l119-124h40L117-140 236 0h-42" id="aC"/><path d="M206 0h-36l-40-164L89 0H53L-1-190h32L70-26l43-164h34l41 164 42-164h31" id="aD"/><path d="M177-190C167-65 218 103 67 71c-23-6-38-20-44-43l32-5c15 47 100 32 89-28v-30C133-14 115 1 83 1 29 1 15-40 15-95c0-56 16-97 71-98 29-1 48 16 59 35 1-10 0-23 2-32h30zM94-22c36 0 50-32 50-73 0-42-14-75-50-75-39 0-46 34-46 75s6 73 46 73" id="aE"/><g id="i"><use transform="matrix(0.055555555555555546,0,0,0.055555555555555546,0,0)" xlink:href="#aB"/><use transform="matrix(0.055555555555555546,0,0,0.055555555555555546,6.666666666666665,0)" xlink:href="#aC"/><use transform="matrix(0.055555555555555546,0,0,0.055555555555555546,19.999999999999996,0)" xlink:href="#av"/><use transform="matrix(0.055555555555555546,0,0,0.055555555555555546,31.111111111111107,0)" xlink:href="#ao"/><use transform="matrix(0.055555555555555546,0,0,0.055555555555555546,42.222222222222214,0)" xlink:href="#aD"/><use transform="matrix(0.055555555555555546,0,0,0.055555555555555546,56.6111111111111,0)" xlink:href="#aw"/><use transform="matrix(0.055555555555555546,0,0,0.055555555555555546,60.999999999999986,0)" xlink:href="#ak"/><use transform="matrix(0.055555555555555546,0,0,0.055555555555555546,72.1111111111111,0)" xlink:href="#au"/><use transform="matrix(0.055555555555555546,0,0,0.055555555555555546,83.22222222222221,0)" xlink:href="#aE"/><use transform="matrix(0.055555555555555546,0,0,0.055555555555555546,94.33333333333333,0)" xlink:href="#ak"/></g><path d="M115-194c53 0 69 39 70 98 0 66-23 100-70 100C84 3 66-7 56-30L54 0H23l1-261h32v101c10-23 28-34 59-34zm-8 174c40 0 45-34 45-75 0-40-5-75-45-74-42 0-51 32-51 76 0 43 10 73 51 73" id="aF"/><path d="M76-40C78 24 84 88 6 75V52C86 64 9-79 80-94c-40-6-34-59-34-106 1-29-11-41-40-38v-23c44-4 70 10 70 52 0 47-12 108 38 105v22c-26 1-39 14-38 42" id="aG"/><path d="M68-38c1 34 0 65-14 84H32c9-13 17-26 17-46H33v-38h35" id="aH"/><g id="j"><use transform="matrix(0.055555555555555546,0,0,0.055555555555555546,0,0)" xlink:href="#aF"/><use transform="matrix(0.055555555555555546,0,0,0.055555555555555546,11.111111111111109,0)" xlink:href="#as"/><use transform="matrix(0.055555555555555546,0,0,0.055555555555555546,22.222222222222218,0)" xlink:href="#at"/><use transform="matrix(0.055555555555555546,0,0,0.055555555555555546,32.222222222222214,0)" xlink:href="#ak"/><use transform="matrix(0.055555555555555546,0,0,0.055555555555555546,43.33333333333332,0)" xlink:href="#aG"/><use transform="matrix(0.055555555555555546,0,0,0.055555555555555546,49.999999999999986,0)" xlink:href="#aH"/></g><g id="k"><use transform="matrix(0.055555555555555546,0,0,0.055555555555555546,0,0)" xlink:href="#aD"/><use transform="matrix(0.055555555555555546,0,0,0.055555555555555546,14.388888888888886,0)" xlink:href="#am"/><use transform="matrix(0.055555555555555546,0,0,0.055555555555555546,25.499999999999993,0)" xlink:href="#ak"/><use transform="matrix(0.055555555555555546,0,0,0.055555555555555546,36.6111111111111,0)" xlink:href="#ay"/><use transform="matrix(0.055555555555555546,0,0,0.055555555555555546,43.22222222222221,0)" xlink:href="#ak"/></g><path d="M33 0v-248h34V0H33" id="aI"/><use transform="matrix(0.055555555555555546,0,0,0.055555555555555546,0,0)" xlink:href="#aI" id="l"/><path d="M210-169c-67 3-38 105-44 169h-31v-121c0-29-5-50-35-48C34-165 62-65 56 0H25l-1-190h30c1 10-1 24 2 32 10-44 99-50 107 0 11-21 27-35 58-36 85-2 47 119 55 194h-31v-121c0-29-5-49-35-48" id="aJ"/><g id="m"><use transform="matrix(0.055555555555555546,0,0,0.055555555555555546,0,0)" xlink:href="#as"/><use transform="matrix(0.055555555555555546,0,0,0.055555555555555546,11.111111111111109,0)" xlink:href="#aJ"/></g><path d="M101-234c-31-9-42 10-38 44h38v23H63V0H32v-167H5v-23h27c-7-52 17-82 69-68v24" id="aK"/><g id="n"><use transform="matrix(0.055555555555555546,0,0,0.055555555555555546,0,0)" xlink:href="#al"/><use transform="matrix(0.055555555555555546,0,0,0.055555555555555546,9.999999999999998,0)" xlink:href="#ao"/><use transform="matrix(0.055555555555555546,0,0,0.055555555555555546,21.111111111111107,0)" xlink:href="#av"/><use transform="matrix(0.055555555555555546,0,0,0.055555555555555546,32.222222222222214,0)" xlink:href="#aK"/><use transform="matrix(0.055555555555555546,0,0,0.055555555555555546,37.77777777777777,0)" xlink:href="#ax"/><use transform="matrix(0.055555555555555546,0,0,0.055555555555555546,48.88888888888888,0)" xlink:href="#at"/><use transform="matrix(0.055555555555555546,0,0,0.055555555555555546,58.88888888888888,0)" xlink:href="#ak"/><use transform="matrix(0.055555555555555546,0,0,0.055555555555555546,69.99999999999999,0)" xlink:href="#au"/></g><g id="o"><use transform="matrix(0.055555555555555546,0,0,0.055555555555555546,0,0)" xlink:href="#aq"/><use transform="matrix(0.055555555555555546,0,0,0.055555555555555546,5.5555555555555545,0)" xlink:href="#am"/><use transform="matrix(0.055555555555555546,0,0,0.055555555555555546,16.666666666666664,0)" xlink:href="#ak"/></g><g id="p"><use transform="matrix(0.055555555555555546,0,0,0.055555555555555546,0,0)" xlink:href="#aK"/><use transform="matrix(0.055555555555555546,0,0,0.055555555555555546,5.5555555555555545,0)" xlink:href="#ao"/><use transform="matrix(0.055555555555555546,0,0,0.055555555555555546,16.666666666666664,0)" xlink:href="#aw"/><use transform="matrix(0.055555555555555546,0,0,0.055555555555555546,21.055555555555554,0)" xlink:href="#aw"/><use transform="matrix(0.055555555555555546,0,0,0.055555555555555546,25.444444444444443,0)" xlink:href="#ao"/><use transform="matrix(0.055555555555555546,0,0,0.055555555555555546,36.55555555555555,0)" xlink:href="#aD"/><use transform="matrix(0.055555555555555546,0,0,0.055555555555555546,50.944444444444436,0)" xlink:href="#az"/><use transform="matrix(0.055555555555555546,0,0,0.055555555555555546,55.33333333333332,0)" xlink:href="#av"/><use transform="matrix(0.055555555555555546,0,0,0.055555555555555546,66.44444444444443,0)" xlink:href="#aE"/></g><g id="q"><use transform="matrix(0.055555555555555546,0,0,0.055555555555555546,0,0)" xlink:href="#aq"/><use transform="matrix(0.055555555555555546,0,0,0.055555555555555546,5.5555555555555545,0)" xlink:href="#ay"/><use transform="matrix(0.055555555555555546,0,0,0.055555555555555546,12.166666666666664,0)" xlink:href="#as"/><use transform="matrix(0.055555555555555546,0,0,0.055555555555555546,23.27777777777777,0)" xlink:href="#av"/><use transform="matrix(0.055555555555555546,0,0,0.055555555555555546,34.38888888888888,0)" xlink:href="#at"/><use transform="matrix(0.055555555555555546,0,0,0.055555555555555546,44.38888888888888,0)" xlink:href="#al"/><use transform="matrix(0.055555555555555546,0,0,0.055555555555555546,54.38888888888888,0)" xlink:href="#ay"/><use transform="matrix(0.055555555555555546,0,0,0.055555555555555546,60.999999999999986,0)" xlink:href="#az"/><use transform="matrix(0.055555555555555546,0,0,0.055555555555555546,65.38888888888887,0)" xlink:href="#aj"/><use transform="matrix(0.055555555555555546,0,0,0.055555555555555546,76.49999999999999,0)" xlink:href="#aq"/><use transform="matrix(0.055555555555555546,0,0,0.055555555555555546,82.05555555555554,0)" xlink:href="#at"/><use transform="matrix(0.055555555555555546,0,0,0.055555555555555546,92.05555555555554,0)" xlink:href="#aA"/></g><path d="M233-177c-1 41-23 64-60 70L243 0h-38l-65-103H63V0H30v-248c88 3 205-21 203 71zM63-129c60-2 137 13 137-47 0-61-80-42-137-45v92" id="aL"/><path d="M108 0H70L1-190h34L89-25l56-165h34" id="aM"/><g id="r"><use transform="matrix(0.055555555555555546,0,0,0.055555555555555546,0,0)" xlink:href="#aB"/><use transform="matrix(0.055555555555555546,0,0,0.055555555555555546,6.666666666666665,0)" xlink:href="#aL"/><use transform="matrix(0.055555555555555546,0,0,0.055555555555555546,21.05555555555555,0)" xlink:href="#ak"/><use transform="matrix(0.055555555555555546,0,0,0.055555555555555546,32.16666666666666,0)" xlink:href="#aw"/><use transform="matrix(0.055555555555555546,0,0,0.055555555555555546,36.55555555555554,0)" xlink:href="#ak"/><use transform="matrix(0.055555555555555546,0,0,0.055555555555555546,47.66666666666665,0)" xlink:href="#aM"/><use transform="matrix(0.055555555555555546,0,0,0.055555555555555546,57.66666666666666,0)" xlink:href="#as"/><use transform="matrix(0.055555555555555546,0,0,0.055555555555555546,68.77777777777776,0)" xlink:href="#av"/><use transform="matrix(0.055555555555555546,0,0,0.055555555555555546,79.88888888888887,0)" xlink:href="#aq"/></g><path d="M33 0v-38h34V0H33" id="aN"/><g id="s"><use transform="matrix(0.055555555555555546,0,0,0.055555555555555546,0,0)" xlink:href="#al"/><use transform="matrix(0.055555555555555546,0,0,0.055555555555555546,9.999999999999998,0)" xlink:href="#ao"/><use transform="matrix(0.055555555555555546,0,0,0.055555555555555546,21.111111111111107,0)" xlink:href="#av"/><use transform="matrix(0.055555555555555546,0,0,0.055555555555555546,32.222222222222214,0)" xlink:href="#aq"/><use transform="matrix(0.055555555555555546,0,0,0.055555555555555546,37.77777777777777,0)" xlink:href="#ak"/><use transform="matrix(0.055555555555555546,0,0,0.055555555555555546,48.88888888888888,0)" xlink:href="#ap"/><use transform="matrix(0.055555555555555546,0,0,0.055555555555555546,58.88888888888888,0)" xlink:href="#aq"/><use transform="matrix(0.055555555555555546,0,0,0.055555555555555546,64.44444444444443,0)" xlink:href="#aG"/><use transform="matrix(0.055555555555555546,0,0,0.055555555555555546,71.1111111111111,0)" xlink:href="#aN"/></g><path d="M179-190L93 31C79 59 56 82 12 73V49c39 6 53-20 64-50L1-190h34L92-34l54-156h33" id="aO"/><g id="t"><use transform="matrix(0.055555555555555546,0,0,0.055555555555555546,0,0)" xlink:href="#aI"/><use transform="matrix(0.055555555555555546,0,0,0.055555555555555546,5.5555555555555545,0)" xlink:href="#au"/><use transform="matrix(0.055555555555555546,0,0,0.055555555555555546,16.666666666666664,0)" xlink:href="#ak"/><use transform="matrix(0.055555555555555546,0,0,0.055555555555555546,27.77777777777777,0)" xlink:href="#av"/><use transform="matrix(0.055555555555555546,0,0,0.055555555555555546,38.88888888888888,0)" xlink:href="#aq"/><use transform="matrix(0.055555555555555546,0,0,0.055555555555555546,44.444444444444436,0)" xlink:href="#az"/><use transform="matrix(0.055555555555555546,0,0,0.055555555555555546,48.83333333333332,0)" xlink:href="#aK"/><use transform="matrix(0.055555555555555546,0,0,0.055555555555555546,54.38888888888888,0)" xlink:href="#aO"/></g><g id="u"><use transform="matrix(0.055555555555555546,0,0,0.055555555555555546,0,0)" xlink:href="#aq"/><use transform="matrix(0.055555555555555546,0,0,0.055555555555555546,5.5555555555555545,0)" xlink:href="#am"/><use transform="matrix(0.055555555555555546,0,0,0.055555555555555546,16.666666666666664,0)" xlink:href="#ak"/><use transform="matrix(0.055555555555555546,0,0,0.055555555555555546,27.77777777777777,0)" xlink:href="#aJ"/><use transform="matrix(0.055555555555555546,0,0,0.055555555555555546,44.38888888888888,0)" xlink:href="#ak"/></g><g id="v"><use transform="matrix(0.055555555555555546,0,0,0.055555555555555546,0,0)" xlink:href="#as"/><use transform="matrix(0.055555555555555546,0,0,0.055555555555555546,11.111111111111109,0)" xlink:href="#av"/><use transform="matrix(0.055555555555555546,0,0,0.055555555555555546,22.222222222222218,0)" xlink:href="#au"/></g><g id="w"><use transform="matrix(0.055555555555555546,0,0,0.055555555555555546,0,0)" xlink:href="#al"/><use transform="matrix(0.055555555555555546,0,0,0.055555555555555546,9.999999999999998,0)" xlink:href="#ao"/><use transform="matrix(0.055555555555555546,0,0,0.055555555555555546,21.111111111111107,0)" xlink:href="#ax"/><use transform="matrix(0.055555555555555546,0,0,0.055555555555555546,32.222222222222214,0)" xlink:href="#ay"/><use transform="matrix(0.055555555555555546,0,0,0.055555555555555546,38.83333333333332,0)" xlink:href="#at"/><use transform="matrix(0.055555555555555546,0,0,0.055555555555555546,48.83333333333332,0)" xlink:href="#ak"/></g><g id="x"><use transform="matrix(0.055555555555555546,0,0,0.055555555555555546,0,0)" xlink:href="#aq"/><use transform="matrix(0.055555555555555546,0,0,0.055555555555555546,5.5555555555555545,0)" xlink:href="#ao"/><use transform="matrix(0.055555555555555546,0,0,0.055555555555555546,16.666666666666664,0)" xlink:href="#aj"/><use transform="matrix(0.055555555555555546,0,0,0.055555555555555546,27.77777777777777,0)" xlink:href="#az"/><use transform="matrix(0.055555555555555546,0,0,0.055555555555555546,32.16666666666666,0)" xlink:href="#al"/></g><g id="y"><use transform="matrix(0.055555555555555546,0,0,0.055555555555555546,0,0)" xlink:href="#aJ"/><use transform="matrix(0.055555555555555546,0,0,0.055555555555555546,16.611111111111107,0)" xlink:href="#ao"/><use transform="matrix(0.055555555555555546,0,0,0.055555555555555546,27.722222222222214,0)" xlink:href="#at"/><use transform="matrix(0.055555555555555546,0,0,0.055555555555555546,37.722222222222214,0)" xlink:href="#aq"/></g><path d="M143 0L79-87 56-68V0H24v-261h32v163l83-92h37l-77 82L181 0h-38" id="aP"/><g id="z"><use transform="matrix(0.055555555555555546,0,0,0.055555555555555546,0,0)" xlink:href="#aw"/><use transform="matrix(0.055555555555555546,0,0,0.055555555555555546,4.388888888888888,0)" xlink:href="#az"/><use transform="matrix(0.055555555555555546,0,0,0.055555555555555546,8.777777777777777,0)" xlink:href="#aP"/><use transform="matrix(0.055555555555555546,0,0,0.055555555555555546,18.777777777777775,0)" xlink:href="#ak"/><use transform="matrix(0.055555555555555546,0,0,0.055555555555555546,29.888888888888882,0)" xlink:href="#aw"/><use transform="matrix(0.055555555555555546,0,0,0.055555555555555546,34.27777777777777,0)" xlink:href="#aO"/></g><g id="A"><use transform="matrix(0.055555555555555546,0,0,0.055555555555555546,0,0)" xlink:href="#aD"/><use transform="matrix(0.055555555555555546,0,0,0.055555555555555546,14.388888888888886,0)" xlink:href="#as"/><use transform="matrix(0.055555555555555546,0,0,0.055555555555555546,25.499999999999993,0)" xlink:href="#at"/></g><g id="B"><use transform="matrix(0.055555555555555546,0,0,0.055555555555555546,0,0)" xlink:href="#al"/><use transform="matrix(0.055555555555555546,0,0,0.055555555555555546,9.999999999999998,0)" xlink:href="#ao"/><use transform="matrix(0.055555555555555546,0,0,0.055555555555555546,21.111111111111107,0)" xlink:href="#av"/><use transform="matrix(0.055555555555555546,0,0,0.055555555555555546,32.222222222222214,0)" xlink:href="#aK"/><use transform="matrix(0.055555555555555546,0,0,0.055555555555555546,37.77777777777777,0)" xlink:href="#ax"/><use transform="matrix(0.055555555555555546,0,0,0.055555555555555546,48.88888888888888,0)" xlink:href="#at"/><use transform="matrix(0.055555555555555546,0,0,0.055555555555555546,58.88888888888888,0)" xlink:href="#ak"/><use transform="matrix(0.055555555555555546,0,0,0.055555555555555546,69.99999999999999,0)" xlink:href="#au"/><use transform="matrix(0.055555555555555546,0,0,0.055555555555555546,81.1111111111111,0)" xlink:href="#aN"/></g><path d="M232-93c-1 65-40 97-104 97C67 4 28-28 28-90v-158h33c8 89-33 224 67 224 102 0 64-133 71-224h33v155" id="aQ"/><g id="C"><use transform="matrix(0.055555555555555546,0,0,0.055555555555555546,0,0)" xlink:href="#aQ"/><use transform="matrix(0.055555555555555546,0,0,0.055555555555555546,14.388888888888886,0)" xlink:href="#at"/><use transform="matrix(0.055555555555555546,0,0,0.055555555555555546,24.388888888888886,0)" xlink:href="#ak"/></g><g id="D"><use transform="matrix(0.055555555555555546,0,0,0.055555555555555546,0,0)" xlink:href="#aq"/><use transform="matrix(0.055555555555555546,0,0,0.055555555555555546,5.5555555555555545,0)" xlink:href="#ao"/></g><g id="E"><use transform="matrix(0.055555555555555546,0,0,0.055555555555555546,0,0)" xlink:href="#aj"/><use transform="matrix(0.055555555555555546,0,0,0.055555555555555546,11.111111111111109,0)" xlink:href="#ay"/><use transform="matrix(0.055555555555555546,0,0,0.055555555555555546,17.722222222222218,0)" xlink:href="#ao"/><use transform="matrix(0.055555555555555546,0,0,0.055555555555555546,28.83333333333333,0)" xlink:href="#aM"/><use transform="matrix(0.055555555555555546,0,0,0.055555555555555546,38.83333333333333,0)" xlink:href="#az"/><use transform="matrix(0.055555555555555546,0,0,0.055555555555555546,43.222222222222214,0)" xlink:href="#au"/><use transform="matrix(0.055555555555555546,0,0,0.055555555555555546,54.33333333333332,0)" xlink:href="#ak"/></g><g id="F"><use transform="matrix(0.055555555555555546,0,0,0.055555555555555546,0,0)" xlink:href="#aJ"/><use transform="matrix(0.055555555555555546,0,0,0.055555555555555546,16.611111111111107,0)" xlink:href="#ak"/></g><use transform="matrix(0.055555555555555546,0,0,0.055555555555555546,0,0)" xlink:href="#as" id="G"/><g id="H"><use transform="matrix(0.055555555555555546,0,0,0.055555555555555546,0,0)" xlink:href="#al"/><use transform="matrix(0.055555555555555546,0,0,0.055555555555555546,9.999999999999998,0)" xlink:href="#ao"/><use transform="matrix(0.055555555555555546,0,0,0.055555555555555546,21.111111111111107,0)" xlink:href="#av"/><use transform="matrix(0.055555555555555546,0,0,0.055555555555555546,32.222222222222214,0)" xlink:href="#al"/><use transform="matrix(0.055555555555555546,0,0,0.055555555555555546,42.222222222222214,0)" xlink:href="#az"/><use transform="matrix(0.055555555555555546,0,0,0.055555555555555546,46.6111111111111,0)" xlink:href="#at"/><use transform="matrix(0.055555555555555546,0,0,0.055555555555555546,56.6111111111111,0)" xlink:href="#ak"/></g><g id="I"><use transform="matrix(0.055555555555555546,0,0,0.055555555555555546,0,0)" xlink:href="#az"/><use transform="matrix(0.055555555555555546,0,0,0.055555555555555546,4.388888888888888,0)" xlink:href="#av"/><use transform="matrix(0.055555555555555546,0,0,0.055555555555555546,15.499999999999996,0)" xlink:href="#aK"/><use transform="matrix(0.055555555555555546,0,0,0.055555555555555546,21.05555555555555,0)" xlink:href="#ao"/><use transform="matrix(0.055555555555555546,0,0,0.055555555555555546,32.16666666666666,0)" xlink:href="#ay"/><use transform="matrix(0.055555555555555546,0,0,0.055555555555555546,38.777777777777764,0)" xlink:href="#aJ"/><use transform="matrix(0.055555555555555546,0,0,0.055555555555555546,55.38888888888887,0)" xlink:href="#as"/><use transform="matrix(0.055555555555555546,0,0,0.055555555555555546,66.49999999999999,0)" xlink:href="#aq"/><use transform="matrix(0.055555555555555546,0,0,0.055555555555555546,72.05555555555554,0)" xlink:href="#az"/><use transform="matrix(0.055555555555555546,0,0,0.055555555555555546,76.44444444444443,0)" xlink:href="#aM"/><use transform="matrix(0.055555555555555546,0,0,0.055555555555555546,86.44444444444443,0)" xlink:href="#ak"/></g><g id="J"><use transform="matrix(0.055555555555555546,0,0,0.055555555555555546,0,0)" xlink:href="#at"/><use transform="matrix(0.055555555555555546,0,0,0.055555555555555546,9.999999999999998,0)" xlink:href="#ax"/><use transform="matrix(0.055555555555555546,0,0,0.055555555555555546,21.111111111111107,0)" xlink:href="#aJ"/><use transform="matrix(0.055555555555555546,0,0,0.055555555555555546,37.722222222222214,0)" xlink:href="#aJ"/><use transform="matrix(0.055555555555555546,0,0,0.055555555555555546,54.33333333333332,0)" xlink:href="#as"/><use transform="matrix(0.055555555555555546,0,0,0.055555555555555546,65.44444444444443,0)" xlink:href="#ay"/><use transform="matrix(0.055555555555555546,0,0,0.055555555555555546,72.05555555555554,0)" xlink:href="#aO"/><use transform="matrix(0.055555555555555546,0,0,0.055555555555555546,80.55555555555554,0)" xlink:href="#aN"/></g><path d="M30 0v-248h33v221h125V0H30" id="aR"/><g id="K"><use transform="matrix(0.055555555555555546,0,0,0.055555555555555546,0,0)" xlink:href="#aR"/><use transform="matrix(0.055555555555555546,0,0,0.055555555555555546,11.111111111111109,0)" xlink:href="#az"/><use transform="matrix(0.055555555555555546,0,0,0.055555555555555546,15.499999999999996,0)" xlink:href="#aJ"/><use transform="matrix(0.055555555555555546,0,0,0.055555555555555546,32.1111111111111,0)" xlink:href="#az"/><use transform="matrix(0.055555555555555546,0,0,0.055555555555555546,36.499999999999986,0)" xlink:href="#aq"/></g><g id="L"><use transform="matrix(0.055555555555555546,0,0,0.055555555555555546,0,0)" xlink:href="#ay"/><use transform="matrix(0.055555555555555546,0,0,0.055555555555555546,6.61111111111111,0)" xlink:href="#ak"/><use transform="matrix(0.055555555555555546,0,0,0.055555555555555546,17.722222222222218,0)" xlink:href="#at"/><use transform="matrix(0.055555555555555546,0,0,0.055555555555555546,27.722222222222214,0)" xlink:href="#aj"/><use transform="matrix(0.055555555555555546,0,0,0.055555555555555546,38.83333333333332,0)" xlink:href="#ao"/><use transform="matrix(0.055555555555555546,0,0,0.055555555555555546,49.94444444444443,0)" xlink:href="#av"/><use transform="matrix(0.055555555555555546,0,0,0.055555555555555546,61.05555555555553,0)" xlink:href="#at"/><use transform="matrix(0.055555555555555546,0,0,0.055555555555555546,71.05555555555553,0)" xlink:href="#ak"/></g><path d="M24-231v-30h32v30H24zM-9 49c24 4 33-6 33-30v-209h32V24c2 40-23 58-65 49V49" id="aS"/><g id="M"><use transform="matrix(0.055555555555555546,0,0,0.055555555555555546,0,0)" xlink:href="#aS"/><use transform="matrix(0.055555555555555546,0,0,0.055555555555555546,4.388888888888888,0)" xlink:href="#ax"/><use transform="matrix(0.055555555555555546,0,0,0.055555555555555546,15.499999999999996,0)" xlink:href="#at"/><use transform="matrix(0.055555555555555546,0,0,0.055555555555555546,25.499999999999993,0)" xlink:href="#aq"/></g><g id="N"><use transform="matrix(0.055555555555555546,0,0,0.055555555555555546,0,0)" xlink:href="#at"/><use transform="matrix(0.055555555555555546,0,0,0.055555555555555546,9.999999999999998,0)" xlink:href="#ax"/><use transform="matrix(0.055555555555555546,0,0,0.055555555555555546,21.111111111111107,0)" xlink:href="#aJ"/><use transform="matrix(0.055555555555555546,0,0,0.055555555555555546,37.722222222222214,0)" xlink:href="#aJ"/><use transform="matrix(0.055555555555555546,0,0,0.055555555555555546,54.33333333333332,0)" xlink:href="#as"/><use transform="matrix(0.055555555555555546,0,0,0.055555555555555546,65.44444444444443,0)" xlink:href="#ay"/><use transform="matrix(0.055555555555555546,0,0,0.055555555555555546,72.05555555555554,0)" xlink:href="#aO"/></g><path d="M87 75C49 33 22-17 22-94c0-76 28-126 65-167h31c-38 41-64 92-64 168S80 34 118 75H87" id="aT"/><path d="M54-142c48-35 137-8 131 61C196 18 31 33 14-55l32-4c7 23 22 37 52 37 35-1 51-22 54-58 4-55-73-65-99-34H22l8-134h141v27H59" id="aU"/><g id="O"><use transform="matrix(0.055555555555555546,0,0,0.055555555555555546,0,0)" xlink:href="#aT"/><use transform="matrix(0.055555555555555546,0,0,0.055555555555555546,6.61111111111111,0)" xlink:href="#aU"/></g><g id="P"><use transform="matrix(0.055555555555555546,0,0,0.055555555555555546,0,0)" xlink:href="#at"/><use transform="matrix(0.055555555555555546,0,0,0.055555555555555546,9.999999999999998,0)" xlink:href="#ak"/><use transform="matrix(0.055555555555555546,0,0,0.055555555555555546,21.111111111111107,0)" xlink:href="#av"/><use transform="matrix(0.055555555555555546,0,0,0.055555555555555546,32.222222222222214,0)" xlink:href="#aq"/><use transform="matrix(0.055555555555555546,0,0,0.055555555555555546,37.77777777777777,0)" xlink:href="#ak"/><use transform="matrix(0.055555555555555546,0,0,0.055555555555555546,48.88888888888888,0)" xlink:href="#av"/><use transform="matrix(0.055555555555555546,0,0,0.055555555555555546,59.999999999999986,0)" xlink:href="#al"/><use transform="matrix(0.055555555555555546,0,0,0.055555555555555546,69.99999999999999,0)" xlink:href="#ak"/><use transform="matrix(0.055555555555555546,0,0,0.055555555555555546,81.1111111111111,0)" xlink:href="#at"/></g><path d="M33-261c38 41 65 92 65 168S71 34 33 75H2C39 34 66-17 66-93S39-220 2-261h31" id="aV"/><g id="Q"><use transform="matrix(0.055555555555555546,0,0,0.055555555555555546,0,0)" xlink:href="#aJ"/><use transform="matrix(0.055555555555555546,0,0,0.055555555555555546,16.611111111111107,0)" xlink:href="#as"/><use transform="matrix(0.055555555555555546,0,0,0.055555555555555546,27.722222222222214,0)" xlink:href="#ap"/><use transform="matrix(0.055555555555555546,0,0,0.055555555555555546,37.722222222222214,0)" xlink:href="#aV"/><use transform="matrix(0.055555555555555546,0,0,0.055555555555555546,44.33333333333332,0)" xlink:href="#aN"/></g><path d="M240 0l2-218c-23 76-54 145-80 218h-23L58-218 59 0H30v-248h44l77 211c21-75 51-140 76-211h43V0h-30" id="aW"/><g id="R"><use transform="matrix(0.055555555555555546,0,0,0.055555555555555546,0,0)" xlink:href="#aW"/><use transform="matrix(0.055555555555555546,0,0,0.055555555555555546,16.611111111111107,0)" xlink:href="#as"/><use transform="matrix(0.055555555555555546,0,0,0.055555555555555546,27.722222222222214,0)" xlink:href="#aP"/><use transform="matrix(0.055555555555555546,0,0,0.055555555555555546,37.722222222222214,0)" xlink:href="#ak"/></g><g id="S"><use transform="matrix(0.055555555555555546,0,0,0.055555555555555546,0,0)" xlink:href="#az"/><use transform="matrix(0.055555555555555546,0,0,0.055555555555555546,4.388888888888888,0)" xlink:href="#aq"/></g><g id="T"><use transform="matrix(0.055555555555555546,0,0,0.055555555555555546,0,0)" xlink:href="#az"/><use transform="matrix(0.055555555555555546,0,0,0.055555555555555546,4.388888888888888,0)" xlink:href="#av"/><use transform="matrix(0.055555555555555546,0,0,0.055555555555555546,15.499999999999996,0)" xlink:href="#aq"/><use transform="matrix(0.055555555555555546,0,0,0.055555555555555546,21.05555555555555,0)" xlink:href="#ao"/></g><g id="U"><use transform="matrix(0.055555555555555546,0,0,0.055555555555555546,0,0)" xlink:href="#al"/><use transform="matrix(0.055555555555555546,0,0,0.055555555555555546,9.999999999999998,0)" xlink:href="#ao"/><use transform="matrix(0.055555555555555546,0,0,0.055555555555555546,21.111111111111107,0)" xlink:href="#av"/><use transform="matrix(0.055555555555555546,0,0,0.055555555555555546,32.222222222222214,0)" xlink:href="#al"/><use transform="matrix(0.055555555555555546,0,0,0.055555555555555546,42.222222222222214,0)" xlink:href="#ak"/><use transform="matrix(0.055555555555555546,0,0,0.055555555555555546,53.33333333333332,0)" xlink:href="#aj"/><use transform="matrix(0.055555555555555546,0,0,0.055555555555555546,64.44444444444443,0)" xlink:href="#aq"/></g><g id="V"><use transform="matrix(0.055555555555555546,0,0,0.055555555555555546,0,0)" xlink:href="#aq"/><use transform="matrix(0.055555555555555546,0,0,0.055555555555555546,5.5555555555555545,0)" xlink:href="#am"/><use transform="matrix(0.055555555555555546,0,0,0.055555555555555546,16.666666666666664,0)" xlink:href="#ak"/><use transform="matrix(0.055555555555555546,0,0,0.055555555555555546,27.77777777777777,0)" xlink:href="#av"/></g><g id="W"><use transform="matrix(0.055555555555555546,0,0,0.055555555555555546,0,0)" xlink:href="#aD"/><use transform="matrix(0.055555555555555546,0,0,0.055555555555555546,14.388888888888886,0)" xlink:href="#az"/><use transform="matrix(0.055555555555555546,0,0,0.055555555555555546,18.777777777777775,0)" xlink:href="#aq"/><use transform="matrix(0.055555555555555546,0,0,0.055555555555555546,24.33333333333333,0)" xlink:href="#am"/></g><g id="X"><use transform="matrix(0.055555555555555546,0,0,0.055555555555555546,0,0)" xlink:href="#ak"/><use transform="matrix(0.055555555555555546,0,0,0.055555555555555546,11.111111111111109,0)" xlink:href="#ap"/><use transform="matrix(0.055555555555555546,0,0,0.055555555555555546,21.111111111111107,0)" xlink:href="#aj"/><use transform="matrix(0.055555555555555546,0,0,0.055555555555555546,32.222222222222214,0)" xlink:href="#aw"/><use transform="matrix(0.055555555555555546,0,0,0.055555555555555546,36.6111111111111,0)" xlink:href="#as"/><use transform="matrix(0.055555555555555546,0,0,0.055555555555555546,47.72222222222221,0)" xlink:href="#av"/><use transform="matrix(0.055555555555555546,0,0,0.055555555555555546,58.83333333333331,0)" xlink:href="#as"/><use transform="matrix(0.055555555555555546,0,0,0.055555555555555546,69.94444444444443,0)" xlink:href="#aq"/><use transform="matrix(0.055555555555555546,0,0,0.055555555555555546,75.49999999999999,0)" xlink:href="#az"/><use transform="matrix(0.055555555555555546,0,0,0.055555555555555546,79.88888888888887,0)" xlink:href="#ao"/><use transform="matrix(0.055555555555555546,0,0,0.055555555555555546,90.99999999999999,0)" xlink:href="#av"/><use transform="matrix(0.055555555555555546,0,0,0.055555555555555546,102.1111111111111,0)" xlink:href="#aN"/></g><path d="M9 0v-24l116-142H16v-24h144v24L44-24h123V0H9" id="aX"/><g id="Y"><use transform="matrix(0.055555555555555546,0,0,0.055555555555555546,0,0)" xlink:href="#ao"/><use transform="matrix(0.055555555555555546,0,0,0.055555555555555546,11.111111111111109,0)" xlink:href="#ay"/><use transform="matrix(0.055555555555555546,0,0,0.055555555555555546,17.722222222222218,0)" xlink:href="#aE"/><use transform="matrix(0.055555555555555546,0,0,0.055555555555555546,28.83333333333333,0)" xlink:href="#as"/><use transform="matrix(0.055555555555555546,0,0,0.055555555555555546,39.944444444444436,0)" xlink:href="#av"/><use transform="matrix(0.055555555555555546,0,0,0.055555555555555546,51.05555555555554,0)" xlink:href="#az"/><use transform="matrix(0.055555555555555546,0,0,0.055555555555555546,55.44444444444443,0)" xlink:href="#aX"/><use transform="matrix(0.055555555555555546,0,0,0.055555555555555546,65.44444444444443,0)" xlink:href="#ak"/><use transform="matrix(0.055555555555555546,0,0,0.055555555555555546,76.55555555555554,0)" xlink:href="#au"/><use transform="matrix(0.055555555555555546,0,0,0.055555555555555546,87.66666666666666,0)" xlink:href="#aN"/></g><g id="Z"><use transform="matrix(0.056172839506172835,0,0,0.056172839506172835,0,0)" xlink:href="#aL"/><use transform="matrix(0.056172839506172835,0,0,0.056172839506172835,14.548765432098763,0)" xlink:href="#ak"/><use transform="matrix(0.056172839506172835,0,0,0.056172839506172835,25.78333333333333,0)" xlink:href="#at"/><use transform="matrix(0.056172839506172835,0,0,0.056172839506172835,35.894444444444446,0)" xlink:href="#aj"/><use transform="matrix(0.056172839506172835,0,0,0.056172839506172835,47.129012345679016,0)" xlink:href="#ao"/><use transform="matrix(0.056172839506172835,0,0,0.056172839506172835,58.363580246913585,0)" xlink:href="#av"/><use transform="matrix(0.056172839506172835,0,0,0.056172839506172835,69.59814814814816,0)" xlink:href="#at"/><use transform="matrix(0.056172839506172835,0,0,0.056172839506172835,79.70925925925927,0)" xlink:href="#ak"/></g><g id="aa"><use transform="matrix(0.055555555555555546,0,0,0.055555555555555546,0,0)" xlink:href="#aC"/><use transform="matrix(0.055555555555555546,0,0,0.055555555555555546,13.33333333333333,0)" xlink:href="#av"/><use transform="matrix(0.055555555555555546,0,0,0.055555555555555546,24.44444444444444,0)" xlink:href="#ao"/><use transform="matrix(0.055555555555555546,0,0,0.055555555555555546,35.55555555555555,0)" xlink:href="#aD"/><use transform="matrix(0.055555555555555546,0,0,0.055555555555555546,49.944444444444436,0)" xlink:href="#aw"/><use transform="matrix(0.055555555555555546,0,0,0.055555555555555546,54.33333333333332,0)" xlink:href="#ak"/><use transform="matrix(0.055555555555555546,0,0,0.055555555555555546,65.44444444444443,0)" xlink:href="#au"/><use transform="matrix(0.055555555555555546,0,0,0.055555555555555546,76.55555555555554,0)" xlink:href="#aE"/><use transform="matrix(0.055555555555555546,0,0,0.055555555555555546,87.66666666666666,0)" xlink:href="#ak"/></g><g id="ab"><use transform="matrix(0.055555555555555546,0,0,0.055555555555555546,0,0)" xlink:href="#aF"/><use transform="matrix(0.055555555555555546,0,0,0.055555555555555546,11.111111111111109,0)" xlink:href="#as"/><use transform="matrix(0.055555555555555546,0,0,0.055555555555555546,22.222222222222218,0)" xlink:href="#at"/><use transform="matrix(0.055555555555555546,0,0,0.055555555555555546,32.222222222222214,0)" xlink:href="#ak"/><use transform="matrix(0.055555555555555546,0,0,0.055555555555555546,43.33333333333332,0)" xlink:href="#aA"/></g><g id="ac"><use transform="matrix(0.055555555555555546,0,0,0.055555555555555546,0,0)" xlink:href="#an"/><use transform="matrix(0.055555555555555546,0,0,0.055555555555555546,11.444444444444443,0)" xlink:href="#ay"/><use transform="matrix(0.055555555555555546,0,0,0.055555555555555546,18.055555555555554,0)" xlink:href="#as"/><use transform="matrix(0.055555555555555546,0,0,0.055555555555555546,29.16666666666666,0)" xlink:href="#av"/><use transform="matrix(0.055555555555555546,0,0,0.055555555555555546,40.27777777777777,0)" xlink:href="#at"/><use transform="matrix(0.055555555555555546,0,0,0.055555555555555546,50.27777777777777,0)" xlink:href="#al"/><use transform="matrix(0.055555555555555546,0,0,0.055555555555555546,60.277777777777764,0)" xlink:href="#ay"/><use transform="matrix(0.055555555555555546,0,0,0.055555555555555546,66.88888888888889,0)" xlink:href="#az"/><use transform="matrix(0.055555555555555546,0,0,0.055555555555555546,71.27777777777777,0)" xlink:href="#aj"/><use transform="matrix(0.055555555555555546,0,0,0.055555555555555546,82.38888888888889,0)" xlink:href="#aq"/></g><g id="ad"><use transform="matrix(0.055555555555555546,0,0,0.055555555555555546,0,0)" xlink:href="#ao"/><use transform="matrix(0.055555555555555546,0,0,0.055555555555555546,11.111111111111109,0)" xlink:href="#aK"/></g><g id="ae"><use transform="matrix(0.055555555555555546,0,0,0.055555555555555546,0,0)" xlink:href="#at"/><use transform="matrix(0.055555555555555546,0,0,0.055555555555555546,9.999999999999998,0)" xlink:href="#ak"/><use transform="matrix(0.055555555555555546,0,0,0.055555555555555546,21.111111111111107,0)" xlink:href="#at"/><use transform="matrix(0.055555555555555546,0,0,0.055555555555555546,31.111111111111107,0)" xlink:href="#at"/><use transform="matrix(0.055555555555555546,0,0,0.055555555555555546,41.11111111111111,0)" xlink:href="#az"/><use transform="matrix(0.055555555555555546,0,0,0.055555555555555546,45.49999999999999,0)" xlink:href="#ao"/><use transform="matrix(0.055555555555555546,0,0,0.055555555555555546,56.6111111111111,0)" xlink:href="#av"/></g><g id="af"><use transform="matrix(0.055555555555555546,0,0,0.055555555555555546,0,0)" xlink:href="#aL"/><use transform="matrix(0.055555555555555546,0,0,0.055555555555555546,14.388888888888886,0)" xlink:href="#ak"/><use transform="matrix(0.055555555555555546,0,0,0.055555555555555546,25.499999999999993,0)" xlink:href="#aw"/><use transform="matrix(0.055555555555555546,0,0,0.055555555555555546,29.888888888888882,0)" xlink:href="#ak"/><use transform="matrix(0.055555555555555546,0,0,0.055555555555555546,40.99999999999999,0)" xlink:href="#aM"/><use transform="matrix(0.055555555555555546,0,0,0.055555555555555546,50.99999999999999,0)" xlink:href="#as"/><use transform="matrix(0.055555555555555546,0,0,0.055555555555555546,62.1111111111111,0)" xlink:href="#av"/><use transform="matrix(0.055555555555555546,0,0,0.055555555555555546,73.22222222222221,0)" xlink:href="#aq"/></g><g id="ag"><use transform="matrix(0.055555555555555546,0,0,0.055555555555555546,0,0)" xlink:href="#al"/><use transform="matrix(0.055555555555555546,0,0,0.055555555555555546,9.999999999999998,0)" xlink:href="#ao"/><use transform="matrix(0.055555555555555546,0,0,0.055555555555555546,21.111111111111107,0)" xlink:href="#av"/><use transform="matrix(0.055555555555555546,0,0,0.055555555555555546,32.222222222222214,0)" xlink:href="#aq"/><use transform="matrix(0.055555555555555546,0,0,0.055555555555555546,37.77777777777777,0)" xlink:href="#ak"/><use transform="matrix(0.055555555555555546,0,0,0.055555555555555546,48.88888888888888,0)" xlink:href="#ap"/><use transform="matrix(0.055555555555555546,0,0,0.055555555555555546,58.88888888888888,0)" xlink:href="#aq"/><use transform="matrix(0.055555555555555546,0,0,0.055555555555555546,64.44444444444443,0)" xlink:href="#aA"/></g><path d="M212-179c-10-28-35-45-73-45-59 0-87 40-87 99 0 60 29 101 89 101 43 0 62-24 78-52l27 14C228-24 195 4 139 4 59 4 22-46 18-125c-6-104 99-153 187-111 19 9 31 26 39 46" id="aY"/><path d="M16-82v-28h88v28H16" id="aZ"/><g id="ah"><use transform="matrix(0.055555555555555546,0,0,0.055555555555555546,0,0)" xlink:href="#aY"/><use transform="matrix(0.055555555555555546,0,0,0.055555555555555546,14.388888888888886,0)" xlink:href="#ao"/><use transform="matrix(0.055555555555555546,0,0,0.055555555555555546,25.499999999999993,0)" xlink:href="#av"/><use transform="matrix(0.055555555555555546,0,0,0.055555555555555546,36.6111111111111,0)" xlink:href="#aK"/><use transform="matrix(0.055555555555555546,0,0,0.055555555555555546,42.16666666666666,0)" xlink:href="#ax"/><use transform="matrix(0.055555555555555546,0,0,0.055555555555555546,53.277777777777764,0)" xlink:href="#at"/><use transform="matrix(0.055555555555555546,0,0,0.055555555555555546,63.277777777777764,0)" xlink:href="#az"/><use transform="matrix(0.055555555555555546,0,0,0.055555555555555546,67.66666666666666,0)" xlink:href="#ao"/><use transform="matrix(0.055555555555555546,0,0,0.055555555555555546,78.77777777777777,0)" xlink:href="#av"/><use transform="matrix(0.055555555555555546,0,0,0.055555555555555546,89.88888888888889,0)" xlink:href="#aZ"/><use transform="matrix(0.055555555555555546,0,0,0.055555555555555546,96.5,0)" xlink:href="#az"/><use transform="matrix(0.055555555555555546,0,0,0.055555555555555546,100.88888888888889,0)" xlink:href="#at"/><use transform="matrix(0.055555555555555546,0,0,0.055555555555555546,110.88888888888889,0)" xlink:href="#ao"/><use transform="matrix(0.055555555555555546,0,0,0.055555555555555546,122,0)" xlink:href="#aw"/><use transform="matrix(0.055555555555555546,0,0,0.055555555555555546,126.38888888888889,0)" xlink:href="#as"/><use transform="matrix(0.055555555555555546,0,0,0.055555555555555546,137.5,0)" xlink:href="#aq"/><use transform="matrix(0.055555555555555546,0,0,0.055555555555555546,143.05555555555554,0)" xlink:href="#ak"/><use transform="matrix(0.055555555555555546,0,0,0.055555555555555546,154.16666666666666,0)" xlink:href="#au"/></g></defs></g></svg>