<?xml version="1.0" encoding="utf-8" standalone="no"?>
<!DOCTYPE svg PUBLIC "-//W3C//DTD SVG 1.1//EN"
  "http://www.w3.org/Graphics/SVG/1.1/DTD/svg11.dtd">
<svg xmlns:xlink="http://www.w3.org/1999/xlink" width="284.273437pt" height="196.865313pt" viewBox="0 0 284.273437 196.865313" xmlns="http://www.w3.org/2000/svg" version="1.1">
 <metadata>
  <rdf:RDF xmlns:dc="http://purl.org/dc/elements/1.1/" xmlns:cc="http://creativecommons.org/ns#" xmlns:rdf="http://www.w3.org/1999/02/22-rdf-syntax-ns#">
   <cc:Work>
    <dc:type rdf:resource="http://purl.org/dc/dcmitype/StillImage"/>
    <dc:date>2024-06-11T00:55:20.022209</dc:date>
    <dc:format>image/svg+xml</dc:format>
    <dc:creator>
     <cc:Agent>
      <dc:title>Matplotlib v3.9.0, https://matplotlib.org/</dc:title>
     </cc:Agent>
    </dc:creator>
   </cc:Work>
  </rdf:RDF>
 </metadata>
 <defs>
  <style type="text/css">*{stroke-linejoin: round; stroke-linecap: butt}</style>
 </defs>
 <g id="figure_1">
  <g id="patch_1">
   <path d="M 0 196.865313 
L 284.273437 196.865313 
L 284.273437 0 
L 0 0 
z
" style="fill: #ffffff"/>
  </g>
  <g id="axes_1">
   <g id="patch_2">
    <path d="M 41.3625 173.52 
L 264.5625 173.52 
L 264.5625 7.2 
L 41.3625 7.2 
z
" style="fill: #ffffff"/>
   </g>
   <g id="matplotlib.axis_1">
    <g id="xtick_1">
     <g id="line2d_1">
      <path d="M 41.3625 173.52 
L 41.3625 7.2 
" clip-path="url(#p730f105be1)" style="fill: none; stroke: #cccccc; stroke-width: 0.8; stroke-linecap: round"/>
     </g>
     <g id="text_1">
      <!-- 0.000 -->
      <g style="fill: #262626" transform="translate(28.851563 187.677813) scale(0.1 -0.1)">
       <defs>
        <path id="ArialMT-30" d="M 266 2259 
Q 266 3072 433 3567 
Q 600 4063 929 4331 
Q 1259 4600 1759 4600 
Q 2128 4600 2406 4451 
Q 2684 4303 2865 4023 
Q 3047 3744 3150 3342 
Q 3253 2941 3253 2259 
Q 3253 1453 3087 958 
Q 2922 463 2592 192 
Q 2263 -78 1759 -78 
Q 1097 -78 719 397 
Q 266 969 266 2259 
z
M 844 2259 
Q 844 1131 1108 757 
Q 1372 384 1759 384 
Q 2147 384 2411 759 
Q 2675 1134 2675 2259 
Q 2675 3391 2411 3762 
Q 2147 4134 1753 4134 
Q 1366 4134 1134 3806 
Q 844 3388 844 2259 
z
" transform="scale(0.015625)"/>
        <path id="ArialMT-2e" d="M 581 0 
L 581 641 
L 1222 641 
L 1222 0 
L 581 0 
z
" transform="scale(0.015625)"/>
       </defs>
       <use xlink:href="#ArialMT-30"/>
       <use xlink:href="#ArialMT-2e" x="55.615234"/>
       <use xlink:href="#ArialMT-30" x="83.398438"/>
       <use xlink:href="#ArialMT-30" x="139.013672"/>
       <use xlink:href="#ArialMT-30" x="194.628906"/>
      </g>
     </g>
    </g>
    <g id="xtick_2">
     <g id="line2d_2">
      <path d="M 78.5625 173.52 
L 78.5625 7.2 
" clip-path="url(#p730f105be1)" style="fill: none; stroke: #cccccc; stroke-width: 0.8; stroke-linecap: round"/>
     </g>
     <g id="text_2">
      <!-- 0.001 -->
      <g style="fill: #262626" transform="translate(66.051563 187.677813) scale(0.1 -0.1)">
       <defs>
        <path id="ArialMT-31" d="M 2384 0 
L 1822 0 
L 1822 3584 
Q 1619 3391 1289 3197 
Q 959 3003 697 2906 
L 697 3450 
Q 1169 3672 1522 3987 
Q 1875 4303 2022 4600 
L 2384 4600 
L 2384 0 
z
" transform="scale(0.015625)"/>
       </defs>
       <use xlink:href="#ArialMT-30"/>
       <use xlink:href="#ArialMT-2e" x="55.615234"/>
       <use xlink:href="#ArialMT-30" x="83.398438"/>
       <use xlink:href="#ArialMT-30" x="139.013672"/>
       <use xlink:href="#ArialMT-31" x="194.628906"/>
      </g>
     </g>
    </g>
    <g id="xtick_3">
     <g id="line2d_3">
      <path d="M 115.7625 173.52 
L 115.7625 7.2 
" clip-path="url(#p730f105be1)" style="fill: none; stroke: #cccccc; stroke-width: 0.8; stroke-linecap: round"/>
     </g>
     <g id="text_3">
      <!-- 0.002 -->
      <g style="fill: #262626" transform="translate(103.251562 187.677813) scale(0.1 -0.1)">
       <defs>
        <path id="ArialMT-32" d="M 3222 541 
L 3222 0 
L 194 0 
Q 188 203 259 391 
Q 375 700 629 1000 
Q 884 1300 1366 1694 
Q 2113 2306 2375 2664 
Q 2638 3022 2638 3341 
Q 2638 3675 2398 3904 
Q 2159 4134 1775 4134 
Q 1369 4134 1125 3890 
Q 881 3647 878 3216 
L 300 3275 
Q 359 3922 746 4261 
Q 1134 4600 1788 4600 
Q 2447 4600 2831 4234 
Q 3216 3869 3216 3328 
Q 3216 3053 3103 2787 
Q 2991 2522 2730 2228 
Q 2469 1934 1863 1422 
Q 1356 997 1212 845 
Q 1069 694 975 541 
L 3222 541 
z
" transform="scale(0.015625)"/>
       </defs>
       <use xlink:href="#ArialMT-30"/>
       <use xlink:href="#ArialMT-2e" x="55.615234"/>
       <use xlink:href="#ArialMT-30" x="83.398438"/>
       <use xlink:href="#ArialMT-30" x="139.013672"/>
       <use xlink:href="#ArialMT-32" x="194.628906"/>
      </g>
     </g>
    </g>
    <g id="xtick_4">
     <g id="line2d_4">
      <path d="M 152.9625 173.52 
L 152.9625 7.2 
" clip-path="url(#p730f105be1)" style="fill: none; stroke: #cccccc; stroke-width: 0.8; stroke-linecap: round"/>
     </g>
     <g id="text_4">
      <!-- 0.003 -->
      <g style="fill: #262626" transform="translate(140.451562 187.677813) scale(0.1 -0.1)">
       <defs>
        <path id="ArialMT-33" d="M 269 1209 
L 831 1284 
Q 928 806 1161 595 
Q 1394 384 1728 384 
Q 2125 384 2398 659 
Q 2672 934 2672 1341 
Q 2672 1728 2419 1979 
Q 2166 2231 1775 2231 
Q 1616 2231 1378 2169 
L 1441 2663 
Q 1497 2656 1531 2656 
Q 1891 2656 2178 2843 
Q 2466 3031 2466 3422 
Q 2466 3731 2256 3934 
Q 2047 4138 1716 4138 
Q 1388 4138 1169 3931 
Q 950 3725 888 3313 
L 325 3413 
Q 428 3978 793 4289 
Q 1159 4600 1703 4600 
Q 2078 4600 2393 4439 
Q 2709 4278 2876 4000 
Q 3044 3722 3044 3409 
Q 3044 3113 2884 2869 
Q 2725 2625 2413 2481 
Q 2819 2388 3044 2092 
Q 3269 1797 3269 1353 
Q 3269 753 2831 336 
Q 2394 -81 1725 -81 
Q 1122 -81 723 278 
Q 325 638 269 1209 
z
" transform="scale(0.015625)"/>
       </defs>
       <use xlink:href="#ArialMT-30"/>
       <use xlink:href="#ArialMT-2e" x="55.615234"/>
       <use xlink:href="#ArialMT-30" x="83.398438"/>
       <use xlink:href="#ArialMT-30" x="139.013672"/>
       <use xlink:href="#ArialMT-33" x="194.628906"/>
      </g>
     </g>
    </g>
    <g id="xtick_5">
     <g id="line2d_5">
      <path d="M 190.1625 173.52 
L 190.1625 7.2 
" clip-path="url(#p730f105be1)" style="fill: none; stroke: #cccccc; stroke-width: 0.8; stroke-linecap: round"/>
     </g>
     <g id="text_5">
      <!-- 0.004 -->
      <g style="fill: #262626" transform="translate(177.651562 187.677813) scale(0.1 -0.1)">
       <defs>
        <path id="ArialMT-34" d="M 2069 0 
L 2069 1097 
L 81 1097 
L 81 1613 
L 2172 4581 
L 2631 4581 
L 2631 1613 
L 3250 1613 
L 3250 1097 
L 2631 1097 
L 2631 0 
L 2069 0 
z
M 2069 1613 
L 2069 3678 
L 634 1613 
L 2069 1613 
z
" transform="scale(0.015625)"/>
       </defs>
       <use xlink:href="#ArialMT-30"/>
       <use xlink:href="#ArialMT-2e" x="55.615234"/>
       <use xlink:href="#ArialMT-30" x="83.398438"/>
       <use xlink:href="#ArialMT-30" x="139.013672"/>
       <use xlink:href="#ArialMT-34" x="194.628906"/>
      </g>
     </g>
    </g>
    <g id="xtick_6">
     <g id="line2d_6">
      <path d="M 227.3625 173.52 
L 227.3625 7.2 
" clip-path="url(#p730f105be1)" style="fill: none; stroke: #cccccc; stroke-width: 0.8; stroke-linecap: round"/>
     </g>
     <g id="text_6">
      <!-- 0.005 -->
      <g style="fill: #262626" transform="translate(214.851562 187.677813) scale(0.1 -0.1)">
       <defs>
        <path id="ArialMT-35" d="M 266 1200 
L 856 1250 
Q 922 819 1161 601 
Q 1400 384 1738 384 
Q 2144 384 2425 690 
Q 2706 997 2706 1503 
Q 2706 1984 2436 2262 
Q 2166 2541 1728 2541 
Q 1456 2541 1237 2417 
Q 1019 2294 894 2097 
L 366 2166 
L 809 4519 
L 3088 4519 
L 3088 3981 
L 1259 3981 
L 1013 2750 
Q 1425 3038 1878 3038 
Q 2478 3038 2890 2622 
Q 3303 2206 3303 1553 
Q 3303 931 2941 478 
Q 2500 -78 1738 -78 
Q 1113 -78 717 272 
Q 322 622 266 1200 
z
" transform="scale(0.015625)"/>
       </defs>
       <use xlink:href="#ArialMT-30"/>
       <use xlink:href="#ArialMT-2e" x="55.615234"/>
       <use xlink:href="#ArialMT-30" x="83.398438"/>
       <use xlink:href="#ArialMT-30" x="139.013672"/>
       <use xlink:href="#ArialMT-35" x="194.628906"/>
      </g>
     </g>
    </g>
    <g id="xtick_7">
     <g id="line2d_7">
      <path d="M 264.5625 173.52 
L 264.5625 7.2 
" clip-path="url(#p730f105be1)" style="fill: none; stroke: #cccccc; stroke-width: 0.8; stroke-linecap: round"/>
     </g>
     <g id="text_7">
      <!-- 0.006 -->
      <g style="fill: #262626" transform="translate(252.051562 187.677813) scale(0.1 -0.1)">
       <defs>
        <path id="ArialMT-36" d="M 3184 3459 
L 2625 3416 
Q 2550 3747 2413 3897 
Q 2184 4138 1850 4138 
Q 1581 4138 1378 3988 
Q 1113 3794 959 3422 
Q 806 3050 800 2363 
Q 1003 2672 1297 2822 
Q 1591 2972 1913 2972 
Q 2475 2972 2870 2558 
Q 3266 2144 3266 1488 
Q 3266 1056 3080 686 
Q 2894 316 2569 119 
Q 2244 -78 1831 -78 
Q 1128 -78 684 439 
Q 241 956 241 2144 
Q 241 3472 731 4075 
Q 1159 4600 1884 4600 
Q 2425 4600 2770 4297 
Q 3116 3994 3184 3459 
z
M 888 1484 
Q 888 1194 1011 928 
Q 1134 663 1356 523 
Q 1578 384 1822 384 
Q 2178 384 2434 671 
Q 2691 959 2691 1453 
Q 2691 1928 2437 2201 
Q 2184 2475 1800 2475 
Q 1419 2475 1153 2201 
Q 888 1928 888 1484 
z
" transform="scale(0.015625)"/>
       </defs>
       <use xlink:href="#ArialMT-30"/>
       <use xlink:href="#ArialMT-2e" x="55.615234"/>
       <use xlink:href="#ArialMT-30" x="83.398438"/>
       <use xlink:href="#ArialMT-30" x="139.013672"/>
       <use xlink:href="#ArialMT-36" x="194.628906"/>
      </g>
     </g>
    </g>
   </g>
   <g id="matplotlib.axis_2">
    <g id="ytick_1">
     <g id="line2d_8">
      <path d="M 41.3625 160.795384 
L 264.5625 160.795384 
" clip-path="url(#p730f105be1)" style="fill: none; stroke: #cccccc; stroke-width: 0.8; stroke-linecap: round"/>
     </g>
     <g id="text_8">
      <!-- 0.3 -->
      <g style="fill: #262626" transform="translate(20.4625 164.37429) scale(0.1 -0.1)">
       <use xlink:href="#ArialMT-30"/>
       <use xlink:href="#ArialMT-2e" x="55.615234"/>
       <use xlink:href="#ArialMT-33" x="83.398438"/>
      </g>
     </g>
    </g>
    <g id="ytick_2">
     <g id="line2d_9">
      <path d="M 41.3625 139.933186 
L 264.5625 139.933186 
" clip-path="url(#p730f105be1)" style="fill: none; stroke: #cccccc; stroke-width: 0.8; stroke-linecap: round"/>
     </g>
     <g id="text_9">
      <!-- 0.4 -->
      <g style="fill: #262626" transform="translate(20.4625 143.512092) scale(0.1 -0.1)">
       <use xlink:href="#ArialMT-30"/>
       <use xlink:href="#ArialMT-2e" x="55.615234"/>
       <use xlink:href="#ArialMT-34" x="83.398438"/>
      </g>
     </g>
    </g>
    <g id="ytick_3">
     <g id="line2d_10">
      <path d="M 41.3625 119.070988 
L 264.5625 119.070988 
" clip-path="url(#p730f105be1)" style="fill: none; stroke: #cccccc; stroke-width: 0.8; stroke-linecap: round"/>
     </g>
     <g id="text_10">
      <!-- 0.5 -->
      <g style="fill: #262626" transform="translate(20.4625 122.649895) scale(0.1 -0.1)">
       <use xlink:href="#ArialMT-30"/>
       <use xlink:href="#ArialMT-2e" x="55.615234"/>
       <use xlink:href="#ArialMT-35" x="83.398438"/>
      </g>
     </g>
    </g>
    <g id="ytick_4">
     <g id="line2d_11">
      <path d="M 41.3625 98.208791 
L 264.5625 98.208791 
" clip-path="url(#p730f105be1)" style="fill: none; stroke: #cccccc; stroke-width: 0.8; stroke-linecap: round"/>
     </g>
     <g id="text_11">
      <!-- 0.6 -->
      <g style="fill: #262626" transform="translate(20.4625 101.787697) scale(0.1 -0.1)">
       <use xlink:href="#ArialMT-30"/>
       <use xlink:href="#ArialMT-2e" x="55.615234"/>
       <use xlink:href="#ArialMT-36" x="83.398438"/>
      </g>
     </g>
    </g>
    <g id="ytick_5">
     <g id="line2d_12">
      <path d="M 41.3625 77.346593 
L 264.5625 77.346593 
" clip-path="url(#p730f105be1)" style="fill: none; stroke: #cccccc; stroke-width: 0.8; stroke-linecap: round"/>
     </g>
     <g id="text_12">
      <!-- 0.7 -->
      <g style="fill: #262626" transform="translate(20.4625 80.925499) scale(0.1 -0.1)">
       <defs>
        <path id="ArialMT-37" d="M 303 3981 
L 303 4522 
L 3269 4522 
L 3269 4084 
Q 2831 3619 2401 2847 
Q 1972 2075 1738 1259 
Q 1569 684 1522 0 
L 944 0 
Q 953 541 1156 1306 
Q 1359 2072 1739 2783 
Q 2119 3494 2547 3981 
L 303 3981 
z
" transform="scale(0.015625)"/>
       </defs>
       <use xlink:href="#ArialMT-30"/>
       <use xlink:href="#ArialMT-2e" x="55.615234"/>
       <use xlink:href="#ArialMT-37" x="83.398438"/>
      </g>
     </g>
    </g>
    <g id="ytick_6">
     <g id="line2d_13">
      <path d="M 41.3625 56.484395 
L 264.5625 56.484395 
" clip-path="url(#p730f105be1)" style="fill: none; stroke: #cccccc; stroke-width: 0.8; stroke-linecap: round"/>
     </g>
     <g id="text_13">
      <!-- 0.8 -->
      <g style="fill: #262626" transform="translate(20.4625 60.063302) scale(0.1 -0.1)">
       <defs>
        <path id="ArialMT-38" d="M 1131 2484 
Q 781 2613 612 2850 
Q 444 3088 444 3419 
Q 444 3919 803 4259 
Q 1163 4600 1759 4600 
Q 2359 4600 2725 4251 
Q 3091 3903 3091 3403 
Q 3091 3084 2923 2848 
Q 2756 2613 2416 2484 
Q 2838 2347 3058 2040 
Q 3278 1734 3278 1309 
Q 3278 722 2862 322 
Q 2447 -78 1769 -78 
Q 1091 -78 675 323 
Q 259 725 259 1325 
Q 259 1772 486 2073 
Q 713 2375 1131 2484 
z
M 1019 3438 
Q 1019 3113 1228 2906 
Q 1438 2700 1772 2700 
Q 2097 2700 2305 2904 
Q 2513 3109 2513 3406 
Q 2513 3716 2298 3927 
Q 2084 4138 1766 4138 
Q 1444 4138 1231 3931 
Q 1019 3725 1019 3438 
z
M 838 1322 
Q 838 1081 952 856 
Q 1066 631 1291 507 
Q 1516 384 1775 384 
Q 2178 384 2440 643 
Q 2703 903 2703 1303 
Q 2703 1709 2433 1975 
Q 2163 2241 1756 2241 
Q 1359 2241 1098 1978 
Q 838 1716 838 1322 
z
" transform="scale(0.015625)"/>
       </defs>
       <use xlink:href="#ArialMT-30"/>
       <use xlink:href="#ArialMT-2e" x="55.615234"/>
       <use xlink:href="#ArialMT-38" x="83.398438"/>
      </g>
     </g>
    </g>
    <g id="ytick_7">
     <g id="line2d_14">
      <path d="M 41.3625 35.622198 
L 264.5625 35.622198 
" clip-path="url(#p730f105be1)" style="fill: none; stroke: #cccccc; stroke-width: 0.8; stroke-linecap: round"/>
     </g>
     <g id="text_14">
      <!-- 0.9 -->
      <g style="fill: #262626" transform="translate(20.4625 39.201104) scale(0.1 -0.1)">
       <defs>
        <path id="ArialMT-39" d="M 350 1059 
L 891 1109 
Q 959 728 1153 556 
Q 1347 384 1650 384 
Q 1909 384 2104 503 
Q 2300 622 2425 820 
Q 2550 1019 2634 1356 
Q 2719 1694 2719 2044 
Q 2719 2081 2716 2156 
Q 2547 1888 2255 1720 
Q 1963 1553 1622 1553 
Q 1053 1553 659 1965 
Q 266 2378 266 3053 
Q 266 3750 677 4175 
Q 1088 4600 1706 4600 
Q 2153 4600 2523 4359 
Q 2894 4119 3086 3673 
Q 3278 3228 3278 2384 
Q 3278 1506 3087 986 
Q 2897 466 2520 194 
Q 2144 -78 1638 -78 
Q 1100 -78 759 220 
Q 419 519 350 1059 
z
M 2653 3081 
Q 2653 3566 2395 3850 
Q 2138 4134 1775 4134 
Q 1400 4134 1122 3828 
Q 844 3522 844 3034 
Q 844 2597 1108 2323 
Q 1372 2050 1759 2050 
Q 2150 2050 2401 2323 
Q 2653 2597 2653 3081 
z
" transform="scale(0.015625)"/>
       </defs>
       <use xlink:href="#ArialMT-30"/>
       <use xlink:href="#ArialMT-2e" x="55.615234"/>
       <use xlink:href="#ArialMT-39" x="83.398438"/>
      </g>
     </g>
    </g>
    <g id="ytick_8">
     <g id="line2d_15">
      <path d="M 41.3625 14.76 
L 264.5625 14.76 
" clip-path="url(#p730f105be1)" style="fill: none; stroke: #cccccc; stroke-width: 0.8; stroke-linecap: round"/>
     </g>
     <g id="text_15">
      <!-- 1.0 -->
      <g style="fill: #262626" transform="translate(20.4625 18.338906) scale(0.1 -0.1)">
       <use xlink:href="#ArialMT-31"/>
       <use xlink:href="#ArialMT-2e" x="55.615234"/>
       <use xlink:href="#ArialMT-30" x="83.398438"/>
      </g>
     </g>
    </g>
    <g id="text_16">
     <!-- Density -->
     <g style="fill: #262626" transform="translate(14.357813 107.031875) rotate(-90) scale(0.1 -0.1)">
      <defs>
       <path id="ArialMT-44" d="M 494 0 
L 494 4581 
L 2072 4581 
Q 2606 4581 2888 4516 
Q 3281 4425 3559 4188 
Q 3922 3881 4101 3404 
Q 4281 2928 4281 2316 
Q 4281 1794 4159 1391 
Q 4038 988 3847 723 
Q 3656 459 3429 307 
Q 3203 156 2883 78 
Q 2563 0 2147 0 
L 494 0 
z
M 1100 541 
L 2078 541 
Q 2531 541 2789 625 
Q 3047 709 3200 863 
Q 3416 1078 3536 1442 
Q 3656 1806 3656 2325 
Q 3656 3044 3420 3430 
Q 3184 3816 2847 3947 
Q 2603 4041 2063 4041 
L 1100 4041 
L 1100 541 
z
" transform="scale(0.015625)"/>
       <path id="ArialMT-65" d="M 2694 1069 
L 3275 997 
Q 3138 488 2766 206 
Q 2394 -75 1816 -75 
Q 1088 -75 661 373 
Q 234 822 234 1631 
Q 234 2469 665 2931 
Q 1097 3394 1784 3394 
Q 2450 3394 2872 2941 
Q 3294 2488 3294 1666 
Q 3294 1616 3291 1516 
L 816 1516 
Q 847 969 1125 678 
Q 1403 388 1819 388 
Q 2128 388 2347 550 
Q 2566 713 2694 1069 
z
M 847 1978 
L 2700 1978 
Q 2663 2397 2488 2606 
Q 2219 2931 1791 2931 
Q 1403 2931 1139 2672 
Q 875 2413 847 1978 
z
" transform="scale(0.015625)"/>
       <path id="ArialMT-6e" d="M 422 0 
L 422 3319 
L 928 3319 
L 928 2847 
Q 1294 3394 1984 3394 
Q 2284 3394 2536 3286 
Q 2788 3178 2913 3003 
Q 3038 2828 3088 2588 
Q 3119 2431 3119 2041 
L 3119 0 
L 2556 0 
L 2556 2019 
Q 2556 2363 2490 2533 
Q 2425 2703 2258 2804 
Q 2091 2906 1866 2906 
Q 1506 2906 1245 2678 
Q 984 2450 984 1813 
L 984 0 
L 422 0 
z
" transform="scale(0.015625)"/>
       <path id="ArialMT-73" d="M 197 991 
L 753 1078 
Q 800 744 1014 566 
Q 1228 388 1613 388 
Q 2000 388 2187 545 
Q 2375 703 2375 916 
Q 2375 1106 2209 1216 
Q 2094 1291 1634 1406 
Q 1016 1563 777 1677 
Q 538 1791 414 1992 
Q 291 2194 291 2438 
Q 291 2659 392 2848 
Q 494 3038 669 3163 
Q 800 3259 1026 3326 
Q 1253 3394 1513 3394 
Q 1903 3394 2198 3281 
Q 2494 3169 2634 2976 
Q 2775 2784 2828 2463 
L 2278 2388 
Q 2241 2644 2061 2787 
Q 1881 2931 1553 2931 
Q 1166 2931 1000 2803 
Q 834 2675 834 2503 
Q 834 2394 903 2306 
Q 972 2216 1119 2156 
Q 1203 2125 1616 2013 
Q 2213 1853 2448 1751 
Q 2684 1650 2818 1456 
Q 2953 1263 2953 975 
Q 2953 694 2789 445 
Q 2625 197 2315 61 
Q 2006 -75 1616 -75 
Q 969 -75 630 194 
Q 291 463 197 991 
z
" transform="scale(0.015625)"/>
       <path id="ArialMT-69" d="M 425 3934 
L 425 4581 
L 988 4581 
L 988 3934 
L 425 3934 
z
M 425 0 
L 425 3319 
L 988 3319 
L 988 0 
L 425 0 
z
" transform="scale(0.015625)"/>
       <path id="ArialMT-74" d="M 1650 503 
L 1731 6 
Q 1494 -44 1306 -44 
Q 1000 -44 831 53 
Q 663 150 594 308 
Q 525 466 525 972 
L 525 2881 
L 113 2881 
L 113 3319 
L 525 3319 
L 525 4141 
L 1084 4478 
L 1084 3319 
L 1650 3319 
L 1650 2881 
L 1084 2881 
L 1084 941 
Q 1084 700 1114 631 
Q 1144 563 1211 522 
Q 1278 481 1403 481 
Q 1497 481 1650 503 
z
" transform="scale(0.015625)"/>
       <path id="ArialMT-79" d="M 397 -1278 
L 334 -750 
Q 519 -800 656 -800 
Q 844 -800 956 -737 
Q 1069 -675 1141 -563 
Q 1194 -478 1313 -144 
Q 1328 -97 1363 -6 
L 103 3319 
L 709 3319 
L 1400 1397 
Q 1534 1031 1641 628 
Q 1738 1016 1872 1384 
L 2581 3319 
L 3144 3319 
L 1881 -56 
Q 1678 -603 1566 -809 
Q 1416 -1088 1222 -1217 
Q 1028 -1347 759 -1347 
Q 597 -1347 397 -1278 
z
" transform="scale(0.015625)"/>
      </defs>
      <use xlink:href="#ArialMT-44"/>
      <use xlink:href="#ArialMT-65" x="72.216797"/>
      <use xlink:href="#ArialMT-6e" x="127.832031"/>
      <use xlink:href="#ArialMT-73" x="183.447266"/>
      <use xlink:href="#ArialMT-69" x="233.447266"/>
      <use xlink:href="#ArialMT-74" x="255.664062"/>
      <use xlink:href="#ArialMT-79" x="283.447266"/>
     </g>
    </g>
   </g>
   <g id="line2d_16">
    <path d="M 41.3625 165.96 
L 42.636379 165.96 
L 42.636379 148.011176 
L 43.910258 148.011176 
L 43.910258 135.288087 
L 45.184136 135.288087 
L 45.184136 125.019974 
L 46.458015 125.019974 
L 46.458015 116.906332 
L 47.731894 116.906332 
L 47.731894 109.841911 
L 49.005773 109.841911 
L 49.005773 103.847085 
L 50.279652 103.847085 
L 50.279652 98.43799 
L 51.55353 98.43799 
L 51.55353 93.568785 
L 52.827409 93.568785 
L 52.827409 89.341338 
L 54.101288 89.341338 
L 54.101288 85.643595 
L 55.375167 85.643595 
L 55.375167 82.062998 
L 56.649046 82.062998 
L 56.649046 79.052852 
L 57.922924 79.052852 
L 57.922924 76.119105 
L 59.196803 76.119105 
L 59.196803 73.704876 
L 60.470682 73.704876 
L 60.470682 71.407794 
L 61.744561 71.407794 
L 61.744561 69.136177 
L 63.01844 69.136177 
L 63.01844 66.981707 
L 64.292318 66.981707 
L 64.292318 65.097183 
L 65.566197 65.097183 
L 65.566197 63.482603 
L 66.840076 63.482603 
L 66.840076 61.705038 
L 68.113955 61.705038 
L 68.113955 60.024246 
L 69.387834 60.024246 
L 69.387834 58.450413 
L 70.661713 58.450413 
L 70.661713 57.095593 
L 71.935591 57.095593 
L 71.935591 55.725492 
L 73.20947 55.725492 
L 73.20947 54.472538 
L 74.483349 54.472538 
L 74.483349 53.209397 
L 75.757228 53.209397 
L 75.757228 52.073589 
L 77.031107 52.073589 
L 77.031107 51.024367 
L 78.304985 51.024367 
L 78.304985 50.031172 
L 79.578864 50.031172 
L 79.578864 49.02779 
L 80.852743 49.02779 
L 80.852743 48.049874 
L 82.126622 48.049874 
L 82.126622 47.082145 
L 83.400501 47.082145 
L 83.400501 46.129696 
L 84.674379 46.129696 
L 84.674379 45.426819 
L 85.948258 45.426819 
L 85.948258 44.61189 
L 87.222137 44.61189 
L 87.222137 43.82752 
L 88.496016 43.82752 
L 88.496016 43.032964 
L 89.769895 43.032964 
L 89.769895 42.314807 
L 91.043773 42.314807 
L 91.043773 41.65777 
L 92.317652 41.65777 
L 92.317652 41.041479 
L 93.591531 41.041479 
L 93.591531 40.404816 
L 94.86541 40.404816 
L 94.86541 39.701939 
L 96.139289 39.701939 
L 96.139289 39.065275 
L 97.413167 39.065275 
L 97.413167 38.520291 
L 98.687046 38.520291 
L 98.687046 37.924374 
L 99.960925 37.924374 
L 99.960925 37.440509 
L 101.234804 37.440509 
L 101.234804 36.951552 
L 102.508683 36.951552 
L 102.508683 36.477874 
L 103.782561 36.477874 
L 103.782561 36.044942 
L 105.05644 36.044942 
L 105.05644 35.657851 
L 106.330319 35.657851 
L 106.330319 35.245293 
L 107.604198 35.245293 
L 107.604198 34.848015 
L 108.878077 34.848015 
L 108.878077 34.44055 
L 110.151955 34.44055 
L 110.151955 34.068738 
L 111.425834 34.068738 
L 111.425834 33.651087 
L 112.699713 33.651087 
L 112.699713 33.248715 
L 113.973592 33.248715 
L 113.973592 32.861624 
L 115.247471 32.861624 
L 115.247471 32.545838 
L 116.52135 32.545838 
L 116.52135 32.16384 
L 117.795228 32.16384 
L 117.795228 31.761469 
L 119.069107 31.761469 
L 119.069107 31.450777 
L 120.342986 31.450777 
L 120.342986 31.140085 
L 121.616865 31.140085 
L 121.616865 30.834486 
L 122.890744 30.834486 
L 122.890744 30.590007 
L 124.164622 30.590007 
L 124.164622 30.299689 
L 125.438501 30.299689 
L 125.438501 30.02465 
L 126.71238 30.02465 
L 126.71238 29.795451 
L 127.986259 29.795451 
L 127.986259 29.591719 
L 129.260138 29.591719 
L 129.260138 29.372706 
L 130.534016 29.372706 
L 130.534016 29.112948 
L 131.807895 29.112948 
L 131.807895 28.878655 
L 133.081774 28.878655 
L 133.081774 28.680016 
L 134.355653 28.680016 
L 134.355653 28.445724 
L 135.629532 28.445724 
L 135.629532 28.226712 
L 136.90341 28.226712 
L 136.90341 28.033166 
L 138.177289 28.033166 
L 138.177289 27.8549 
L 139.451168 27.8549 
L 139.451168 27.651168 
L 140.725047 27.651168 
L 140.725047 27.508555 
L 141.998926 27.508555 
L 141.998926 27.299729 
L 143.272804 27.299729 
L 143.272804 27.126557 
L 144.546683 27.126557 
L 144.546683 26.917731 
L 145.820562 26.917731 
L 145.820562 26.693625 
L 147.094441 26.693625 
L 147.094441 26.510266 
L 148.36832 26.510266 
L 148.36832 26.337094 
L 149.642198 26.337094 
L 149.642198 26.112988 
L 150.916077 26.112988 
L 150.916077 25.950002 
L 152.189956 25.950002 
L 152.189956 25.792109 
L 153.463835 25.792109 
L 153.463835 25.62403 
L 154.737714 25.62403 
L 154.737714 25.466138 
L 156.011592 25.466138 
L 156.011592 25.292965 
L 157.285471 25.292965 
L 157.285471 25.140166 
L 158.55935 25.140166 
L 158.55935 24.982273 
L 159.833229 24.982273 
L 159.833229 24.844754 
L 161.107108 24.844754 
L 161.107108 24.656301 
L 162.380986 24.656301 
L 162.380986 24.523875 
L 163.654865 24.523875 
L 163.654865 24.386356 
L 164.928744 24.386356 
L 164.928744 24.264116 
L 166.202623 24.264116 
L 166.202623 24.106224 
L 168.750381 24.024731 
L 168.750381 23.856652 
L 171.298138 23.749692 
L 171.298138 23.637639 
L 173.845896 23.535773 
L 173.845896 23.398254 
L 175.119775 23.398254 
L 175.119775 23.260734 
L 176.393653 23.260734 
L 176.393653 23.148682 
L 178.941411 23.046815 
L 178.941411 22.904203 
L 180.21529 22.904203 
L 180.21529 22.76159 
L 182.763047 22.65463 
L 182.763047 22.583324 
L 185.310805 22.486551 
L 185.310805 22.405058 
L 187.858563 22.328659 
L 187.858563 22.186046 
L 190.40632 22.08418 
L 190.40632 21.987407 
L 192.954078 21.885541 
L 192.954078 21.834608 
L 195.501835 21.748021 
L 195.501835 21.666528 
L 196.775714 21.666528 
L 196.775714 21.549382 
L 199.323472 21.462796 
L 199.323472 21.37621 
L 201.871229 21.279437 
L 201.871229 21.203037 
L 204.418987 21.147011 
L 204.418987 21.075704 
L 206.966745 21.004398 
L 206.966745 20.958558 
L 209.514502 20.897439 
L 209.514502 20.800666 
L 212.06226 20.749733 
L 212.06226 20.658053 
L 214.610018 20.612213 
L 214.610018 20.510347 
L 217.157775 20.428854 
L 217.157775 20.362641 
L 219.705533 20.281148 
L 219.705533 20.184375 
L 222.25329 20.133442 
L 222.25329 20.067229 
L 224.801048 20.021389 
L 224.801048 19.939896 
L 228.622684 19.863497 
L 228.622684 19.802377 
L 231.170442 19.756537 
L 231.170442 19.680137 
L 234.992078 19.588458 
L 234.992078 19.506965 
L 238.813715 19.415285 
L 238.813715 19.354166 
L 242.635351 19.262486 
L 242.635351 19.237019 
L 246.456988 19.1759 
L 246.456988 19.11478 
L 251.552503 19.007821 
L 251.552503 18.972167 
L 256.648018 18.870301 
L 256.648018 18.834648 
L 260.469654 18.742968 
L 260.469654 18.707315 
L 265.56517 18.610542 
L 265.56517 18.569796 
L 265.56517 18.569796 
" clip-path="url(#p730f105be1)" style="fill: none; stroke: #99badf; stroke-width: 1.5; stroke-linecap: round"/>
   </g>
   <g id="line2d_17">
    <path d="M 41.3625 162.756308 
L 42.878257 162.756308 
L 42.878257 143.900874 
L 44.394014 143.900874 
L 44.394014 130.882374 
L 45.909771 130.882374 
L 45.909771 120.899487 
L 47.425528 120.899487 
L 47.425528 112.97939 
L 48.941285 112.97939 
L 48.941285 106.164541 
L 50.457042 106.164541 
L 50.457042 100.5619 
L 51.972799 100.5619 
L 51.972799 95.560269 
L 53.488556 95.560269 
L 53.488556 90.986477 
L 55.004313 90.986477 
L 55.004313 87.197055 
L 56.52007 87.197055 
L 56.52007 83.886403 
L 58.035826 83.886403 
L 58.035826 80.535005 
L 59.551583 80.535005 
L 59.551583 77.708218 
L 61.06734 77.708218 
L 61.06734 75.069883 
L 62.583097 75.069883 
L 62.583097 72.742241 
L 64.098854 72.742241 
L 64.098854 70.547024 
L 65.614611 70.547024 
L 65.614611 68.55554 
L 67.130368 68.55554 
L 67.130368 66.777975 
L 68.646125 66.777975 
L 68.646125 65.071716 
L 70.161882 65.071716 
L 70.161882 63.47751 
L 71.677639 63.47751 
L 71.677639 61.811998 
L 73.193396 61.811998 
L 73.193396 60.401151 
L 74.709153 60.401151 
L 74.709153 58.975024 
L 76.22491 58.975024 
L 76.22491 57.66095 
L 77.740667 57.66095 
L 77.740667 56.453835 
L 79.256424 56.453835 
L 79.256424 55.277281 
L 80.772181 55.277281 
L 80.772181 54.156753 
L 82.287938 54.156753 
L 82.287938 53.153371 
L 83.803695 53.153371 
L 83.803695 52.216202 
L 85.319452 52.216202 
L 85.319452 51.268846 
L 86.835209 51.268846 
L 86.835209 50.362237 
L 88.350965 50.362237 
L 88.350965 49.445441 
L 89.866722 49.445441 
L 89.866722 48.487899 
L 91.382479 48.487899 
L 91.382479 47.688249 
L 92.898236 47.688249 
L 92.898236 46.985372 
L 94.413993 46.985372 
L 94.413993 46.323242 
L 95.92975 46.323242 
L 95.92975 45.584712 
L 97.445507 45.584712 
L 97.445507 44.912395 
L 98.961264 44.912395 
L 98.961264 44.285918 
L 100.477021 44.285918 
L 100.477021 43.639068 
L 101.992778 43.639068 
L 101.992778 43.08899 
L 103.508535 43.08899 
L 103.508535 42.447233 
L 105.024292 42.447233 
L 105.024292 41.983742 
L 106.540049 41.983742 
L 106.540049 41.515157 
L 108.055806 41.515157 
L 108.055806 40.90396 
L 109.571563 40.90396 
L 109.571563 40.358976 
L 111.08732 40.358976 
L 111.08732 39.864925 
L 112.603077 39.864925 
L 112.603077 39.314847 
L 114.118834 39.314847 
L 114.118834 38.846263 
L 115.634591 38.846263 
L 115.634591 38.408238 
L 117.150348 38.408238 
L 117.150348 37.944747 
L 118.666104 37.944747 
L 118.666104 37.511816 
L 120.181861 37.511816 
L 120.181861 37.078884 
L 121.697618 37.078884 
L 121.697618 36.681606 
L 123.213375 36.681606 
L 123.213375 36.360728 
L 124.729132 36.360728 
L 124.729132 35.937983 
L 126.244889 35.937983 
L 126.244889 35.525425 
L 127.760646 35.525425 
L 127.760646 35.224919 
L 129.276403 35.224919 
L 129.276403 34.898948 
L 130.79216 34.898948 
L 130.79216 34.501669 
L 132.307917 34.501669 
L 132.307917 34.226631 
L 133.823674 34.226631 
L 133.823674 33.824259 
L 135.339431 33.824259 
L 135.339431 33.528847 
L 136.855188 33.528847 
L 136.855188 33.269088 
L 138.370945 33.269088 
L 138.370945 32.953303 
L 139.886702 32.953303 
L 139.886702 32.637518 
L 141.402459 32.637518 
L 141.402459 32.362479 
L 142.918216 32.362479 
L 142.918216 32.072161 
L 144.433973 32.072161 
L 144.433973 31.802215 
L 145.94973 31.802215 
L 145.94973 31.567923 
L 147.465487 31.567923 
L 147.465487 31.338724 
L 148.981244 31.338724 
L 148.981244 31.099338 
L 150.497 31.099338 
L 150.497 30.870139 
L 152.012757 30.870139 
L 152.012757 30.620567 
L 153.528514 30.620567 
L 153.528514 30.421928 
L 155.044271 30.421928 
L 155.044271 30.177449 
L 156.560028 30.177449 
L 156.560028 30.004277 
L 158.075785 30.004277 
L 158.075785 29.810731 
L 159.591542 29.810731 
L 159.591542 29.601905 
L 161.107299 29.601905 
L 161.107299 29.387986 
L 162.623056 29.387986 
L 162.623056 29.20972 
L 164.138813 29.20972 
L 164.138813 28.975428 
L 165.65457 28.975428 
L 165.65457 28.781882 
L 167.170327 28.781882 
L 167.170327 28.59343 
L 168.686084 28.59343 
L 168.686084 28.415164 
L 170.201841 28.415164 
L 170.201841 28.241992 
L 171.717598 28.241992 
L 171.717598 28.058632 
L 173.233355 28.058632 
L 173.233355 27.819247 
L 174.749112 27.819247 
L 174.749112 27.630794 
L 176.264869 27.630794 
L 176.264869 27.457622 
L 177.780626 27.457622 
L 177.780626 27.264076 
L 179.296383 27.264076 
L 179.296383 27.11637 
L 180.812139 27.11637 
L 180.812139 26.927918 
L 182.327896 26.927918 
L 182.327896 26.744558 
L 183.843653 26.744558 
L 183.843653 26.607039 
L 185.35941 26.607039 
L 185.35941 26.46952 
L 186.875167 26.46952 
L 186.875167 26.321814 
L 188.390924 26.321814 
L 188.390924 26.209761 
L 191.422438 26.102801 
L 191.422438 25.924535 
L 192.938195 25.924535 
L 192.938195 25.792109 
L 194.453952 25.792109 
L 194.453952 25.62403 
L 195.969709 25.62403 
L 195.969709 25.506884 
L 199.001223 25.410111 
L 199.001223 25.298058 
L 200.51698 25.298058 
L 200.51698 25.160539 
L 202.032737 25.160539 
L 202.032737 25.02302 
L 205.064251 24.941527 
L 205.064251 24.860034 
L 208.095765 24.763261 
L 208.095765 24.641021 
L 209.611522 24.641021 
L 209.611522 24.528969 
L 212.643035 24.437289 
L 212.643035 24.360889 
L 214.158792 24.360889 
L 214.158792 24.23865 
L 217.190306 24.141877 
L 217.190306 23.978891 
L 220.22182 23.892305 
L 220.22182 23.764972 
L 223.253334 23.688572 
L 223.253334 23.571426 
L 224.769091 23.571426 
L 224.769091 23.428814 
L 226.284848 23.428814 
L 226.284848 23.316761 
L 229.316362 23.235268 
L 229.316362 23.128308 
L 232.347876 23.062095 
L 232.347876 22.950042 
L 235.37939 22.868549 
L 235.37939 22.710657 
L 238.410904 22.603697 
L 238.410904 22.527298 
L 241.442418 22.476365 
L 241.442418 22.389778 
L 244.473931 22.287912 
L 244.473931 22.191139 
L 247.505445 22.109646 
L 247.505445 22.012873 
L 250.536959 21.941567 
L 250.536959 21.824421 
L 253.568473 21.732741 
L 253.568473 21.610502 
L 256.599987 21.549382 
L 256.599987 21.457703 
L 259.631501 21.401676 
L 259.631501 21.325277 
L 262.663015 21.23869 
L 262.663015 21.167384 
L 265.694529 21.101171 
L 265.694529 21.024771 
L 265.694529 21.024771 
" clip-path="url(#p730f105be1)" style="fill: none; stroke: #df9e9b; stroke-width: 1.5; stroke-linecap: round"/>
   </g>
   <g id="LineCollection_1">
    <path d="M 41.3625 25.191099 
L 268.2825 25.191099 
" clip-path="url(#p730f105be1)" style="fill: none; stroke-dasharray: 5.55,2.4; stroke-dashoffset: 0; stroke: #000000; stroke-width: 1.5"/>
   </g>
   <g id="patch_3">
    <path d="M 41.3625 173.52 
L 41.3625 7.2 
" style="fill: none; stroke: #cccccc; stroke-width: 0.8; stroke-linejoin: miter; stroke-linecap: square"/>
   </g>
   <g id="patch_4">
    <path d="M 264.5625 173.52 
L 264.5625 7.2 
" style="fill: none; stroke: #cccccc; stroke-width: 0.8; stroke-linejoin: miter; stroke-linecap: square"/>
   </g>
   <g id="patch_5">
    <path d="M 41.3625 173.52 
L 264.5625 173.52 
" style="fill: none; stroke: #cccccc; stroke-width: 0.8; stroke-linejoin: miter; stroke-linecap: square"/>
   </g>
   <g id="patch_6">
    <path d="M 41.3625 7.2 
L 264.5625 7.2 
" style="fill: none; stroke: #cccccc; stroke-width: 0.8; stroke-linejoin: miter; stroke-linecap: square"/>
   </g>
   <g id="legend_1">
    <g id="patch_7">
     <path d="M 48.3625 168.52 
L 142.065625 168.52 
Q 144.065625 168.52 144.065625 166.52 
L 144.065625 139.229375 
Q 144.065625 137.229375 142.065625 137.229375 
L 48.3625 137.229375 
Q 46.3625 137.229375 46.3625 139.229375 
L 46.3625 166.52 
Q 46.3625 168.52 48.3625 168.52 
z
" style="fill: #ffffff; opacity: 0.8; stroke: #cccccc; stroke-linejoin: miter"/>
    </g>
    <g id="line2d_18">
     <path d="M 50.3625 144.887188 
L 60.3625 144.887188 
L 60.3625 144.887188 
L 70.3625 144.887188 
L 70.3625 144.887188 
" style="fill: none; stroke: #99badf; stroke-width: 1.5; stroke-linecap: round"/>
    </g>
    <g id="text_17">
     <!-- Caucasian -->
     <g style="fill: #262626" transform="translate(78.3625 148.387188) scale(0.1 -0.1)">
      <defs>
       <path id="ArialMT-43" d="M 3763 1606 
L 4369 1453 
Q 4178 706 3683 314 
Q 3188 -78 2472 -78 
Q 1731 -78 1267 223 
Q 803 525 561 1097 
Q 319 1669 319 2325 
Q 319 3041 592 3573 
Q 866 4106 1370 4382 
Q 1875 4659 2481 4659 
Q 3169 4659 3637 4309 
Q 4106 3959 4291 3325 
L 3694 3184 
Q 3534 3684 3231 3912 
Q 2928 4141 2469 4141 
Q 1941 4141 1586 3887 
Q 1231 3634 1087 3207 
Q 944 2781 944 2328 
Q 944 1744 1114 1308 
Q 1284 872 1643 656 
Q 2003 441 2422 441 
Q 2931 441 3284 734 
Q 3638 1028 3763 1606 
z
" transform="scale(0.015625)"/>
       <path id="ArialMT-61" d="M 2588 409 
Q 2275 144 1986 34 
Q 1697 -75 1366 -75 
Q 819 -75 525 192 
Q 231 459 231 875 
Q 231 1119 342 1320 
Q 453 1522 633 1644 
Q 813 1766 1038 1828 
Q 1203 1872 1538 1913 
Q 2219 1994 2541 2106 
Q 2544 2222 2544 2253 
Q 2544 2597 2384 2738 
Q 2169 2928 1744 2928 
Q 1347 2928 1158 2789 
Q 969 2650 878 2297 
L 328 2372 
Q 403 2725 575 2942 
Q 747 3159 1072 3276 
Q 1397 3394 1825 3394 
Q 2250 3394 2515 3294 
Q 2781 3194 2906 3042 
Q 3031 2891 3081 2659 
Q 3109 2516 3109 2141 
L 3109 1391 
Q 3109 606 3145 398 
Q 3181 191 3288 0 
L 2700 0 
Q 2613 175 2588 409 
z
M 2541 1666 
Q 2234 1541 1622 1453 
Q 1275 1403 1131 1340 
Q 988 1278 909 1158 
Q 831 1038 831 891 
Q 831 666 1001 516 
Q 1172 366 1500 366 
Q 1825 366 2078 508 
Q 2331 650 2450 897 
Q 2541 1088 2541 1459 
L 2541 1666 
z
" transform="scale(0.015625)"/>
       <path id="ArialMT-75" d="M 2597 0 
L 2597 488 
Q 2209 -75 1544 -75 
Q 1250 -75 995 37 
Q 741 150 617 320 
Q 494 491 444 738 
Q 409 903 409 1263 
L 409 3319 
L 972 3319 
L 972 1478 
Q 972 1038 1006 884 
Q 1059 663 1231 536 
Q 1403 409 1656 409 
Q 1909 409 2131 539 
Q 2353 669 2445 892 
Q 2538 1116 2538 1541 
L 2538 3319 
L 3100 3319 
L 3100 0 
L 2597 0 
z
" transform="scale(0.015625)"/>
       <path id="ArialMT-63" d="M 2588 1216 
L 3141 1144 
Q 3050 572 2676 248 
Q 2303 -75 1759 -75 
Q 1078 -75 664 370 
Q 250 816 250 1647 
Q 250 2184 428 2587 
Q 606 2991 970 3192 
Q 1334 3394 1763 3394 
Q 2303 3394 2647 3120 
Q 2991 2847 3088 2344 
L 2541 2259 
Q 2463 2594 2264 2762 
Q 2066 2931 1784 2931 
Q 1359 2931 1093 2626 
Q 828 2322 828 1663 
Q 828 994 1084 691 
Q 1341 388 1753 388 
Q 2084 388 2306 591 
Q 2528 794 2588 1216 
z
" transform="scale(0.015625)"/>
      </defs>
      <use xlink:href="#ArialMT-43"/>
      <use xlink:href="#ArialMT-61" x="72.216797"/>
      <use xlink:href="#ArialMT-75" x="127.832031"/>
      <use xlink:href="#ArialMT-63" x="183.447266"/>
      <use xlink:href="#ArialMT-61" x="233.447266"/>
      <use xlink:href="#ArialMT-73" x="289.0625"/>
      <use xlink:href="#ArialMT-69" x="339.0625"/>
      <use xlink:href="#ArialMT-61" x="361.279297"/>
      <use xlink:href="#ArialMT-6e" x="416.894531"/>
     </g>
    </g>
    <g id="line2d_19">
     <path d="M 50.3625 159.0325 
L 60.3625 159.0325 
L 60.3625 159.0325 
L 70.3625 159.0325 
L 70.3625 159.0325 
" style="fill: none; stroke: #df9e9b; stroke-width: 1.5; stroke-linecap: round"/>
    </g>
    <g id="text_18">
     <!-- Eastern Asian -->
     <g style="fill: #262626" transform="translate(78.3625 162.5325) scale(0.1 -0.1)">
      <defs>
       <path id="ArialMT-45" d="M 506 0 
L 506 4581 
L 3819 4581 
L 3819 4041 
L 1113 4041 
L 1113 2638 
L 3647 2638 
L 3647 2100 
L 1113 2100 
L 1113 541 
L 3925 541 
L 3925 0 
L 506 0 
z
" transform="scale(0.015625)"/>
       <path id="ArialMT-72" d="M 416 0 
L 416 3319 
L 922 3319 
L 922 2816 
Q 1116 3169 1280 3281 
Q 1444 3394 1641 3394 
Q 1925 3394 2219 3213 
L 2025 2691 
Q 1819 2813 1613 2813 
Q 1428 2813 1281 2702 
Q 1134 2591 1072 2394 
Q 978 2094 978 1738 
L 978 0 
L 416 0 
z
" transform="scale(0.015625)"/>
       <path id="ArialMT-20" transform="scale(0.015625)"/>
       <path id="ArialMT-41" d="M -9 0 
L 1750 4581 
L 2403 4581 
L 4278 0 
L 3588 0 
L 3053 1388 
L 1138 1388 
L 634 0 
L -9 0 
z
M 1313 1881 
L 2866 1881 
L 2388 3150 
Q 2169 3728 2063 4100 
Q 1975 3659 1816 3225 
L 1313 1881 
z
" transform="scale(0.015625)"/>
      </defs>
      <use xlink:href="#ArialMT-45"/>
      <use xlink:href="#ArialMT-61" x="66.699219"/>
      <use xlink:href="#ArialMT-73" x="122.314453"/>
      <use xlink:href="#ArialMT-74" x="172.314453"/>
      <use xlink:href="#ArialMT-65" x="200.097656"/>
      <use xlink:href="#ArialMT-72" x="255.712891"/>
      <use xlink:href="#ArialMT-6e" x="289.013672"/>
      <use xlink:href="#ArialMT-20" x="344.628906"/>
      <use xlink:href="#ArialMT-41" x="366.912109"/>
      <use xlink:href="#ArialMT-73" x="433.611328"/>
      <use xlink:href="#ArialMT-69" x="483.611328"/>
      <use xlink:href="#ArialMT-61" x="505.828125"/>
      <use xlink:href="#ArialMT-6e" x="561.443359"/>
     </g>
    </g>
   </g>
  </g>
 </g>
 <defs>
  <clipPath id="p730f105be1">
   <rect x="41.3625" y="7.2" width="223.2" height="166.32"/>
  </clipPath>
 </defs>
</svg>
