<?xml version="1.0" encoding="utf-8" standalone="no"?>
<!DOCTYPE svg PUBLIC "-//W3C//DTD SVG 1.1//EN"
  "http://www.w3.org/Graphics/SVG/1.1/DTD/svg11.dtd">
<svg xmlns:xlink="http://www.w3.org/1999/xlink" width="279.986719pt" height="213.589531pt" viewBox="0 0 279.986719 213.589531" xmlns="http://www.w3.org/2000/svg" version="1.1">
 <metadata>
  <rdf:RDF xmlns:dc="http://purl.org/dc/elements/1.1/" xmlns:cc="http://creativecommons.org/ns#" xmlns:rdf="http://www.w3.org/1999/02/22-rdf-syntax-ns#">
   <cc:Work>
    <dc:type rdf:resource="http://purl.org/dc/dcmitype/StillImage"/>
    <dc:date>2024-11-03T10:50:53.349480</dc:date>
    <dc:format>image/svg+xml</dc:format>
    <dc:creator>
     <cc:Agent>
      <dc:title>Matplotlib v3.9.2, https://matplotlib.org/</dc:title>
     </cc:Agent>
    </dc:creator>
   </cc:Work>
  </rdf:RDF>
 </metadata>
 <defs>
  <style type="text/css">*{stroke-linejoin: round; stroke-linecap: butt}</style>
 </defs>
 <g id="figure_1">
  <g id="patch_1">
   <path d="M 0 213.589531 
L 279.986719 213.589531 
L 279.986719 0 
L 0 0 
z
" style="fill: #ffffff"/>
  </g>
  <g id="axes_1">
   <g id="patch_2">
    <path d="M 41.245313 177.098906 
L 264.445312 177.098906 
L 264.445312 10.778906 
L 41.245313 10.778906 
z
" style="fill: #ffffff"/>
   </g>
   <g id="matplotlib.axis_1">
    <g id="xtick_1">
     <g id="line2d_1">
      <path d="M 41.245313 177.098906 
L 41.245313 10.778906 
" clip-path="url(#pb3022100f8)" style="fill: none; stroke: #cccccc; stroke-width: 0.8; stroke-linecap: round"/>
     </g>
     <g id="text_1">
      <!-- 0 -->
      <g style="fill: #262626" transform="translate(38.464844 191.256719) scale(0.1 -0.1)">
       <defs>
        <path id="ArialMT-30" d="M 266 2259 
Q 266 3072 433 3567 
Q 600 4063 929 4331 
Q 1259 4600 1759 4600 
Q 2128 4600 2406 4451 
Q 2684 4303 2865 4023 
Q 3047 3744 3150 3342 
Q 3253 2941 3253 2259 
Q 3253 1453 3087 958 
Q 2922 463 2592 192 
Q 2263 -78 1759 -78 
Q 1097 -78 719 397 
Q 266 969 266 2259 
z
M 844 2259 
Q 844 1131 1108 757 
Q 1372 384 1759 384 
Q 2147 384 2411 759 
Q 2675 1134 2675 2259 
Q 2675 3391 2411 3762 
Q 2147 4134 1753 4134 
Q 1366 4134 1134 3806 
Q 844 3388 844 2259 
z
" transform="scale(0.015625)"/>
       </defs>
       <use xlink:href="#ArialMT-30"/>
      </g>
     </g>
    </g>
    <g id="xtick_2">
     <g id="line2d_2">
      <path d="M 97.045312 177.098906 
L 97.045312 10.778906 
" clip-path="url(#pb3022100f8)" style="fill: none; stroke: #cccccc; stroke-width: 0.8; stroke-linecap: round"/>
     </g>
     <g id="text_2">
      <!-- 50 -->
      <g style="fill: #262626" transform="translate(91.484375 191.256719) scale(0.1 -0.1)">
       <defs>
        <path id="ArialMT-35" d="M 266 1200 
L 856 1250 
Q 922 819 1161 601 
Q 1400 384 1738 384 
Q 2144 384 2425 690 
Q 2706 997 2706 1503 
Q 2706 1984 2436 2262 
Q 2166 2541 1728 2541 
Q 1456 2541 1237 2417 
Q 1019 2294 894 2097 
L 366 2166 
L 809 4519 
L 3088 4519 
L 3088 3981 
L 1259 3981 
L 1013 2750 
Q 1425 3038 1878 3038 
Q 2478 3038 2890 2622 
Q 3303 2206 3303 1553 
Q 3303 931 2941 478 
Q 2500 -78 1738 -78 
Q 1113 -78 717 272 
Q 322 622 266 1200 
z
" transform="scale(0.015625)"/>
       </defs>
       <use xlink:href="#ArialMT-35"/>
       <use xlink:href="#ArialMT-30" x="55.615234"/>
      </g>
     </g>
    </g>
    <g id="xtick_3">
     <g id="line2d_3">
      <path d="M 152.845313 177.098906 
L 152.845313 10.778906 
" clip-path="url(#pb3022100f8)" style="fill: none; stroke: #cccccc; stroke-width: 0.8; stroke-linecap: round"/>
     </g>
     <g id="text_3">
      <!-- 100 -->
      <g style="fill: #262626" transform="translate(144.503906 191.256719) scale(0.1 -0.1)">
       <defs>
        <path id="ArialMT-31" d="M 2384 0 
L 1822 0 
L 1822 3584 
Q 1619 3391 1289 3197 
Q 959 3003 697 2906 
L 697 3450 
Q 1169 3672 1522 3987 
Q 1875 4303 2022 4600 
L 2384 4600 
L 2384 0 
z
" transform="scale(0.015625)"/>
       </defs>
       <use xlink:href="#ArialMT-31"/>
       <use xlink:href="#ArialMT-30" x="55.615234"/>
       <use xlink:href="#ArialMT-30" x="111.230469"/>
      </g>
     </g>
    </g>
    <g id="xtick_4">
     <g id="line2d_4">
      <path d="M 208.645312 177.098906 
L 208.645312 10.778906 
" clip-path="url(#pb3022100f8)" style="fill: none; stroke: #cccccc; stroke-width: 0.8; stroke-linecap: round"/>
     </g>
     <g id="text_4">
      <!-- 150 -->
      <g style="fill: #262626" transform="translate(200.303906 191.256719) scale(0.1 -0.1)">
       <use xlink:href="#ArialMT-31"/>
       <use xlink:href="#ArialMT-35" x="55.615234"/>
       <use xlink:href="#ArialMT-30" x="111.230469"/>
      </g>
     </g>
    </g>
    <g id="xtick_5">
     <g id="line2d_5">
      <path d="M 264.445312 177.098906 
L 264.445312 10.778906 
" clip-path="url(#pb3022100f8)" style="fill: none; stroke: #cccccc; stroke-width: 0.8; stroke-linecap: round"/>
     </g>
     <g id="text_5">
      <!-- 200 -->
      <g style="fill: #262626" transform="translate(256.103906 191.256719) scale(0.1 -0.1)">
       <defs>
        <path id="ArialMT-32" d="M 3222 541 
L 3222 0 
L 194 0 
Q 188 203 259 391 
Q 375 700 629 1000 
Q 884 1300 1366 1694 
Q 2113 2306 2375 2664 
Q 2638 3022 2638 3341 
Q 2638 3675 2398 3904 
Q 2159 4134 1775 4134 
Q 1369 4134 1125 3890 
Q 881 3647 878 3216 
L 300 3275 
Q 359 3922 746 4261 
Q 1134 4600 1788 4600 
Q 2447 4600 2831 4234 
Q 3216 3869 3216 3328 
Q 3216 3053 3103 2787 
Q 2991 2522 2730 2228 
Q 2469 1934 1863 1422 
Q 1356 997 1212 845 
Q 1069 694 975 541 
L 3222 541 
z
" transform="scale(0.015625)"/>
       </defs>
       <use xlink:href="#ArialMT-32"/>
       <use xlink:href="#ArialMT-30" x="55.615234"/>
       <use xlink:href="#ArialMT-30" x="111.230469"/>
      </g>
     </g>
    </g>
    <g id="text_6">
     <!-- Pixels -->
     <g style="fill: #262626" transform="translate(139.507812 204.402031) scale(0.1 -0.1)">
      <defs>
       <path id="ArialMT-50" d="M 494 0 
L 494 4581 
L 2222 4581 
Q 2678 4581 2919 4538 
Q 3256 4481 3484 4323 
Q 3713 4166 3852 3881 
Q 3991 3597 3991 3256 
Q 3991 2672 3619 2267 
Q 3247 1863 2275 1863 
L 1100 1863 
L 1100 0 
L 494 0 
z
M 1100 2403 
L 2284 2403 
Q 2872 2403 3119 2622 
Q 3366 2841 3366 3238 
Q 3366 3525 3220 3729 
Q 3075 3934 2838 4000 
Q 2684 4041 2272 4041 
L 1100 4041 
L 1100 2403 
z
" transform="scale(0.015625)"/>
       <path id="ArialMT-69" d="M 425 3934 
L 425 4581 
L 988 4581 
L 988 3934 
L 425 3934 
z
M 425 0 
L 425 3319 
L 988 3319 
L 988 0 
L 425 0 
z
" transform="scale(0.015625)"/>
       <path id="ArialMT-78" d="M 47 0 
L 1259 1725 
L 138 3319 
L 841 3319 
L 1350 2541 
Q 1494 2319 1581 2169 
Q 1719 2375 1834 2534 
L 2394 3319 
L 3066 3319 
L 1919 1756 
L 3153 0 
L 2463 0 
L 1781 1031 
L 1600 1309 
L 728 0 
L 47 0 
z
" transform="scale(0.015625)"/>
       <path id="ArialMT-65" d="M 2694 1069 
L 3275 997 
Q 3138 488 2766 206 
Q 2394 -75 1816 -75 
Q 1088 -75 661 373 
Q 234 822 234 1631 
Q 234 2469 665 2931 
Q 1097 3394 1784 3394 
Q 2450 3394 2872 2941 
Q 3294 2488 3294 1666 
Q 3294 1616 3291 1516 
L 816 1516 
Q 847 969 1125 678 
Q 1403 388 1819 388 
Q 2128 388 2347 550 
Q 2566 713 2694 1069 
z
M 847 1978 
L 2700 1978 
Q 2663 2397 2488 2606 
Q 2219 2931 1791 2931 
Q 1403 2931 1139 2672 
Q 875 2413 847 1978 
z
" transform="scale(0.015625)"/>
       <path id="ArialMT-6c" d="M 409 0 
L 409 4581 
L 972 4581 
L 972 0 
L 409 0 
z
" transform="scale(0.015625)"/>
       <path id="ArialMT-73" d="M 197 991 
L 753 1078 
Q 800 744 1014 566 
Q 1228 388 1613 388 
Q 2000 388 2187 545 
Q 2375 703 2375 916 
Q 2375 1106 2209 1216 
Q 2094 1291 1634 1406 
Q 1016 1563 777 1677 
Q 538 1791 414 1992 
Q 291 2194 291 2438 
Q 291 2659 392 2848 
Q 494 3038 669 3163 
Q 800 3259 1026 3326 
Q 1253 3394 1513 3394 
Q 1903 3394 2198 3281 
Q 2494 3169 2634 2976 
Q 2775 2784 2828 2463 
L 2278 2388 
Q 2241 2644 2061 2787 
Q 1881 2931 1553 2931 
Q 1166 2931 1000 2803 
Q 834 2675 834 2503 
Q 834 2394 903 2306 
Q 972 2216 1119 2156 
Q 1203 2125 1616 2013 
Q 2213 1853 2448 1751 
Q 2684 1650 2818 1456 
Q 2953 1263 2953 975 
Q 2953 694 2789 445 
Q 2625 197 2315 61 
Q 2006 -75 1616 -75 
Q 969 -75 630 194 
Q 291 463 197 991 
z
" transform="scale(0.015625)"/>
      </defs>
      <use xlink:href="#ArialMT-50"/>
      <use xlink:href="#ArialMT-69" x="66.699219"/>
      <use xlink:href="#ArialMT-78" x="88.916016"/>
      <use xlink:href="#ArialMT-65" x="138.916016"/>
      <use xlink:href="#ArialMT-6c" x="194.53125"/>
      <use xlink:href="#ArialMT-73" x="216.748047"/>
     </g>
    </g>
   </g>
   <g id="matplotlib.axis_2">
    <g id="ytick_1">
     <g id="line2d_6">
      <path d="M 41.245313 177.098906 
L 264.445312 177.098906 
" clip-path="url(#pb3022100f8)" style="fill: none; stroke: #cccccc; stroke-width: 0.8; stroke-linecap: round"/>
     </g>
     <g id="text_7">
      <!-- 0.0 -->
      <g style="fill: #262626" transform="translate(20.345313 180.677812) scale(0.1 -0.1)">
       <defs>
        <path id="ArialMT-2e" d="M 581 0 
L 581 641 
L 1222 641 
L 1222 0 
L 581 0 
z
" transform="scale(0.015625)"/>
       </defs>
       <use xlink:href="#ArialMT-30"/>
       <use xlink:href="#ArialMT-2e" x="55.615234"/>
       <use xlink:href="#ArialMT-30" x="83.398438"/>
      </g>
     </g>
    </g>
    <g id="ytick_2">
     <g id="line2d_7">
      <path d="M 41.245313 143.834906 
L 264.445312 143.834906 
" clip-path="url(#pb3022100f8)" style="fill: none; stroke: #cccccc; stroke-width: 0.8; stroke-linecap: round"/>
     </g>
     <g id="text_8">
      <!-- 0.2 -->
      <g style="fill: #262626" transform="translate(20.345313 147.413813) scale(0.1 -0.1)">
       <use xlink:href="#ArialMT-30"/>
       <use xlink:href="#ArialMT-2e" x="55.615234"/>
       <use xlink:href="#ArialMT-32" x="83.398438"/>
      </g>
     </g>
    </g>
    <g id="ytick_3">
     <g id="line2d_8">
      <path d="M 41.245313 110.570906 
L 264.445312 110.570906 
" clip-path="url(#pb3022100f8)" style="fill: none; stroke: #cccccc; stroke-width: 0.8; stroke-linecap: round"/>
     </g>
     <g id="text_9">
      <!-- 0.4 -->
      <g style="fill: #262626" transform="translate(20.345313 114.149812) scale(0.1 -0.1)">
       <defs>
        <path id="ArialMT-34" d="M 2069 0 
L 2069 1097 
L 81 1097 
L 81 1613 
L 2172 4581 
L 2631 4581 
L 2631 1613 
L 3250 1613 
L 3250 1097 
L 2631 1097 
L 2631 0 
L 2069 0 
z
M 2069 1613 
L 2069 3678 
L 634 1613 
L 2069 1613 
z
" transform="scale(0.015625)"/>
       </defs>
       <use xlink:href="#ArialMT-30"/>
       <use xlink:href="#ArialMT-2e" x="55.615234"/>
       <use xlink:href="#ArialMT-34" x="83.398438"/>
      </g>
     </g>
    </g>
    <g id="ytick_4">
     <g id="line2d_9">
      <path d="M 41.245313 77.306906 
L 264.445312 77.306906 
" clip-path="url(#pb3022100f8)" style="fill: none; stroke: #cccccc; stroke-width: 0.8; stroke-linecap: round"/>
     </g>
     <g id="text_10">
      <!-- 0.6 -->
      <g style="fill: #262626" transform="translate(20.345313 80.885812) scale(0.1 -0.1)">
       <defs>
        <path id="ArialMT-36" d="M 3184 3459 
L 2625 3416 
Q 2550 3747 2413 3897 
Q 2184 4138 1850 4138 
Q 1581 4138 1378 3988 
Q 1113 3794 959 3422 
Q 806 3050 800 2363 
Q 1003 2672 1297 2822 
Q 1591 2972 1913 2972 
Q 2475 2972 2870 2558 
Q 3266 2144 3266 1488 
Q 3266 1056 3080 686 
Q 2894 316 2569 119 
Q 2244 -78 1831 -78 
Q 1128 -78 684 439 
Q 241 956 241 2144 
Q 241 3472 731 4075 
Q 1159 4600 1884 4600 
Q 2425 4600 2770 4297 
Q 3116 3994 3184 3459 
z
M 888 1484 
Q 888 1194 1011 928 
Q 1134 663 1356 523 
Q 1578 384 1822 384 
Q 2178 384 2434 671 
Q 2691 959 2691 1453 
Q 2691 1928 2437 2201 
Q 2184 2475 1800 2475 
Q 1419 2475 1153 2201 
Q 888 1928 888 1484 
z
" transform="scale(0.015625)"/>
       </defs>
       <use xlink:href="#ArialMT-30"/>
       <use xlink:href="#ArialMT-2e" x="55.615234"/>
       <use xlink:href="#ArialMT-36" x="83.398438"/>
      </g>
     </g>
    </g>
    <g id="ytick_5">
     <g id="line2d_10">
      <path d="M 41.245313 44.042906 
L 264.445312 44.042906 
" clip-path="url(#pb3022100f8)" style="fill: none; stroke: #cccccc; stroke-width: 0.8; stroke-linecap: round"/>
     </g>
     <g id="text_11">
      <!-- 0.8 -->
      <g style="fill: #262626" transform="translate(20.345313 47.621812) scale(0.1 -0.1)">
       <defs>
        <path id="ArialMT-38" d="M 1131 2484 
Q 781 2613 612 2850 
Q 444 3088 444 3419 
Q 444 3919 803 4259 
Q 1163 4600 1759 4600 
Q 2359 4600 2725 4251 
Q 3091 3903 3091 3403 
Q 3091 3084 2923 2848 
Q 2756 2613 2416 2484 
Q 2838 2347 3058 2040 
Q 3278 1734 3278 1309 
Q 3278 722 2862 322 
Q 2447 -78 1769 -78 
Q 1091 -78 675 323 
Q 259 725 259 1325 
Q 259 1772 486 2073 
Q 713 2375 1131 2484 
z
M 1019 3438 
Q 1019 3113 1228 2906 
Q 1438 2700 1772 2700 
Q 2097 2700 2305 2904 
Q 2513 3109 2513 3406 
Q 2513 3716 2298 3927 
Q 2084 4138 1766 4138 
Q 1444 4138 1231 3931 
Q 1019 3725 1019 3438 
z
M 838 1322 
Q 838 1081 952 856 
Q 1066 631 1291 507 
Q 1516 384 1775 384 
Q 2178 384 2440 643 
Q 2703 903 2703 1303 
Q 2703 1709 2433 1975 
Q 2163 2241 1756 2241 
Q 1359 2241 1098 1978 
Q 838 1716 838 1322 
z
" transform="scale(0.015625)"/>
       </defs>
       <use xlink:href="#ArialMT-30"/>
       <use xlink:href="#ArialMT-2e" x="55.615234"/>
       <use xlink:href="#ArialMT-38" x="83.398438"/>
      </g>
     </g>
    </g>
    <g id="ytick_6">
     <g id="line2d_11">
      <path d="M 41.245313 10.778906 
L 264.445312 10.778906 
" clip-path="url(#pb3022100f8)" style="fill: none; stroke: #cccccc; stroke-width: 0.8; stroke-linecap: round"/>
     </g>
     <g id="text_12">
      <!-- 1.0 -->
      <g style="fill: #262626" transform="translate(20.345313 14.357812) scale(0.1 -0.1)">
       <use xlink:href="#ArialMT-31"/>
       <use xlink:href="#ArialMT-2e" x="55.615234"/>
       <use xlink:href="#ArialMT-30" x="83.398438"/>
      </g>
     </g>
    </g>
    <g id="text_13">
     <!-- Proportion -->
     <g style="fill: #262626" transform="translate(14.357813 117.006094) rotate(-90) scale(0.1 -0.1)">
      <defs>
       <path id="ArialMT-72" d="M 416 0 
L 416 3319 
L 922 3319 
L 922 2816 
Q 1116 3169 1280 3281 
Q 1444 3394 1641 3394 
Q 1925 3394 2219 3213 
L 2025 2691 
Q 1819 2813 1613 2813 
Q 1428 2813 1281 2702 
Q 1134 2591 1072 2394 
Q 978 2094 978 1738 
L 978 0 
L 416 0 
z
" transform="scale(0.015625)"/>
       <path id="ArialMT-6f" d="M 213 1659 
Q 213 2581 725 3025 
Q 1153 3394 1769 3394 
Q 2453 3394 2887 2945 
Q 3322 2497 3322 1706 
Q 3322 1066 3130 698 
Q 2938 331 2570 128 
Q 2203 -75 1769 -75 
Q 1072 -75 642 372 
Q 213 819 213 1659 
z
M 791 1659 
Q 791 1022 1069 705 
Q 1347 388 1769 388 
Q 2188 388 2466 706 
Q 2744 1025 2744 1678 
Q 2744 2294 2464 2611 
Q 2184 2928 1769 2928 
Q 1347 2928 1069 2612 
Q 791 2297 791 1659 
z
" transform="scale(0.015625)"/>
       <path id="ArialMT-70" d="M 422 -1272 
L 422 3319 
L 934 3319 
L 934 2888 
Q 1116 3141 1344 3267 
Q 1572 3394 1897 3394 
Q 2322 3394 2647 3175 
Q 2972 2956 3137 2557 
Q 3303 2159 3303 1684 
Q 3303 1175 3120 767 
Q 2938 359 2589 142 
Q 2241 -75 1856 -75 
Q 1575 -75 1351 44 
Q 1128 163 984 344 
L 984 -1272 
L 422 -1272 
z
M 931 1641 
Q 931 1000 1190 694 
Q 1450 388 1819 388 
Q 2194 388 2461 705 
Q 2728 1022 2728 1688 
Q 2728 2322 2467 2637 
Q 2206 2953 1844 2953 
Q 1484 2953 1207 2617 
Q 931 2281 931 1641 
z
" transform="scale(0.015625)"/>
       <path id="ArialMT-74" d="M 1650 503 
L 1731 6 
Q 1494 -44 1306 -44 
Q 1000 -44 831 53 
Q 663 150 594 308 
Q 525 466 525 972 
L 525 2881 
L 113 2881 
L 113 3319 
L 525 3319 
L 525 4141 
L 1084 4478 
L 1084 3319 
L 1650 3319 
L 1650 2881 
L 1084 2881 
L 1084 941 
Q 1084 700 1114 631 
Q 1144 563 1211 522 
Q 1278 481 1403 481 
Q 1497 481 1650 503 
z
" transform="scale(0.015625)"/>
       <path id="ArialMT-6e" d="M 422 0 
L 422 3319 
L 928 3319 
L 928 2847 
Q 1294 3394 1984 3394 
Q 2284 3394 2536 3286 
Q 2788 3178 2913 3003 
Q 3038 2828 3088 2588 
Q 3119 2431 3119 2041 
L 3119 0 
L 2556 0 
L 2556 2019 
Q 2556 2363 2490 2533 
Q 2425 2703 2258 2804 
Q 2091 2906 1866 2906 
Q 1506 2906 1245 2678 
Q 984 2450 984 1813 
L 984 0 
L 422 0 
z
" transform="scale(0.015625)"/>
      </defs>
      <use xlink:href="#ArialMT-50"/>
      <use xlink:href="#ArialMT-72" x="66.699219"/>
      <use xlink:href="#ArialMT-6f" x="100"/>
      <use xlink:href="#ArialMT-70" x="155.615234"/>
      <use xlink:href="#ArialMT-6f" x="211.230469"/>
      <use xlink:href="#ArialMT-72" x="266.845703"/>
      <use xlink:href="#ArialMT-74" x="300.146484"/>
      <use xlink:href="#ArialMT-69" x="327.929688"/>
      <use xlink:href="#ArialMT-6f" x="350.146484"/>
      <use xlink:href="#ArialMT-6e" x="405.761719"/>
     </g>
    </g>
   </g>
   <g id="line2d_12">
    <path d="M 42.361313 177.098906 
L 42.361313 152.320341 
L 43.477313 152.320341 
L 43.477313 152.222402 
L 43.477313 134.906788 
L 44.593313 134.906788 
L 44.593313 134.808849 
L 44.593313 122.233482 
L 45.709313 122.233482 
L 45.709313 122.135543 
L 45.709313 111.538544 
L 46.825313 111.538544 
L 46.825313 111.440605 
L 46.825313 103.252905 
L 47.941313 103.252905 
L 47.941313 103.154966 
L 47.941313 96.318824 
L 49.057313 96.318824 
L 49.057313 96.220885 
L 49.057313 90.442484 
L 50.173313 90.442484 
L 50.173313 90.344545 
L 50.173313 84.938313 
L 51.289313 84.938313 
L 51.289313 84.840374 
L 51.289313 79.963012 
L 52.405313 79.963012 
L 52.405313 79.865073 
L 52.405313 76.260918 
L 53.521313 76.260918 
L 53.521313 76.162979 
L 53.521313 73.107282 
L 54.637313 73.107282 
L 54.637313 73.009343 
L 54.637313 69.699005 
L 55.753313 69.699005 
L 55.753313 69.601066 
L 55.753313 66.623721 
L 56.869313 66.623721 
L 56.869313 66.525782 
L 56.869313 63.979368 
L 57.985313 63.979368 
L 57.985313 63.881429 
L 57.985313 61.374191 
L 59.101313 61.374191 
L 59.101313 61.276252 
L 59.101313 59.160769 
L 60.217313 59.160769 
L 60.217313 59.06283 
L 60.217313 56.888585 
L 61.333313 56.888585 
L 61.333313 56.790646 
L 61.333313 54.753515 
L 62.449313 54.753515 
L 62.449313 54.655576 
L 62.449313 53.166903 
L 63.565313 53.166903 
L 63.565313 53.068964 
L 63.565313 51.404001 
L 64.681313 51.404001 
L 64.681313 51.306062 
L 64.681313 49.503985 
L 65.797313 49.503985 
L 65.797313 49.406046 
L 65.797313 48.250365 
L 66.913313 48.250365 
L 66.913313 48.152426 
L 66.913313 46.683342 
L 68.029313 46.683342 
L 68.029313 46.585403 
L 68.029313 45.410135 
L 69.145313 45.410135 
L 69.145313 45.312196 
L 69.145313 43.921462 
L 70.261313 43.921462 
L 70.261313 43.823523 
L 70.261313 42.765782 
L 71.377313 42.765782 
L 71.377313 42.667843 
L 71.377313 41.80598 
L 72.493313 41.80598 
L 72.493313 41.708041 
L 72.493313 40.611124 
L 73.609313 40.611124 
L 73.609313 40.513185 
L 73.609313 39.553383 
L 74.725313 39.553383 
L 74.725313 39.455444 
L 74.725313 38.397703 
L 75.841313 38.397703 
L 75.841313 38.299764 
L 75.841313 37.183259 
L 76.957313 37.183259 
L 76.957313 37.08532 
L 76.957313 36.203869 
L 78.073313 36.203869 
L 78.073313 36.10593 
L 78.073313 35.57706 
L 79.189312 35.57706 
L 79.189312 35.479121 
L 79.189312 34.558494 
L 80.305312 34.558494 
L 80.305312 34.460555 
L 80.305312 33.677043 
L 81.421312 33.677043 
L 81.421312 33.579104 
L 81.421312 32.63889 
L 82.537312 32.63889 
L 82.537312 32.540951 
L 82.537312 31.639912 
L 83.653312 31.639912 
L 83.653312 31.541973 
L 83.653312 30.719285 
L 84.769312 30.719285 
L 84.769312 30.621346 
L 84.769312 30.151239 
L 85.885312 30.151239 
L 85.885312 30.0533 
L 85.885312 29.465666 
L 87.001312 29.465666 
L 87.001312 29.367727 
L 87.001312 28.917208 
L 88.117312 28.917208 
L 88.117312 28.819269 
L 88.117312 28.407925 
L 89.233312 28.407925 
L 89.233312 28.309986 
L 89.233312 27.56565 
L 90.349312 27.56565 
L 90.349312 27.467711 
L 90.349312 26.93884 
L 91.465312 26.93884 
L 91.465312 26.840901 
L 91.465312 26.312031 
L 92.581312 26.312031 
L 92.581312 26.214092 
L 92.581312 25.822336 
L 93.697312 25.822336 
L 93.697312 25.724397 
L 93.697312 25.60687 
L 94.813312 25.60687 
L 94.813312 25.508931 
L 94.813312 25.273877 
L 95.929313 25.273877 
L 95.929313 25.175938 
L 95.929313 24.80377 
L 97.045312 24.80377 
L 97.045312 24.705831 
L 97.045312 24.45119 
L 98.161313 24.45119 
L 98.161313 24.353251 
L 98.161313 24.079022 
L 99.277312 24.079022 
L 99.277312 23.981083 
L 99.277312 23.765617 
L 100.393313 23.765617 
L 100.393313 23.667678 
L 100.393313 23.491388 
L 101.509312 23.491388 
L 101.509312 23.393449 
L 101.509312 23.11922 
L 102.625313 23.11922 
L 102.625313 23.021281 
L 102.625313 22.707876 
L 103.741312 22.707876 
L 103.741312 22.609937 
L 103.741312 22.472822 
L 104.857313 22.472822 
L 104.857313 22.374883 
L 104.857313 22.159417 
L 105.973312 22.159417 
L 105.973312 22.061478 
L 105.973312 21.728486 
L 107.089313 21.728486 
L 107.089313 21.630547 
L 107.089313 21.51302 
L 108.205312 21.51302 
L 108.205312 21.415081 
L 108.205312 21.297554 
L 109.321313 21.297554 
L 109.321313 21.199615 
L 109.321313 21.042913 
L 110.437312 21.042913 
L 110.437312 20.944974 
L 110.437312 20.788271 
L 111.553313 20.788271 
L 111.553313 20.690332 
L 111.553313 20.474867 
L 112.669312 20.474867 
L 112.669312 20.376928 
L 112.669312 20.298576 
L 113.785313 20.298576 
L 113.785313 20.200637 
L 113.785313 20.161462 
L 114.901312 20.161462 
L 114.901312 20.063523 
L 114.901312 19.965584 
L 116.017313 19.965584 
L 116.017313 19.867645 
L 116.017313 19.789294 
L 117.133312 19.789294 
L 117.133312 19.691355 
L 117.133312 19.632591 
L 118.249313 19.632591 
L 118.249313 19.534652 
L 118.249313 19.397538 
L 119.365312 19.397538 
L 119.365312 19.299599 
L 119.365312 19.280011 
L 120.481313 19.280011 
L 120.481313 19.182072 
L 120.481313 19.005782 
L 121.597312 19.005782 
L 121.597312 18.907843 
L 121.597312 18.809904 
L 122.713313 18.809904 
L 122.713313 18.711965 
L 122.713313 18.594438 
L 123.829312 18.594438 
L 123.829312 18.496499 
L 123.829312 18.418148 
L 126.061312 18.320209 
L 126.061312 18.163506 
L 127.177312 18.163506 
L 127.177312 18.065567 
L 127.177312 18.006804 
L 129.409312 17.908865 
L 129.409312 17.693399 
L 130.525312 17.693399 
L 130.525312 17.59546 
L 130.525312 17.556285 
L 131.641312 17.556285 
L 131.641312 17.458346 
L 131.641312 17.438758 
L 132.757312 17.438758 
L 132.757312 17.340819 
L 132.757312 17.321231 
L 134.989312 17.24288 
L 134.989312 17.223292 
L 134.989312 17.027414 
L 137.221312 16.968651 
L 137.221312 16.929475 
L 137.221312 16.831536 
L 139.453312 16.753185 
L 139.453312 16.733597 
L 139.453312 16.694422 
L 141.685312 16.596483 
L 141.685312 16.478956 
L 142.801312 16.478956 
L 142.801312 16.381017 
L 142.801312 16.283078 
L 143.917312 16.283078 
L 143.917312 16.185139 
L 143.917312 16.145963 
L 147.265312 16.067612 
L 147.265312 16.048024 
L 147.265312 16.008849 
L 148.381313 16.008849 
L 148.381313 15.91091 
L 148.381313 15.832558 
L 149.497312 15.832558 
L 149.497312 15.734619 
L 149.497312 15.695444 
L 150.613313 15.695444 
L 150.613313 15.597505 
L 150.613313 15.558329 
L 152.845313 15.499566 
L 152.845313 15.46039 
L 152.845313 15.382039 
L 155.077313 15.323276 
L 155.077313 15.2841 
L 155.077313 15.264512 
L 156.193312 15.264512 
L 156.193312 15.166573 
L 156.193312 15.146985 
L 160.657312 15.049046 
L 160.657312 14.970695 
L 162.889312 14.93152 
L 162.889312 14.872756 
L 162.889312 14.794405 
L 168.469313 14.696466 
L 168.469313 14.65729 
L 170.701313 14.559351 
L 170.701313 14.481 
L 174.049312 14.383061 
L 174.049312 14.265534 
L 179.629312 14.167595 
L 179.629312 14.089244 
L 185.209313 14.010893 
L 185.209313 13.991305 
L 185.209313 13.971717 
L 188.557312 13.912954 
L 188.557312 13.873778 
L 188.557312 13.854191 
L 191.905313 13.795427 
L 191.905313 13.756252 
L 191.905313 13.6779 
L 195.253312 13.619137 
L 195.253312 13.579961 
L 195.253312 13.560374 
L 198.601313 13.50161 
L 198.601313 13.462435 
L 198.601313 13.442847 
L 204.181312 13.344908 
L 204.181312 13.32532 
L 210.877312 13.227381 
L 210.877312 13.207793 
L 215.341312 13.109854 
L 215.341312 13.090267 
L 220.921312 12.992328 
L 220.921312 12.97274 
L 224.269312 12.894389 
L 224.269312 12.874801 
L 224.269312 12.855213 
L 228.733312 12.757274 
L 228.733312 12.737686 
L 236.545312 12.678923 
L 236.545312 12.639747 
L 236.545312 12.620159 
L 242.125312 12.52222 
L 242.125312 12.502633 
L 246.589312 12.404694 
L 246.589312 12.385106 
L 263.329312 12.306755 
L 263.329312 12.287167 
L 263.329312 12.267579 
L 265.561312 12.247991 
L 265.561312 12.228403 
" clip-path="url(#pb3022100f8)" style="fill: none; stroke: #843b62; stroke-width: 1.5; stroke-linecap: round"/>
   </g>
   <g id="line2d_13">
    <path d="M 42.361313 177.098906 
L 42.361313 176.395505 
L 43.477313 176.395505 
L 43.477313 176.292569 
L 43.477313 175.820775 
L 44.593313 175.820775 
L 44.593313 175.717839 
L 44.593313 174.757096 
L 45.709313 174.757096 
L 45.709313 174.654159 
L 45.709313 173.830665 
L 46.825313 173.830665 
L 46.825313 173.727729 
L 46.825313 172.784142 
L 47.941313 172.784142 
L 47.941313 172.681205 
L 47.941313 171.789087 
L 49.057313 171.789087 
L 49.057313 171.686151 
L 49.057313 170.510956 
L 50.173313 170.510956 
L 50.173313 170.40802 
L 50.173313 169.412965 
L 51.289313 169.412965 
L 51.289313 169.310028 
L 51.289313 168.186302 
L 52.405313 168.186302 
L 52.405313 168.083365 
L 52.405313 166.556471 
L 53.521313 166.556471 
L 53.521313 166.453534 
L 53.521313 164.935218 
L 54.637313 164.935218 
L 54.637313 164.832281 
L 54.637313 163.348277 
L 55.753313 163.348277 
L 55.753313 163.24534 
L 55.753313 161.495416 
L 56.869313 161.495416 
L 56.869313 161.392479 
L 56.869313 159.48815 
L 57.985313 159.48815 
L 57.985313 159.385213 
L 57.985313 157.420837 
L 59.101313 157.420837 
L 59.101313 157.317901 
L 59.101313 155.722381 
L 60.217313 155.722381 
L 60.217313 155.619445 
L 60.217313 153.706537 
L 61.333313 153.706537 
L 61.333313 153.603601 
L 61.333313 151.725006 
L 62.449313 151.725006 
L 62.449313 151.622069 
L 62.449313 149.743474 
L 63.565313 149.743474 
L 63.565313 149.640537 
L 63.565313 147.470288 
L 64.681313 147.470288 
L 64.681313 147.367351 
L 64.681313 145.342929 
L 65.797313 145.342929 
L 65.797313 145.239992 
L 65.797313 143.086899 
L 66.913313 143.086899 
L 66.913313 142.983963 
L 66.913313 140.710777 
L 68.029313 140.710777 
L 68.029313 140.60784 
L 68.029313 138.626308 
L 69.145313 138.626308 
L 69.145313 138.523372 
L 69.145313 136.533262 
L 70.261313 136.533262 
L 70.261313 136.430325 
L 70.261313 134.423059 
L 71.377313 134.423059 
L 71.377313 134.320122 
L 71.377313 132.02978 
L 72.493313 132.02978 
L 72.493313 131.926844 
L 72.493313 129.542143 
L 73.609313 129.542143 
L 73.609313 129.439206 
L 73.609313 127.208911 
L 74.725313 127.208911 
L 74.725313 127.105974 
L 74.725313 124.961459 
L 75.841313 124.961459 
L 75.841313 124.858523 
L 75.841313 122.971349 
L 76.957313 122.971349 
L 76.957313 122.868413 
L 76.957313 120.904037 
L 78.073313 120.904037 
L 78.073313 120.8011 
L 78.073313 119.111223 
L 79.189312 119.111223 
L 79.189312 119.008286 
L 79.189312 117.215471 
L 80.305312 117.215471 
L 80.305312 117.112535 
L 80.305312 115.482703 
L 81.421312 115.482703 
L 81.421312 115.379767 
L 81.421312 113.844294 
L 82.537312 113.844294 
L 82.537312 113.741357 
L 82.537312 112.300243 
L 83.653312 112.300243 
L 83.653312 112.197306 
L 83.653312 110.833395 
L 84.769312 110.833395 
L 84.769312 110.730458 
L 84.769312 109.194985 
L 85.885312 109.194985 
L 85.885312 109.092049 
L 85.885312 107.873964 
L 87.001312 107.873964 
L 87.001312 107.771028 
L 87.001312 106.244133 
L 88.117312 106.244133 
L 88.117312 106.141196 
L 88.117312 104.742972 
L 89.233312 104.742972 
L 89.233312 104.640036 
L 89.233312 103.653559 
L 90.349312 103.653559 
L 90.349312 103.550622 
L 90.349312 102.306804 
L 91.465312 102.306804 
L 91.465312 102.203867 
L 91.465312 101.157344 
L 92.581312 101.157344 
L 92.581312 101.054407 
L 92.581312 99.767698 
L 93.697312 99.767698 
L 93.697312 99.664761 
L 93.697312 98.669706 
L 94.813312 98.669706 
L 94.813312 98.566769 
L 94.813312 97.820478 
L 95.929313 97.820478 
L 95.929313 97.717542 
L 95.929313 96.722487 
L 97.045312 96.722487 
L 97.045312 96.61955 
L 97.045312 95.718854 
L 98.161313 95.718854 
L 98.161313 95.615917 
L 98.161313 94.723799 
L 99.277312 94.723799 
L 99.277312 94.620862 
L 99.277312 93.763056 
L 100.393313 93.763056 
L 100.393313 93.660119 
L 100.393313 92.836626 
L 101.509312 92.836626 
L 101.509312 92.733689 
L 101.509312 91.884461 
L 102.625313 91.884461 
L 102.625313 91.781524 
L 102.625313 90.923718 
L 103.741312 90.923718 
L 103.741312 90.820782 
L 103.741312 90.091646 
L 104.857313 90.091646 
L 104.857313 89.98871 
L 104.857313 89.302465 
L 105.973312 89.302465 
L 105.973312 89.199528 
L 105.973312 88.521862 
L 107.089313 88.521862 
L 107.089313 88.418925 
L 107.089313 87.698368 
L 108.205312 87.698368 
L 108.205312 87.595431 
L 108.205312 87.037857 
L 109.321313 87.037857 
L 109.321313 86.93492 
L 109.321313 86.180051 
L 110.437312 86.180051 
L 110.437312 86.077115 
L 110.437312 85.245043 
L 111.553313 85.245043 
L 111.553313 85.142106 
L 111.553313 84.618844 
L 112.669312 84.618844 
L 112.669312 84.515908 
L 112.669312 83.821085 
L 113.785313 83.821085 
L 113.785313 83.718148 
L 113.785313 83.023325 
L 114.901312 83.023325 
L 114.901312 82.920389 
L 114.901312 82.345659 
L 116.017313 82.345659 
L 116.017313 82.242722 
L 116.017313 81.582211 
L 117.133312 81.582211 
L 117.133312 81.479275 
L 117.133312 80.844498 
L 118.249313 80.844498 
L 118.249313 80.741561 
L 118.249313 80.106785 
L 119.365312 80.106785 
L 119.365312 80.003848 
L 119.365312 79.360494 
L 120.481313 79.360494 
L 120.481313 79.257557 
L 120.481313 78.665671 
L 121.597312 78.665671 
L 121.597312 78.562734 
L 121.597312 78.073785 
L 122.713313 78.073785 
L 122.713313 77.970848 
L 122.713313 77.396118 
L 123.829312 77.396118 
L 123.829312 77.293181 
L 123.829312 76.932903 
L 124.945312 76.932903 
L 124.945312 76.829966 
L 124.945312 76.358173 
L 126.061312 76.358173 
L 126.061312 76.255236 
L 126.061312 75.70624 
L 127.177312 75.70624 
L 127.177312 75.603304 
L 127.177312 75.217291 
L 128.293312 75.217291 
L 128.293312 75.114354 
L 128.293312 74.608249 
L 129.409312 74.608249 
L 129.409312 74.505312 
L 129.409312 74.033519 
L 130.525312 74.033519 
L 130.525312 73.930582 
L 130.525312 73.510257 
L 131.641312 73.510257 
L 131.641312 73.40732 
L 131.641312 73.021308 
L 132.757312 73.021308 
L 132.757312 72.918371 
L 132.757312 72.455156 
L 133.873312 72.455156 
L 133.873312 72.352219 
L 133.873312 71.837535 
L 134.989312 71.837535 
L 134.989312 71.734599 
L 134.989312 71.297118 
L 136.105312 71.297118 
L 136.105312 71.194181 
L 136.105312 70.482202 
L 137.221312 70.482202 
L 137.221312 70.379265 
L 137.221312 69.91605 
L 138.337312 69.91605 
L 138.337312 69.813113 
L 138.337312 69.427101 
L 139.453312 69.427101 
L 139.453312 69.324164 
L 139.453312 68.818058 
L 140.569312 68.818058 
L 140.569312 68.715122 
L 140.569312 68.260484 
L 141.685312 68.260484 
L 141.685312 68.157548 
L 141.685312 67.797269 
L 142.801312 67.797269 
L 142.801312 67.694333 
L 142.801312 67.462725 
L 143.917312 67.462725 
L 143.917312 67.359788 
L 143.917312 66.990932 
L 145.033312 66.990932 
L 145.033312 66.887995 
L 145.033312 66.433358 
L 146.149312 66.433358 
L 146.149312 66.330421 
L 146.149312 65.961564 
L 147.265312 65.961564 
L 147.265312 65.858628 
L 147.265312 65.335366 
L 148.381313 65.335366 
L 148.381313 65.232429 
L 148.381313 64.769214 
L 149.497312 64.769214 
L 149.497312 64.666277 
L 149.497312 64.237374 
L 150.613313 64.237374 
L 150.613313 64.134438 
L 150.613313 63.688379 
L 151.729312 63.688379 
L 151.729312 63.585442 
L 151.729312 63.24232 
L 152.845313 63.24232 
L 152.845313 63.139383 
L 152.845313 62.864885 
L 153.961312 62.864885 
L 153.961312 62.761948 
L 153.961312 62.350201 
L 155.077313 62.350201 
L 155.077313 62.247265 
L 155.077313 62.152906 
L 156.193312 62.152906 
L 156.193312 62.049969 
L 156.193312 61.638222 
L 157.309313 61.638222 
L 157.309313 61.535286 
L 157.309313 61.140695 
L 158.425312 61.140695 
L 158.425312 61.037758 
L 158.425312 60.746104 
L 159.541313 60.746104 
L 159.541313 60.643167 
L 159.541313 60.351513 
L 160.657312 60.351513 
L 160.657312 60.248577 
L 160.657312 60.008391 
L 161.773313 60.008391 
L 161.773313 59.905454 
L 161.773313 59.673847 
L 162.889312 59.673847 
L 162.889312 59.57091 
L 162.889312 59.202053 
L 164.005313 59.202053 
L 164.005313 59.099117 
L 164.005313 58.876087 
L 165.121312 58.876087 
L 165.121312 58.77315 
L 165.121312 58.46434 
L 166.237313 58.46434 
L 166.237313 58.361404 
L 166.237313 58.026859 
L 167.353312 58.026859 
L 167.353312 57.923922 
L 167.353312 57.718049 
L 168.469313 57.718049 
L 168.469313 57.615112 
L 168.469313 57.323458 
L 169.585312 57.323458 
L 169.585312 57.220522 
L 169.585312 57.031804 
L 170.701313 57.031804 
L 170.701313 56.928868 
L 170.701313 56.65437 
L 171.817312 56.65437 
L 171.817312 56.551433 
L 171.817312 56.268357 
L 172.933312 56.268357 
L 172.933312 56.16542 
L 172.933312 55.81372 
L 174.049312 55.81372 
L 174.049312 55.710783 
L 174.049312 55.384817 
L 175.165312 55.384817 
L 175.165312 55.28188 
L 175.165312 54.964492 
L 176.281312 54.964492 
L 176.281312 54.861555 
L 176.281312 54.62137 
L 177.397312 54.62137 
L 177.397312 54.518433 
L 177.397312 54.321137 
L 178.513312 54.321137 
L 178.513312 54.218201 
L 178.513312 53.926547 
L 179.629312 53.926547 
L 179.629312 53.82361 
L 179.629312 53.60058 
L 180.745312 53.60058 
L 180.745312 53.497644 
L 180.745312 53.231724 
L 181.861312 53.231724 
L 181.861312 53.128787 
L 181.861312 52.880023 
L 182.977312 52.880023 
L 182.977312 52.777087 
L 182.977312 52.554057 
L 184.093312 52.554057 
L 184.093312 52.45112 
L 184.093312 52.116576 
L 185.209313 52.116576 
L 185.209313 52.013639 
L 185.209313 51.747719 
L 186.325312 51.747719 
L 186.325312 51.644783 
L 186.325312 51.421753 
L 187.441313 51.421753 
L 187.441313 51.318817 
L 187.441313 51.078631 
L 188.557312 51.078631 
L 188.557312 50.975694 
L 188.557312 50.709774 
L 189.673313 50.709774 
L 189.673313 50.606838 
L 189.673313 50.435276 
L 190.789312 50.435276 
L 190.789312 50.33234 
L 190.789312 50.10931 
L 191.905313 50.10931 
L 191.905313 50.006373 
L 191.905313 49.731875 
L 193.021312 49.731875 
L 193.021312 49.628939 
L 193.021312 49.440221 
L 194.137313 49.440221 
L 194.137313 49.337285 
L 194.137313 49.011318 
L 195.253312 49.011318 
L 195.253312 48.908382 
L 195.253312 48.702508 
L 196.369313 48.702508 
L 196.369313 48.599572 
L 196.369313 48.453745 
L 197.485312 48.453745 
L 197.485312 48.350808 
L 197.485312 48.016264 
L 198.601313 48.016264 
L 198.601313 47.913327 
L 198.601313 47.690297 
L 199.717312 47.690297 
L 199.717312 47.587361 
L 199.717312 47.27855 
L 200.833313 47.27855 
L 200.833313 47.175614 
L 200.833313 46.92685 
L 201.949312 46.92685 
L 201.949312 46.823913 
L 201.949312 46.575149 
L 203.065313 46.575149 
L 203.065313 46.472213 
L 203.065313 46.077622 
L 204.181312 46.077622 
L 204.181312 45.974685 
L 204.181312 45.674453 
L 205.297313 45.674453 
L 205.297313 45.571516 
L 205.297313 45.348487 
L 206.413312 45.348487 
L 206.413312 45.24555 
L 206.413312 45.031099 
L 207.529313 45.031099 
L 207.529313 44.928162 
L 207.529313 44.808069 
L 208.645312 44.808069 
L 208.645312 44.705132 
L 208.645312 44.36201 
L 209.761313 44.36201 
L 209.761313 44.259073 
L 209.761313 43.993154 
L 210.877312 43.993154 
L 210.877312 43.890217 
L 210.877312 43.684343 
L 211.993313 43.684343 
L 211.993313 43.581407 
L 211.993313 43.341221 
L 213.109312 43.341221 
L 213.109312 43.238284 
L 213.109312 42.963786 
L 214.225313 42.963786 
L 214.225313 42.86085 
L 214.225313 42.629242 
L 215.341312 42.629242 
L 215.341312 42.526305 
L 215.341312 42.423369 
L 216.457313 42.423369 
L 216.457313 42.320432 
L 216.457313 42.071668 
L 217.573312 42.071668 
L 217.573312 41.968731 
L 217.573312 41.788592 
L 218.689312 41.788592 
L 218.689312 41.685655 
L 218.689312 41.316799 
L 219.805312 41.316799 
L 219.805312 41.213862 
L 219.805312 40.999411 
L 220.921312 40.999411 
L 220.921312 40.896474 
L 220.921312 40.60482 
L 222.037312 40.60482 
L 222.037312 40.501883 
L 222.037312 40.356056 
L 223.153312 40.356056 
L 223.153312 40.253119 
L 223.153312 40.098714 
L 224.269312 40.098714 
L 224.269312 39.995778 
L 224.269312 39.76417 
L 225.385312 39.76417 
L 225.385312 39.661233 
L 225.385312 39.506828 
L 226.501312 39.506828 
L 226.501312 39.403892 
L 226.501312 39.198018 
L 227.617312 39.198018 
L 227.617312 39.095081 
L 227.617312 38.906364 
L 228.733312 38.906364 
L 228.733312 38.803427 
L 228.733312 38.709069 
L 229.849312 38.709069 
L 229.849312 38.606132 
L 229.849312 38.494617 
L 230.965312 38.494617 
L 230.965312 38.391681 
L 230.965312 38.26301 
L 232.081312 38.26301 
L 232.081312 38.160073 
L 232.081312 37.937043 
L 233.197312 37.937043 
L 233.197312 37.834107 
L 233.197312 37.576765 
L 234.313312 37.576765 
L 234.313312 37.473828 
L 234.313312 37.250799 
L 235.429312 37.250799 
L 235.429312 37.147862 
L 235.429312 36.993457 
L 236.545312 36.993457 
L 236.545312 36.89052 
L 236.545312 36.718959 
L 237.661312 36.718959 
L 237.661312 36.616022 
L 237.661312 36.401571 
L 238.777312 36.401571 
L 238.777312 36.298634 
L 238.777312 36.152807 
L 239.893312 36.152807 
L 239.893312 36.04987 
L 239.893312 35.912621 
L 241.009312 35.912621 
L 241.009312 35.809685 
L 241.009312 35.655279 
L 242.125312 35.655279 
L 242.125312 35.552343 
L 242.125312 35.415094 
L 243.241312 35.415094 
L 243.241312 35.312157 
L 243.241312 35.234955 
L 244.357312 35.234955 
L 244.357312 35.132018 
L 244.357312 34.969035 
L 245.473312 34.969035 
L 245.473312 34.866098 
L 245.473312 34.737427 
L 246.589312 34.737427 
L 246.589312 34.63449 
L 246.589312 34.411461 
L 247.705312 34.411461 
L 247.705312 34.308524 
L 247.705312 34.205587 
L 248.821312 34.205587 
L 248.821312 34.102651 
L 248.821312 33.982558 
L 249.937312 33.982558 
L 249.937312 33.879621 
L 249.937312 33.776684 
L 251.053312 33.776684 
L 251.053312 33.673748 
L 251.053312 33.579389 
L 252.169312 33.579389 
L 252.169312 33.476452 
L 252.169312 33.347781 
L 253.285312 33.347781 
L 253.285312 33.244845 
L 253.285312 33.150486 
L 254.401312 33.150486 
L 254.401312 33.047549 
L 254.401312 32.858832 
L 255.517313 32.858832 
L 255.517313 32.755895 
L 255.517313 32.652959 
L 256.633312 32.652959 
L 256.633312 32.550022 
L 256.633312 32.421351 
L 257.749312 32.421351 
L 257.749312 32.318414 
L 257.749312 32.181165 
L 258.865312 32.181165 
L 258.865312 32.078229 
L 258.865312 31.992448 
L 259.981313 31.992448 
L 259.981313 31.889511 
L 259.981313 31.777996 
L 261.097312 31.777996 
L 261.097312 31.67506 
L 261.097312 31.520655 
L 262.213312 31.520655 
L 262.213312 31.417718 
L 262.213312 31.297625 
L 263.329312 31.297625 
L 263.329312 31.194688 
L 263.329312 31.014549 
L 264.445312 31.014549 
L 264.445312 30.911612 
L 264.445312 30.705739 
L 265.561312 30.705739 
L 265.561312 30.697161 
" clip-path="url(#pb3022100f8)" style="fill: none; stroke: #599cb4; stroke-width: 1.5; stroke-linecap: round"/>
   </g>
   <g id="line2d_14">
    <path d="M 42.361313 177.098906 
L 42.361313 166.941363 
L 43.477313 166.941363 
L 43.477313 166.833928 
L 43.477313 160.348727 
L 44.593313 160.348727 
L 44.593313 160.241292 
L 44.593313 155.250422 
L 45.709313 155.250422 
L 45.709313 155.142986 
L 45.709313 150.913932 
L 46.825313 150.913932 
L 46.825313 150.806497 
L 46.825313 147.642032 
L 47.941313 147.642032 
L 47.941313 147.534596 
L 47.941313 144.594769 
L 49.057313 144.594769 
L 49.057313 144.487333 
L 49.057313 141.606107 
L 50.173313 141.606107 
L 50.173313 141.498671 
L 50.173313 138.929985 
L 51.289313 138.929985 
L 51.289313 138.822549 
L 51.289313 136.185495 
L 52.405313 136.185495 
L 52.405313 136.078059 
L 52.405313 133.499606 
L 53.521313 133.499606 
L 53.521313 133.392171 
L 53.521313 130.755116 
L 54.637313 130.755116 
L 54.637313 130.647681 
L 54.637313 127.87389 
L 55.753313 127.87389 
L 55.753313 127.766455 
L 55.753313 125.080566 
L 56.869313 125.080566 
L 56.869313 124.97313 
L 56.869313 122.336076 
L 57.985313 122.336076 
L 57.985313 122.22864 
L 57.985313 120.177598 
L 59.101313 120.177598 
L 59.101313 120.070162 
L 59.101313 117.433108 
L 60.217313 117.433108 
L 60.217313 117.325672 
L 60.217313 114.844888 
L 61.333313 114.844888 
L 61.333313 114.737452 
L 61.333313 112.305502 
L 62.449313 112.305502 
L 62.449313 112.198067 
L 62.449313 109.541478 
L 63.565313 109.541478 
L 63.565313 109.434043 
L 63.565313 107.187663 
L 64.681313 107.187663 
L 64.681313 107.080228 
L 64.681313 104.755713 
L 65.797313 104.755713 
L 65.797313 104.648277 
L 65.797313 102.704671 
L 66.913313 102.704671 
L 66.913313 102.597235 
L 66.913313 100.770831 
L 68.029313 100.770831 
L 68.029313 100.663395 
L 68.029313 98.563518 
L 69.145313 98.563518 
L 69.145313 98.456083 
L 69.145313 96.746881 
L 70.261313 96.746881 
L 70.261313 96.639445 
L 70.261313 94.871642 
L 71.377313 94.871642 
L 71.377313 94.764207 
L 71.377313 93.250342 
L 72.493313 93.250342 
L 72.493313 93.142906 
L 72.493313 91.365336 
L 73.609313 91.365336 
L 73.609313 91.257901 
L 73.609313 89.568233 
L 74.725313 89.568233 
L 74.725313 89.460797 
L 74.725313 87.986 
L 75.841313 87.986 
L 75.841313 87.878564 
L 75.841313 86.325632 
L 76.957313 86.325632 
L 76.957313 86.218197 
L 76.957313 84.626197 
L 78.073313 84.626197 
L 78.073313 84.518762 
L 78.073313 82.80956 
L 79.189312 82.80956 
L 79.189312 82.702124 
L 79.189312 81.276162 
L 80.305312 81.276162 
L 80.305312 81.168726 
L 80.305312 79.547426 
L 81.421312 79.547426 
L 81.421312 79.43999 
L 81.421312 78.072629 
L 82.537312 78.072629 
L 82.537312 77.965193 
L 82.537312 76.53923 
L 83.653312 76.53923 
L 83.653312 76.431795 
L 83.653312 75.328139 
L 84.769312 75.328139 
L 84.769312 75.220703 
L 84.769312 74.048679 
L 85.885312 74.048679 
L 85.885312 73.941243 
L 85.885312 72.857121 
L 87.001312 72.857121 
L 87.001312 72.749686 
L 87.001312 71.704631 
L 88.117312 71.704631 
L 88.117312 71.597195 
L 88.117312 70.727944 
L 89.233312 70.727944 
L 89.233312 70.620508 
L 89.233312 69.770791 
L 90.349312 69.770791 
L 90.349312 69.663355 
L 90.349312 68.872239 
L 91.465312 68.872239 
L 91.465312 68.764803 
L 91.465312 67.934619 
L 92.581312 67.934619 
L 92.581312 67.827184 
L 92.581312 67.055601 
L 93.697312 67.055601 
L 93.697312 66.948166 
L 93.697312 66.264485 
L 94.813312 66.264485 
L 94.813312 66.157049 
L 94.813312 65.424534 
L 95.929313 65.424534 
L 95.929313 65.317099 
L 95.929313 64.613884 
L 97.045312 64.613884 
L 97.045312 64.506449 
L 97.045312 63.656731 
L 98.161313 63.656731 
L 98.161313 63.549296 
L 98.161313 62.81678 
L 99.277312 62.81678 
L 99.277312 62.709345 
L 99.277312 61.986597 
L 100.393313 61.986597 
L 100.393313 61.879161 
L 100.393313 61.302916 
L 101.509312 61.302916 
L 101.509312 61.19548 
L 101.509312 60.404364 
L 102.625313 60.404364 
L 102.625313 60.296928 
L 102.625313 59.769518 
L 103.741312 59.769518 
L 103.741312 59.662082 
L 103.741312 59.066303 
L 104.857313 59.066303 
L 104.857313 58.958867 
L 104.857313 58.382622 
L 105.973312 58.382622 
L 105.973312 58.275187 
L 105.973312 57.806377 
L 107.089313 57.806377 
L 107.089313 57.698941 
L 107.089313 57.132463 
L 108.205312 57.132463 
L 108.205312 57.025028 
L 108.205312 56.507384 
L 109.321313 56.507384 
L 109.321313 56.399948 
L 109.321313 55.843237 
L 110.437312 55.843237 
L 110.437312 55.735801 
L 110.437312 55.169323 
L 111.553313 55.169323 
L 111.553313 55.061887 
L 111.553313 54.563777 
L 112.669312 54.563777 
L 112.669312 54.456341 
L 112.669312 54.0852 
L 113.785313 54.0852 
L 113.785313 53.977765 
L 113.785313 53.440587 
L 114.901312 53.440587 
L 114.901312 53.333151 
L 114.901312 52.825274 
L 116.017313 52.825274 
L 116.017313 52.717839 
L 116.017313 52.209962 
L 117.133312 52.209962 
L 117.133312 52.102526 
L 117.133312 51.672784 
L 118.249313 51.672784 
L 118.249313 51.565348 
L 118.249313 51.203974 
L 119.365312 51.203974 
L 119.365312 51.096539 
L 119.365312 50.774232 
L 120.481313 50.774232 
L 120.481313 50.666796 
L 120.481313 50.158919 
L 121.597312 50.158919 
L 121.597312 50.051484 
L 121.597312 49.660809 
L 122.713313 49.660809 
L 122.713313 49.553373 
L 122.713313 49.162699 
L 123.829312 49.162699 
L 123.829312 49.055263 
L 123.829312 48.674355 
L 124.945312 48.674355 
L 124.945312 48.56692 
L 124.945312 48.078576 
L 126.061312 48.078576 
L 126.061312 47.971141 
L 126.061312 47.619533 
L 127.177312 47.619533 
L 127.177312 47.512098 
L 127.177312 47.150724 
L 128.293312 47.150724 
L 128.293312 47.043288 
L 128.293312 46.78935 
L 129.409312 46.78935 
L 129.409312 46.681914 
L 129.409312 46.359607 
L 130.525312 46.359607 
L 130.525312 46.252172 
L 130.525312 45.900565 
L 131.641312 45.900565 
L 131.641312 45.793129 
L 131.641312 45.412221 
L 132.757312 45.412221 
L 132.757312 45.304786 
L 132.757312 44.933645 
L 133.873312 44.933645 
L 133.873312 44.826209 
L 133.873312 44.406234 
L 134.989312 44.406234 
L 134.989312 44.298798 
L 134.989312 44.113228 
L 136.105312 44.113228 
L 136.105312 44.005792 
L 136.105312 43.693252 
L 137.221312 43.693252 
L 137.221312 43.585817 
L 137.221312 43.322111 
L 138.337312 43.322111 
L 138.337312 43.214676 
L 138.337312 42.980271 
L 139.453312 42.980271 
L 139.453312 42.872835 
L 139.453312 42.570063 
L 140.569312 42.570063 
L 140.569312 42.462627 
L 140.569312 42.150087 
L 141.685312 42.150087 
L 141.685312 42.042652 
L 141.685312 41.827781 
L 142.801312 41.827781 
L 142.801312 41.720345 
L 142.801312 41.476173 
L 143.917312 41.476173 
L 143.917312 41.368738 
L 143.917312 41.1441 
L 145.033312 41.1441 
L 145.033312 41.036664 
L 145.033312 40.870627 
L 146.149312 40.870627 
L 146.149312 40.763192 
L 146.149312 40.51902 
L 147.265312 40.51902 
L 147.265312 40.411585 
L 147.265312 40.138112 
L 148.381313 40.138112 
L 148.381313 40.030677 
L 148.381313 39.835339 
L 149.497312 39.835339 
L 149.497312 39.727904 
L 149.497312 39.454432 
L 150.613313 39.454432 
L 150.613313 39.346996 
L 150.613313 39.102824 
L 151.729312 39.102824 
L 151.729312 38.995389 
L 151.729312 38.819585 
L 152.845313 38.819585 
L 152.845313 38.71215 
L 152.845313 38.58518 
L 153.961312 38.58518 
L 153.961312 38.477745 
L 153.961312 38.253107 
L 155.077313 38.253107 
L 155.077313 38.145671 
L 155.077313 37.901499 
L 156.193312 37.901499 
L 156.193312 37.794064 
L 156.193312 37.608493 
L 157.309313 37.608493 
L 157.309313 37.501058 
L 157.309313 37.315487 
L 158.425312 37.315487 
L 158.425312 37.208052 
L 158.425312 36.96388 
L 159.541313 36.96388 
L 159.541313 36.856445 
L 159.541313 36.592739 
L 160.657312 36.592739 
L 160.657312 36.485304 
L 160.657312 36.250899 
L 161.773313 36.250899 
L 161.773313 36.143463 
L 161.773313 36.006727 
L 162.889312 36.006727 
L 162.889312 35.899291 
L 162.889312 35.713721 
L 164.005313 35.713721 
L 164.005313 35.606285 
L 164.005313 35.430482 
L 165.121312 35.430482 
L 165.121312 35.323046 
L 165.121312 35.137476 
L 166.237313 35.137476 
L 166.237313 35.03004 
L 166.237313 34.87377 
L 167.353312 34.87377 
L 167.353312 34.766335 
L 167.353312 34.561231 
L 168.469313 34.561231 
L 168.469313 34.453795 
L 168.469313 34.317059 
L 169.585312 34.317059 
L 169.585312 34.209623 
L 169.585312 34.092421 
L 170.701313 34.092421 
L 170.701313 33.984985 
L 170.701313 33.858016 
L 171.817312 33.858016 
L 171.817312 33.75058 
L 171.817312 33.535709 
L 172.933312 33.535709 
L 172.933312 33.428274 
L 172.933312 33.262237 
L 174.049312 33.262237 
L 174.049312 33.154801 
L 174.049312 33.018065 
L 175.165312 33.018065 
L 175.165312 32.91063 
L 175.165312 32.881329 
L 176.281312 32.881329 
L 176.281312 32.773894 
L 176.281312 32.646924 
L 177.397312 32.646924 
L 177.397312 32.539489 
L 177.397312 32.392986 
L 178.513312 32.392986 
L 178.513312 32.28555 
L 178.513312 32.187882 
L 179.629312 32.187882 
L 179.629312 32.080446 
L 179.629312 31.914409 
L 180.745312 31.914409 
L 180.745312 31.806974 
L 180.745312 31.699538 
L 181.861312 31.699538 
L 181.861312 31.592103 
L 181.861312 31.513968 
L 182.977312 31.513968 
L 182.977312 31.406532 
L 182.977312 31.279563 
L 184.093312 31.279563 
L 184.093312 31.172127 
L 184.093312 31.054925 
L 185.209313 31.054925 
L 185.209313 30.947489 
L 185.209313 30.840054 
L 186.325312 30.840054 
L 186.325312 30.732618 
L 186.325312 30.634949 
L 187.441313 30.634949 
L 187.441313 30.527514 
L 187.441313 30.410311 
L 188.557312 30.410311 
L 188.557312 30.302876 
L 188.557312 30.214974 
L 189.673313 30.214974 
L 189.673313 30.107539 
L 189.673313 29.990336 
L 190.789312 29.990336 
L 190.789312 29.882901 
L 190.789312 29.785232 
L 191.905313 29.785232 
L 191.905313 29.677796 
L 191.905313 29.599661 
L 193.021312 29.599661 
L 193.021312 29.492226 
L 193.021312 29.404324 
L 194.137313 29.404324 
L 194.137313 29.296889 
L 194.137313 29.22852 
L 195.253312 29.22852 
L 195.253312 29.121085 
L 195.253312 28.945281 
L 196.369313 28.945281 
L 196.369313 28.837846 
L 196.369313 28.720643 
L 198.601313 28.613208 
L 198.601313 28.447171 
L 199.717312 28.447171 
L 199.717312 28.339735 
L 199.717312 28.242067 
L 200.833313 28.242067 
L 200.833313 28.134631 
L 200.833313 28.046729 
L 201.949312 28.046729 
L 201.949312 27.939294 
L 201.949312 27.909993 
L 203.065313 27.909993 
L 203.065313 27.802558 
L 203.065313 27.695122 
L 204.181312 27.695122 
L 204.181312 27.587687 
L 204.181312 27.57792 
L 206.413312 27.480251 
L 206.413312 27.470484 
L 206.413312 27.314214 
L 207.529313 27.314214 
L 207.529313 27.206779 
L 207.529313 27.138411 
L 208.645312 27.138411 
L 208.645312 27.030975 
L 208.645312 26.991908 
L 210.877312 26.894239 
L 210.877312 26.884472 
L 210.877312 26.728202 
L 211.993313 26.728202 
L 211.993313 26.620767 
L 211.993313 26.611 
L 213.109312 26.611 
L 213.109312 26.503564 
L 213.109312 26.45473 
L 214.225313 26.45473 
L 214.225313 26.347294 
L 214.225313 26.308227 
L 216.457313 26.239859 
L 216.457313 26.200791 
L 216.457313 26.054288 
L 217.573312 26.054288 
L 217.573312 25.946853 
L 217.573312 25.917552 
L 219.805312 25.810117 
L 219.805312 25.614779 
L 220.921312 25.614779 
L 220.921312 25.507344 
L 220.921312 25.458509 
L 223.153312 25.370607 
L 223.153312 25.351074 
L 223.153312 25.253405 
L 224.269312 25.253405 
L 224.269312 25.145969 
L 224.269312 24.999466 
L 225.385312 24.999466 
L 225.385312 24.892031 
L 225.385312 24.882264 
L 226.501312 24.882264 
L 226.501312 24.774829 
L 226.501312 24.735761 
L 227.617312 24.735761 
L 227.617312 24.628325 
L 227.617312 24.608792 
L 229.849312 24.52089 
L 229.849312 24.501356 
L 229.849312 24.403688 
L 230.965312 24.403688 
L 230.965312 24.296252 
L 230.965312 24.286485 
L 233.197312 24.20835 
L 233.197312 24.17905 
L 233.197312 24.091148 
L 234.313312 24.091148 
L 234.313312 23.983712 
L 234.313312 23.934878 
L 235.429312 23.934878 
L 235.429312 23.827442 
L 235.429312 23.759074 
L 237.661312 23.671172 
L 237.661312 23.651639 
L 237.661312 23.563737 
L 238.777312 23.563737 
L 238.777312 23.456301 
L 238.777312 23.436768 
L 239.893312 23.436768 
L 239.893312 23.329332 
L 239.893312 23.300031 
L 242.125312 23.192596 
L 242.125312 23.05586 
L 243.241312 23.05586 
L 243.241312 22.948424 
L 243.241312 22.938657 
L 245.473312 22.831222 
L 245.473312 22.782387 
L 247.705312 22.684719 
L 247.705312 22.674952 
L 247.705312 22.626117 
L 249.937312 22.567516 
L 249.937312 22.518682 
L 249.937312 22.489381 
L 252.169312 22.411246 
L 252.169312 22.381946 
L 252.169312 22.323345 
L 254.401312 22.235443 
L 254.401312 22.215909 
L 254.401312 22.157308 
L 256.633312 22.08894 
L 256.633312 22.049872 
L 256.633312 21.96197 
L 258.865312 21.864302 
L 258.865312 21.854535 
L 258.865312 21.795934 
L 261.097312 21.717799 
L 261.097312 21.688498 
L 261.097312 21.62013 
L 263.329312 21.532228 
L 263.329312 21.512694 
L 263.329312 21.502928 
L 264.445312 21.502928 
L 264.445312 21.395492 
L 264.445312 21.385725 
L 265.561312 21.385725 
L 265.561312 21.375958 
" clip-path="url(#pb3022100f8)" style="fill: none; stroke: #c25759; stroke-width: 1.5; stroke-linecap: round"/>
   </g>
   <g id="patch_3">
    <path d="M 41.245313 177.098906 
L 41.245313 10.778906 
" style="fill: none; stroke: #cccccc; stroke-width: 0.8; stroke-linejoin: miter; stroke-linecap: square"/>
   </g>
   <g id="patch_4">
    <path d="M 264.445312 177.098906 
L 264.445312 10.778906 
" style="fill: none; stroke: #cccccc; stroke-width: 0.8; stroke-linejoin: miter; stroke-linecap: square"/>
   </g>
   <g id="patch_5">
    <path d="M 41.245313 177.098906 
L 264.445312 177.098906 
" style="fill: none; stroke: #cccccc; stroke-width: 0.8; stroke-linejoin: miter; stroke-linecap: square"/>
   </g>
   <g id="patch_6">
    <path d="M 41.245313 10.778906 
L 264.445312 10.778906 
" style="fill: none; stroke: #cccccc; stroke-width: 0.8; stroke-linejoin: miter; stroke-linecap: square"/>
   </g>
   <g id="legend_1">
    <g id="patch_7">
     <path d="M 187.101562 172.098906 
L 257.445312 172.098906 
Q 259.445312 172.098906 259.445312 170.098906 
L 259.445312 128.662969 
Q 259.445312 126.662969 257.445312 126.662969 
L 187.101562 126.662969 
Q 185.101562 126.662969 185.101562 128.662969 
L 185.101562 170.098906 
Q 185.101562 172.098906 187.101562 172.098906 
z
" style="fill: #ffffff; opacity: 0.8; stroke: #cccccc; stroke-linejoin: miter"/>
    </g>
    <g id="line2d_15">
     <path d="M 189.101562 134.320781 
L 199.101562 134.320781 
L 199.101562 134.320781 
L 209.101562 134.320781 
L 209.101562 134.320781 
" style="fill: none; stroke: #843b62; stroke-width: 1.5; stroke-linecap: round"/>
    </g>
    <g id="text_14">
     <!-- DAiSEE -->
     <g style="fill: #262626" transform="translate(217.101562 137.820781) scale(0.1 -0.1)">
      <defs>
       <path id="ArialMT-44" d="M 494 0 
L 494 4581 
L 2072 4581 
Q 2606 4581 2888 4516 
Q 3281 4425 3559 4188 
Q 3922 3881 4101 3404 
Q 4281 2928 4281 2316 
Q 4281 1794 4159 1391 
Q 4038 988 3847 723 
Q 3656 459 3429 307 
Q 3203 156 2883 78 
Q 2563 0 2147 0 
L 494 0 
z
M 1100 541 
L 2078 541 
Q 2531 541 2789 625 
Q 3047 709 3200 863 
Q 3416 1078 3536 1442 
Q 3656 1806 3656 2325 
Q 3656 3044 3420 3430 
Q 3184 3816 2847 3947 
Q 2603 4041 2063 4041 
L 1100 4041 
L 1100 541 
z
" transform="scale(0.015625)"/>
       <path id="ArialMT-41" d="M -9 0 
L 1750 4581 
L 2403 4581 
L 4278 0 
L 3588 0 
L 3053 1388 
L 1138 1388 
L 634 0 
L -9 0 
z
M 1313 1881 
L 2866 1881 
L 2388 3150 
Q 2169 3728 2063 4100 
Q 1975 3659 1816 3225 
L 1313 1881 
z
" transform="scale(0.015625)"/>
       <path id="ArialMT-53" d="M 288 1472 
L 859 1522 
Q 900 1178 1048 958 
Q 1197 738 1509 602 
Q 1822 466 2213 466 
Q 2559 466 2825 569 
Q 3091 672 3220 851 
Q 3350 1031 3350 1244 
Q 3350 1459 3225 1620 
Q 3100 1781 2813 1891 
Q 2628 1963 1997 2114 
Q 1366 2266 1113 2400 
Q 784 2572 623 2826 
Q 463 3081 463 3397 
Q 463 3744 659 4045 
Q 856 4347 1234 4503 
Q 1613 4659 2075 4659 
Q 2584 4659 2973 4495 
Q 3363 4331 3572 4012 
Q 3781 3694 3797 3291 
L 3216 3247 
Q 3169 3681 2898 3903 
Q 2628 4125 2100 4125 
Q 1550 4125 1298 3923 
Q 1047 3722 1047 3438 
Q 1047 3191 1225 3031 
Q 1400 2872 2139 2705 
Q 2878 2538 3153 2413 
Q 3553 2228 3743 1945 
Q 3934 1663 3934 1294 
Q 3934 928 3725 604 
Q 3516 281 3123 101 
Q 2731 -78 2241 -78 
Q 1619 -78 1198 103 
Q 778 284 539 648 
Q 300 1013 288 1472 
z
" transform="scale(0.015625)"/>
       <path id="ArialMT-45" d="M 506 0 
L 506 4581 
L 3819 4581 
L 3819 4041 
L 1113 4041 
L 1113 2638 
L 3647 2638 
L 3647 2100 
L 1113 2100 
L 1113 541 
L 3925 541 
L 3925 0 
L 506 0 
z
" transform="scale(0.015625)"/>
      </defs>
      <use xlink:href="#ArialMT-44"/>
      <use xlink:href="#ArialMT-41" x="72.216797"/>
      <use xlink:href="#ArialMT-69" x="138.916016"/>
      <use xlink:href="#ArialMT-53" x="161.132812"/>
      <use xlink:href="#ArialMT-45" x="227.832031"/>
      <use xlink:href="#ArialMT-45" x="294.53125"/>
     </g>
    </g>
    <g id="line2d_16">
     <path d="M 189.101562 148.466094 
L 199.101562 148.466094 
L 199.101562 148.466094 
L 209.101562 148.466094 
L 209.101562 148.466094 
" style="fill: none; stroke: #599cb4; stroke-width: 1.5; stroke-linecap: round"/>
    </g>
    <g id="text_15">
     <!-- DevEmo -->
     <g style="fill: #262626" transform="translate(217.101562 151.966094) scale(0.1 -0.1)">
      <defs>
       <path id="ArialMT-76" d="M 1344 0 
L 81 3319 
L 675 3319 
L 1388 1331 
Q 1503 1009 1600 663 
Q 1675 925 1809 1294 
L 2547 3319 
L 3125 3319 
L 1869 0 
L 1344 0 
z
" transform="scale(0.015625)"/>
       <path id="ArialMT-6d" d="M 422 0 
L 422 3319 
L 925 3319 
L 925 2853 
Q 1081 3097 1340 3245 
Q 1600 3394 1931 3394 
Q 2300 3394 2536 3241 
Q 2772 3088 2869 2813 
Q 3263 3394 3894 3394 
Q 4388 3394 4653 3120 
Q 4919 2847 4919 2278 
L 4919 0 
L 4359 0 
L 4359 2091 
Q 4359 2428 4304 2576 
Q 4250 2725 4106 2815 
Q 3963 2906 3769 2906 
Q 3419 2906 3187 2673 
Q 2956 2441 2956 1928 
L 2956 0 
L 2394 0 
L 2394 2156 
Q 2394 2531 2256 2718 
Q 2119 2906 1806 2906 
Q 1569 2906 1367 2781 
Q 1166 2656 1075 2415 
Q 984 2175 984 1722 
L 984 0 
L 422 0 
z
" transform="scale(0.015625)"/>
      </defs>
      <use xlink:href="#ArialMT-44"/>
      <use xlink:href="#ArialMT-65" x="72.216797"/>
      <use xlink:href="#ArialMT-76" x="127.832031"/>
      <use xlink:href="#ArialMT-45" x="177.832031"/>
      <use xlink:href="#ArialMT-6d" x="244.53125"/>
      <use xlink:href="#ArialMT-6f" x="327.832031"/>
     </g>
    </g>
    <g id="line2d_17">
     <path d="M 189.101562 162.611406 
L 199.101562 162.611406 
L 199.101562 162.611406 
L 209.101562 162.611406 
L 209.101562 162.611406 
" style="fill: none; stroke: #c25759; stroke-width: 1.5; stroke-linecap: round"/>
    </g>
    <g id="text_16">
     <!-- EA -->
     <g style="fill: #262626" transform="translate(217.101562 166.111406) scale(0.1 -0.1)">
      <use xlink:href="#ArialMT-45"/>
      <use xlink:href="#ArialMT-41" x="66.699219"/>
     </g>
    </g>
   </g>
  </g>
 </g>
 <defs>
  <clipPath id="pb3022100f8">
   <rect x="41.245313" y="10.778906" width="223.2" height="166.32"/>
  </clipPath>
 </defs>
</svg>
